<svg width="187" height="139" viewBox="0 0 187 139" fill="none" xmlns="http://www.w3.org/2000/svg">
<path opacity="0.1" d="M0.0708462 71.3481C0.553877 76.7042 3.58075 81.5537 5.43178 86.6556C8.05032 93.9005 8.29729 101.792 6.13694 109.186C5.69622 110.706 5.15325 112.23 5.15149 113.787C5.15149 119.154 11.2599 122.715 16.8095 125.081C30.9142 131.076 45.6253 135.525 60.686 138.352C65.6115 139.282 71.7622 139.687 74.879 136.184C76.3739 134.502 76.7371 132.301 77.8353 130.42C80.6366 125.609 87.4519 123.74 93.5691 122.669C100.945 121.378 108.39 120.52 115.866 120.1C123.392 119.676 131.938 119.309 136.926 114.361C140.099 111.216 141.019 106.876 141.144 102.778C141.558 89.3328 135.14 74.7823 143.378 63.1367C146.833 58.2519 152.471 54.6853 155.894 49.7881C160.857 42.6903 160.428 33.6759 157.068 26.1121C153.708 18.5484 147.755 12.1176 141.89 5.81745C139.951 3.73327 137.881 1.56615 134.965 0.599066C131.933 -0.406845 128.495 0.0555202 125.245 0.53024C110.458 2.69207 95.0993 5.04625 82.7044 12.4688C76.5449 16.1554 71.4008 20.9396 65.9059 25.3321C54.0363 34.8318 40.2841 43.6079 24.6102 47.358C11.8769 50.4075 -1.07503 58.6278 0.0708462 71.3481Z" transform="translate(27.3915)" fill="#E30613"/>
<path opacity="0.1" d="M0.0708462 18.1761C0.553877 19.5406 3.58075 20.776 5.43178 22.0758C8.05032 23.9214 8.29729 25.9317 6.13694 27.8155C5.69622 28.2026 5.15325 28.591 5.15149 28.9876C5.15149 30.3547 11.2599 31.262 16.8095 31.8649C30.9142 33.3919 45.6253 34.5255 60.686 35.2457C65.6115 35.4826 71.7622 35.5855 74.879 34.6931C76.3739 34.2647 76.7371 33.7041 77.8353 33.2248C80.6366 31.9993 87.4519 31.5232 93.5691 31.2503C100.945 30.9215 108.39 30.7029 115.866 30.5957C123.392 30.4878 131.938 30.3943 136.926 29.1337C140.099 28.3325 141.019 27.227 141.144 26.1831C141.558 22.7578 135.14 19.051 143.378 16.0843C146.833 14.8398 152.471 13.9312 155.894 12.6837C160.857 10.8755 160.428 8.57903 157.068 6.65214C153.708 4.72526 147.755 3.087 141.89 1.48201C139.951 0.951062 137.881 0.398982 134.965 0.152614C131.933 -0.103645 128.495 0.0141439 125.245 0.13508C110.458 0.685811 95.0993 1.28555 82.7044 3.17647C76.5449 4.11563 71.4008 5.33443 65.9059 6.45343C54.0363 8.8735 40.2841 11.1092 24.6102 12.0646C11.8769 12.8415 -1.07503 14.9356 0.0708462 18.1761Z" transform="translate(0 83.5057)" fill="#E30613"/>
<g opacity="0.7">
<path opacity="0.7" d="M7.08467 1.41569V-1.58545e-06H-1.27017e-06V6.54465C-1.27017e-06 6.91047 0.145529 7.26131 0.404572 7.51998C0.663615 7.77865 1.01495 7.92398 1.38129 7.92398H5.70337C6.06971 7.92398 6.42105 7.77865 6.68009 7.51998C6.93914 7.26131 7.08467 6.91047 7.08467 6.54465V5.09129C7.57329 5.09129 8.04191 4.89746 8.38742 4.55244C8.73294 4.20742 8.92704 3.73948 8.92704 3.25154C8.92704 2.76361 8.73294 2.29567 8.38742 1.95065C8.04191 1.60563 7.57329 1.4118 7.08467 1.4118V1.41569ZM7.08467 4.38734V2.12224C7.23675 2.1171 7.38832 2.14256 7.53034 2.19713C7.67237 2.2517 7.80194 2.33425 7.91135 2.43986C8.02076 2.54548 8.10777 2.672 8.16719 2.81189C8.22661 2.95178 8.25724 3.10219 8.25724 3.25414C8.25724 3.4061 8.22661 3.5565 8.16719 3.6964C8.10777 3.83629 8.02076 3.96281 7.91135 4.06842C7.80194 4.17404 7.67237 4.25659 7.53034 4.31115C7.38832 4.36572 7.23675 4.39119 7.08467 4.38605V4.38734Z" transform="translate(128.211 51.4021)" fill="url(#paint0_linear)"/>
</g>
<path d="M1.68175 -7.92725e-07C1.34913 -7.92725e-07 1.02398 0.0984925 0.747418 0.283022C0.470856 0.467551 0.255306 0.729828 0.128019 1.03669C0.000731612 1.34355 -0.0325789 1.68121 0.0323117 2.00697C0.0972022 2.33273 0.257377 2.63197 0.492574 2.86683C0.72777 3.10169 1.02743 3.26163 1.35365 3.32643C1.67988 3.39123 2.01803 3.35797 2.32533 3.23086C2.63263 3.10376 2.89528 2.88851 3.08007 2.61234C3.26486 2.33618 3.36349 2.01149 3.36349 1.67935C3.36349 1.23396 3.18631 0.806808 2.87092 0.491869C2.55553 0.17693 2.12777 -7.92725e-07 1.68175 -7.92725e-07ZM1.68175 2.71319C1.47595 2.71319 1.27477 2.65225 1.10366 2.53808C0.932547 2.42391 0.799181 2.26164 0.720426 2.07178C0.641672 1.88192 0.621072 1.673 0.661221 1.47145C0.701369 1.26989 0.800465 1.08475 0.945985 0.939441C1.0915 0.794129 1.27691 0.695171 1.47875 0.655079C1.68059 0.614987 1.88981 0.635562 2.07994 0.714204C2.27007 0.792847 2.43257 0.926023 2.54691 1.09689C2.66124 1.26776 2.72227 1.46865 2.72227 1.67415C2.72227 1.94972 2.61264 2.21401 2.41751 2.40887C2.22237 2.60372 1.95771 2.71319 1.68175 2.71319Z" transform="translate(133.392 53.0386)" fill="#E30613"/>
<path opacity="0.1" d="M1.68175 -7.92725e-07C1.34913 -7.92725e-07 1.02398 0.0984925 0.747418 0.283022C0.470856 0.467551 0.255306 0.729828 0.128019 1.03669C0.000731612 1.34355 -0.0325789 1.68121 0.0323117 2.00697C0.0972022 2.33273 0.257377 2.63197 0.492574 2.86683C0.72777 3.10169 1.02743 3.26163 1.35365 3.32643C1.67988 3.39123 2.01803 3.35797 2.32533 3.23086C2.63263 3.10376 2.89528 2.88851 3.08007 2.61234C3.26486 2.33618 3.36349 2.01149 3.36349 1.67935C3.36349 1.23396 3.18631 0.806808 2.87092 0.491869C2.55553 0.17693 2.12777 -7.92725e-07 1.68175 -7.92725e-07ZM1.68175 2.71319C1.47595 2.71319 1.27477 2.65225 1.10366 2.53808C0.932547 2.42391 0.799181 2.26164 0.720426 2.07178C0.641672 1.88192 0.621072 1.673 0.661221 1.47145C0.701369 1.26989 0.800465 1.08475 0.945985 0.939441C1.0915 0.794129 1.27691 0.695171 1.47875 0.655079C1.68059 0.614987 1.88981 0.635562 2.07994 0.714204C2.27007 0.792847 2.43257 0.926023 2.54691 1.09689C2.66124 1.26776 2.72227 1.46865 2.72227 1.67415C2.72227 1.94972 2.61264 2.21401 2.41751 2.40887C2.22237 2.60372 1.95771 2.71319 1.68175 2.71319Z" transform="translate(133.392 53.0386)" fill="black"/>
<path d="M3.49297e-06 -3.1709e-07H6.46946V5.97448C6.46946 6.31033 6.33585 6.63243 6.09803 6.86991C5.8602 7.10739 5.53765 7.24081 5.20132 7.24081H1.26814C0.93181 7.24081 0.609247 7.10739 0.371425 6.86991C0.133603 6.63243 3.49297e-06 6.31033 3.49297e-06 5.97448V-3.1709e-07Z" transform="translate(128.598 51.7463)" fill="#E30613"/>
<path opacity="0.1" d="M1.26163 1.58545e-06V5.97448C1.26163 6.13992 1.229 6.30374 1.1656 6.4566C1.1022 6.60945 1.00926 6.74833 0.89211 6.86532C0.774957 6.9823 0.635875 7.0751 0.482806 7.13841C0.329737 7.20173 0.165679 7.23431 -1.58771e-06 7.23431H0.650325C0.984932 7.23431 1.30584 7.10158 1.54244 6.86532C1.77904 6.62905 1.91196 6.30861 1.91196 5.97448V1.58545e-06H1.26163Z" transform="translate(132.641 51.7463)" fill="black"/>
<path d="M0.310317 0.170205C0.254841 0.171935 0.200436 0.18587 0.150974 0.211014C0.101512 0.236159 0.0582114 0.271894 0.0241713 0.31567C-0.0603712 0.468928 0.0931041 0.642969 0.233575 0.748172C0.493706 0.942992 0.765544 1.13781 0.942433 1.40666C1.11932 1.67552 1.17395 2.05606 0.981451 2.31582C0.730425 2.65611 0.129522 2.73014 0.070993 3.14835C0.033274 3.4172 0.266092 3.64709 0.502811 3.78217C1.0855 4.11596 1.83728 4.20428 2.25869 4.7264C2.43298 4.36793 2.82448 4.16012 3.21338 4.077C3.60227 3.99387 4.00678 3.99517 4.40218 3.93542C4.46732 3.93424 4.53125 3.91761 4.58869 3.88689C4.64614 3.85618 4.69544 3.81227 4.73254 3.75879C4.8431 3.5354 4.52834 3.26654 4.6376 3.04315C4.72084 2.87171 4.96276 2.886 5.13965 2.81716C5.42839 2.70546 5.54675 2.3353 5.46481 2.03788C5.38287 1.74045 5.15135 1.50667 4.90813 1.31575C4.2578 0.796227 3.4644 0.498802 2.6671 0.276707C2.29642 0.175401 1.8607 0.016948 1.47571 0.00136244C1.09071 -0.0142232 0.682304 0.107862 0.310317 0.170205Z" transform="translate(129.56 46.7601)" fill="#EEEEEE"/>
<path d="M13.5268 -1.4269e-06L-3.17543e-07 42.0811" transform="translate(70.9427 60.5081)" stroke="#E0E0E0" stroke-width="8" stroke-miterlimit="10"/>
<g opacity="0.7">
<path opacity="0.7" d="M43.2416 91.5072C41.578 91.6033 40.0953 92.9957 40.0953 92.9957L39.3786 91.2202L39.3201 91.2397C39.67 89.7097 46.7949 58.1566 39.6621 55.437C34.1825 53.3472 28.3699 50.7613 23.815 50.8574V43.3997H30.1999V43.1399H35.2542C36.2232 42.449 34.8146 41.971 33.2421 41.6762C33.3064 41.6029 33.3631 41.5232 33.4112 41.4385L41.5065 26.9348C41.5065 26.9348 43.369 23.88 42.1711 22.4189C40.9732 20.9577 39.2446 26.1386 39.2446 26.1386L32.5944 35.7017C32.5944 35.7017 25.8752 28.7129 21.6117 25.2386C21.1379 24.7695 20.6033 24.3659 20.0223 24.0385C19.2419 23.5125 18.6527 23.2384 18.3613 23.3462H18.3535C17.7063 23.1671 17.0378 23.0763 16.3661 23.0761H15.8342V21.9864C17.0261 21.5934 18.1165 20.9426 19.0277 20.0805C19.9389 19.2185 20.6484 18.1663 21.1057 16.999C21.8561 15.7579 22.3144 14.3628 22.446 12.9191C22.5775 11.4753 22.379 10.0205 21.8653 8.66458C21.9446 8.65501 22.0209 8.62843 22.089 8.58665C22.3296 8.43209 22.3491 8.09311 22.3309 7.80737C22.2436 6.85037 21.9241 5.92902 21.4002 5.12296C20.8762 4.3169 20.1636 3.65039 19.3238 3.18104C18.6501 2.81348 17.8775 2.55892 17.3806 1.97446C16.954 1.47183 16.7745 0.769174 16.2569 0.358754C15.643 -0.128296 14.7559 -0.0451732 14.0028 0.173025C13.1644 0.41538 12.3702 0.789816 11.65 1.2822C10.8358 1.83939 10.0996 2.55502 9.16181 2.86414C8.49587 3.08364 7.77271 3.07844 7.10157 3.28495C6.58675 3.44768 6.11723 3.72848 5.73057 4.10489C5.34391 4.4813 5.05085 4.94287 4.87485 5.45265C4.70508 5.99838 4.64064 6.57134 4.68495 7.14109C4.27688 7.82186 3.95572 8.55096 3.72898 9.31138L3.5781 9.3932L3.72377 9.32826C3.21499 11.0431 3.19806 12.8661 3.6749 14.5901C4.15175 16.3141 5.10326 17.87 6.42133 19.081C7.4629 20.435 8.88811 21.445 10.5119 21.9799V23.2982C9.3534 23.5477 8.24819 23.9997 7.24724 24.6333C7.24724 24.6333 7.1627 24.6853 7.01703 24.784L6.97281 24.8139C5.98821 25.4814 2.68975 27.918 2.80161 30.552C2.80161 30.6533 2.80161 30.755 2.80161 30.8572C2.62155 31.6182 2.53033 32.3975 2.52977 33.1794V52.3017C2.52637 54.4135 3.23617 56.4649 4.54449 58.1242C1.76889 58.745 -3.17543e-07 59.6827 -3.17543e-07 60.7361C0.0133159 60.8221 0.0133159 60.9097 -3.17543e-07 60.9958C-3.17543e-07 62.8661 5.59281 64.3831 12.5032 64.3831C13.3382 64.3831 14.1537 64.361 14.9432 64.3181L22.7471 70.6251L10.2479 90.689C10.2479 90.689 6.12478 93.8762 9.31659 94.94C12.5084 96.0037 19.0273 96.7998 19.0273 96.7998C19.0273 96.7998 20.0912 94.94 18.628 94.1438C17.1647 93.3476 15.1695 93.7451 15.1695 93.7451L15.4297 92.1514C15.4297 92.1514 37.1116 73.5552 32.5892 67.1807C31.7243 65.9611 30.8593 64.7026 29.9879 63.4635L33.4008 63.7739L34.1812 92.9658L34.2787 92.9346C34.0836 93.5087 32.7049 97.8363 35.7615 97.1038C39.0339 96.3245 44.987 93.5541 44.987 93.5541C44.987 93.5541 44.9051 91.4111 43.2416 91.5072ZM30.1999 41.2774L23.815 39.4267V33.9717L30.754 41.3216C30.4132 41.2943 30.1999 41.2774 30.1999 41.2774Z" transform="translate(51.7087 15.8212)" fill="url(#paint1_linear)"/>
</g>
<path d="M9.36471 18.7027C14.5367 18.7027 18.7294 14.516 18.7294 9.35136C18.7294 4.18675 14.5367 0 9.36471 0C4.19272 0 0 4.18675 0 9.35136C0 14.516 4.19272 18.7027 9.36471 18.7027Z" transform="translate(55.4651 19.3361)" fill="black"/>
<path d="M5.59977 10.4117L12.7469 17.9876C12.8972 18.1472 13.0832 18.2692 13.2897 18.3436C13.4961 18.418 13.7173 18.4428 13.9351 18.4158C14.1529 18.3889 14.3613 18.311 14.5433 18.1885C14.7254 18.066 14.8759 17.9024 14.9827 17.7109L22.8985 3.52934L20.6874 2.75006L14.1841 12.1014C14.1841 12.1014 1.97485 -0.606041 0.267087 0.0225783C-1.44067 0.651197 5.59977 10.4117 5.59977 10.4117Z" transform="translate(69.8957 39.7059)" fill="#E30613"/>
<path d="M10.5353 -1.4269e-06L-3.17543e-07 27.2748" transform="translate(51.3036 76.3534)" stroke="#BDBDBD" stroke-width="5" stroke-miterlimit="10"/>
<path d="M-3.17543e-07 -1.4269e-06L10.5353 27.2748" transform="translate(67.0414 76.3534)" stroke="#BDBDBD" stroke-width="5" stroke-miterlimit="10"/>
<path d="M12.2261 6.62388C18.9785 6.62388 24.4523 5.14107 24.4523 3.31194C24.4523 1.4828 18.9785 0 12.2261 0C5.47383 0 0 1.4828 0 3.31194C0 5.14107 5.47383 6.62388 12.2261 6.62388Z" transform="translate(52.2134 73.2362)" fill="#B84733"/>
<path d="M12.2261 6.62388C18.9785 6.62388 24.4523 5.14107 24.4523 3.31194C24.4523 1.4828 18.9785 0 12.2261 0C5.47383 0 0 1.4828 0 3.31194C0 5.14107 5.47383 6.62388 12.2261 6.62388Z" transform="translate(52.2134 72.9764)" fill="#F55F44"/>
<path d="M0 3.1709e-06L11.5355 3.54962" transform="translate(59.2945 82.3447)" stroke="#BDBDBD" stroke-width="5" stroke-miterlimit="10"/>
<path d="M11.5355 3.1709e-06L-2.38157e-07 3.54962" transform="translate(58.0488 82.3447)" stroke="#BDBDBD" stroke-width="5" stroke-miterlimit="10"/>
<path d="M9.89668 0H13.5268C15.4586 0 17.3112 0.76629 18.6771 2.13029C20.0431 3.4943 20.8105 5.34429 20.8105 7.27328V26.4955H2.43615e-08V9.88516C-0.000341642 8.58715 0.255392 7.30178 0.752594 6.10247C1.2498 4.90316 1.97872 3.81341 2.89775 2.89546C3.81678 1.9775 4.90789 1.24932 6.10878 0.752514C7.30967 0.255706 8.59681 -4.48389e-08 9.89668 0Z" transform="translate(54.6848 39.4648)" fill="#E30613"/>
<path d="M-3.17543e-07 0H20.8105V11.2996H9.23465C6.78547 11.2996 4.4366 10.328 2.70477 8.59865C0.972934 6.86929 -3.17543e-07 4.52377 -3.17543e-07 2.07808V0Z" transform="translate(54.6848 65.9603)" fill="#39447A"/>
<path opacity="0.05" d="M0.0206898 6.00565L12.7463 18.0845H26.7934V16.2662L14.6973 12.7594L4.35057 -1.10981e-06C4.35057 -1.10981e-06 -0.348696 2.89503 0.0206898 6.00565Z" transform="translate(54.9449 41.2598)" fill="black"/>
<path d="M0.0206898 6.00565L12.7463 18.0845H26.7934V16.2662L14.6973 12.7594L4.35057 -1.10981e-06C4.35057 -1.10981e-06 -0.348696 2.89503 0.0206898 6.00565Z" transform="translate(54.9449 41)" fill="#E30613"/>
<path d="M3.17543e-07 4.75635e-07C3.17543e-07 4.75635e-07 6.7634 0.51952 4.94249 1.81832H3.17543e-07V4.75635e-07Z" transform="translate(81.7387 57.261)" fill="#FDA57D"/>
<path d="M3.17543e-07 3.8906C3.17543e-07 3.8906 1.69085 -1.17472 2.86144 0.253956C4.03203 1.68264 2.21111 4.66988 2.21111 4.66988L3.17543e-07 3.8906Z" transform="translate(90.5829 38.5641)" fill="#FDA57D"/>
<path opacity="0.05" d="M-3.17543e-07 -1.4269e-06V0.60524L20.8105 0.649399V-1.4269e-06H-3.17543e-07Z" transform="translate(54.6848 65.9629)" fill="black"/>
<path d="M1.59548 11.3633L15.5905 12.6374L16.3527 41.1773L21.3641 39.5486C21.3641 39.5486 28.8598 7.20845 21.7127 4.48097C14.5656 1.75349 6.83972 -1.8351 2.2276 1.0911C-2.38452 4.01729 1.59548 11.3633 1.59548 11.3633Z" transform="translate(69.277 66.6187)" fill="#39447A"/>
<path opacity="0.1" d="M3.17543e-07 4.75635e-07C3.17543e-07 4.75635e-07 7.67386 3.8964 8.71438 8.31231L3.17543e-07 4.75635e-07Z" transform="translate(71.7236 69.21)" fill="black"/>
<path d="M1.30065 8.18394L12.2261 17.0158L3.17543e-07 36.6277L5.07255 38.0563C5.07255 38.0563 26.2732 19.8731 21.851 13.6389C17.4288 7.40466 13.0065 0.131387 7.54379 0.00150681C2.08105 -0.128373 1.30065 8.18394 1.30065 8.18394Z" transform="translate(62.2286 68.9486)" fill="#39447A"/>
<path opacity="0.05" d="M-3.17543e-07 5.54907e-07L2.73137 4.67568L3.3817 3.37688L-3.17543e-07 5.54907e-07Z" transform="translate(80.6978 48.4292)" fill="black"/>
<path d="M2.09561 -3.48799e-06C2.09561 -3.48799e-06 -1.93642 3.11712 1.18515 4.15616C4.30672 5.1952 10.6799 5.97448 10.6799 5.97448C10.6799 5.97448 11.7204 4.15616 10.2897 3.37688C8.85901 2.5976 6.90803 2.98724 6.90803 2.98724L7.16816 1.42868L2.09561 -3.48799e-06Z" transform="translate(60.1334 105.576)" fill="#333333"/>
<path d="M0.488753 1.61441C0.488753 1.61441 -1.28274 6.51868 1.91947 5.75238C5.12168 4.98609 10.9408 2.28069 10.9408 2.28069C10.9408 2.28069 10.8615 0.188326 9.23435 0.281839C7.60723 0.375353 6.1583 1.7365 6.1583 1.7365L5.45725 1.90254e-06L0.488753 1.61441Z" transform="translate(85.2583 106.093)" fill="#333333"/>
<path d="M5.20262 2.5976C5.20262 1.16299 4.03797 0 2.60131 0C1.16465 0 0 1.16299 0 2.5976V5.1952C0 6.62981 1.16465 7.7928 2.60131 7.7928C4.03797 7.7928 5.20262 6.62981 5.20262 5.1952V2.5976Z" transform="translate(62.4892 34.9215)" fill="#FDA57D"/>
<path opacity="0.05" d="M2.60131 4.75635e-07C1.9114 4.75635e-07 1.24974 0.273675 0.761904 0.76082C0.274064 1.24796 3.17543e-07 1.90867 3.17543e-07 2.5976V3.48078C1.68966 4.03585 3.51295 4.03585 5.20262 3.48078V2.5976C5.20262 1.90867 4.92855 1.24796 4.44071 0.76082C3.95287 0.273675 3.29122 4.75635e-07 2.60131 4.75635e-07Z" transform="translate(62.4892 35.1813)" fill="black"/>
<path d="M8.32419 16.6246C12.9215 16.6246 16.6484 12.9031 16.6484 8.31232C16.6484 3.72155 12.9215 0 8.32419 0C3.72686 0 0 3.72155 0 8.31232C0 12.9031 3.72686 16.6246 8.32419 16.6246Z" transform="translate(56.7661 22.1934)" fill="#FDA57D"/>
<path opacity="0.05" d="M0.520262 9.23317C0.520262 9.23317 2.60131 9.76827 3.7719 7.40706C4.94249 5.04584 5.85294 3.75743 10.6654 5.15234C15.4778 6.54725 16.4455 6.71869 16.677 5.39911C16.8357 4.49774 15.124 2.30667 14.0237 1.01047C13.4878 0.377951 12.6124 4.75635e-07 11.6825 4.75635e-07H6.24314L2.9915 1.50271L0.520262 3.64963L3.17543e-07 6.54855L0.520262 9.23317Z" transform="translate(56.2454 20.8945)" fill="black"/>
<path d="M0.520262 9.23317C0.520262 9.23317 2.60131 9.76827 3.7719 7.40706C4.94249 5.04584 5.85294 3.75743 10.6654 5.15234C15.4778 6.54725 16.4455 6.71869 16.677 5.39911C16.8357 4.49774 15.124 2.30667 14.0237 1.01047C13.4878 0.377951 12.6124 4.75635e-07 11.6825 4.75635e-07H6.24314L2.9915 1.50271L0.520262 3.64963L3.17543e-07 6.54855L0.520262 9.23317Z" transform="translate(56.2454 20.6348)" fill="black"/>
<path d="M0.845425 3.37688C1.31234 3.37688 1.69085 2.62094 1.69085 1.68844C1.69085 0.75594 1.31234 0 0.845425 0C0.378509 0 0 0.75594 0 1.68844C0 2.62094 0.378509 3.37688 0.845425 3.37688Z" transform="translate(56.7661 28.1678)" fill="#FDA57D"/>
<path d="M1.29415 8.60739C1.10166 7.5203 0.911757 6.37865 1.26293 5.33182C1.43493 4.83329 1.72145 4.38192 2.09954 4.01384C2.47763 3.64576 2.93679 3.37121 3.44023 3.21218C4.09056 3.01086 4.80332 3.01476 5.45494 2.80046C6.3719 2.49914 7.09117 1.79908 7.88847 1.25359C8.59274 0.772131 9.36947 0.406026 10.1893 0.169088C10.9255 -0.0439153 11.793 -0.125739 12.3939 0.35092C12.8986 0.752249 13.0742 1.43931 13.4917 1.93026C13.9781 2.50173 14.7325 2.7498 15.3919 3.10957C16.2134 3.56918 16.9103 4.22181 17.4223 5.01096C17.9342 5.80011 18.2458 6.70198 18.3301 7.63849C18.3522 7.91773 18.3301 8.24892 18.0934 8.39958C17.947 8.47418 17.782 8.50443 17.6187 8.4866C14.2916 8.43855 10.9606 8.39179 7.64785 8.08657C6.61773 7.99176 5.58631 7.87227 4.55229 7.91123C2.95458 7.97448 1.39458 8.41466 -4.76314e-07 9.19575" transform="translate(55.7124 16.9044)" fill="black"/>
<g opacity="0.7">
<path opacity="0.7" d="M22.6277 14.7969C22.8422 13.932 22.7896 13.0226 22.4769 12.1881C22.1642 11.3536 21.6061 10.6331 20.8757 10.1212C20.4855 9.86143 20.0589 9.66271 19.7052 9.36269C19.1121 8.86395 18.7726 8.12753 18.5281 7.39111C17.9402 5.62734 17.7542 3.64927 16.7228 2.05564C15.7837 0.60488 13.9563 0.180174 12.3343 0.0360072C11.7438 -0.0172436 11.1234 -0.0445171 10.5837 0.199657C9.67971 0.60748 9.2492 1.6738 9.20887 2.66738C9.16855 3.66096 9.42608 4.63376 9.49112 5.62085C9.55615 6.60793 9.37926 7.69893 8.64829 8.36651C7.91732 9.03409 6.8729 9.11592 5.90391 9.24969C4.63531 9.42536 3.38886 9.73446 2.18534 10.1718C1.17473 10.5394 0.0496676 11.2018 0.00154344 12.2746C-0.0374762 13.1513 0.671381 13.8513 1.20335 14.5488C2.19835 15.8476 2.6952 17.5737 2.35833 19.1777C2.01496 20.8103 0.86648 22.2117 0.657074 23.8677C0.603747 24.2885 0.619355 24.7353 0.823558 25.1067C0.985696 25.3682 1.19944 25.5941 1.45177 25.7704C2.07609 26.2523 2.77324 26.6393 3.36374 27.1614C4.59545 28.2511 5.26269 29.8318 5.77645 31.3929C5.82587 31.5436 5.87009 31.6955 5.91692 31.8462H4.70601C3.51938 31.8496 2.38234 32.3219 1.54327 33.1597C0.704194 33.9976 0.23129 35.133 0.227858 36.318C0.23129 37.5029 0.704194 38.6383 1.54327 39.4762C2.38234 40.3141 3.51938 40.7863 4.70601 40.7897H16.8021C17.9887 40.7863 19.1258 40.3141 19.9648 39.4762C20.8039 38.6383 21.2768 37.5029 21.2802 36.318C21.2789 35.1297 20.8053 33.9905 19.9634 33.1506C19.1216 32.3107 17.9804 31.8388 16.7904 31.8384H13.4789C14.2593 30.7903 15.0813 29.8058 16.2909 29.4019C17.5005 28.9979 18.9638 29.2356 19.9133 28.3927C20.3763 27.9823 20.6221 27.3744 20.7353 26.7666C20.9357 25.6656 20.7482 24.5293 20.2046 23.5508C19.8235 22.8715 19.2668 22.252 19.1459 21.4857C19.0431 20.8285 19.2759 20.1622 19.6024 19.579C20.5168 17.9179 22.1348 16.6282 22.6277 14.7969Z" transform="translate(26.0665 68.3414)" fill="url(#paint2_linear)"/>
</g>
<path d="M11.7489 0.0342509C11.187 -0.0164023 10.5965 -0.0423807 10.0815 0.190104C9.22175 0.579744 8.81075 1.59411 8.77173 2.53574C8.73271 3.47737 8.97853 4.40731 9.03966 5.34894C9.10079 6.29057 8.93301 7.32571 8.23716 7.96342C7.54131 8.60113 6.54631 8.67646 5.62414 8.80374C4.41589 8.97089 3.22872 9.2652 2.08246 9.68173C1.11998 10.0311 0.0482398 10.6636 0.00141624 11.6845C-0.0350021 12.5196 0.638737 13.1859 1.14599 13.8496C2.09417 15.0925 2.56631 16.7303 2.24504 18.2577C1.91728 19.8163 0.82343 21.1475 0.625731 22.7243C0.575005 23.1243 0.589312 23.5503 0.784411 23.9036C0.938755 24.1528 1.14233 24.368 1.38271 24.5361C1.97711 24.9946 2.64044 25.3634 3.20363 25.8609C4.37422 26.8999 5.01154 28.4039 5.50058 29.8872C5.98165 31.3498 6.35848 32.8445 6.62825 34.3602C7.63886 33.7108 8.94472 33.7212 10.023 33.1913C12.3186 32.0678 13.0912 28.8105 15.5156 27.9961C16.6628 27.613 18.061 27.8377 18.965 27.035C19.4059 26.6454 19.64 26.0661 19.7453 25.4868C19.9361 24.441 19.7592 23.3614 19.2446 22.4308C18.8817 21.7814 18.351 21.1969 18.2353 20.4644C18.1364 19.8383 18.3654 19.2045 18.6697 18.6461C19.5411 17.0641 21.0824 15.8367 21.552 14.0925C21.7573 13.2681 21.7078 12.401 21.4099 11.6053C21.1121 10.8096 20.5798 10.1226 19.8832 9.63498C19.5151 9.38691 19.1028 9.19858 18.7647 8.91284C18.1989 8.43748 17.8776 7.73613 17.6435 7.03608C17.0829 5.35673 16.906 3.47217 15.924 1.95517C15.0331 0.575848 13.2928 0.170625 11.7489 0.0342509Z" transform="translate(26.6038 69.3108)" fill="#3EC300"/>
<path opacity="0.6" d="M3.41292 1.90254e-06C3.41292 1.90254e-06 5.54599 28.5229 0 33.4259" transform="translate(34.9229 69.4021)" stroke="#535461" stroke-miterlimit="10"/>
<path d="M15.7782 2.53672e-06H4.26354C1.90885 2.53672e-06 0 1.90613 0 4.25746V4.25876C0 6.6101 1.90885 8.51623 4.26354 8.51623H15.7782C18.1329 8.51623 20.0418 6.6101 20.0418 4.25876V4.25746C20.0418 1.90613 18.1329 2.53672e-06 15.7782 2.53672e-06Z" transform="translate(26.8241 99.6343)" fill="#E30613"/>
<path opacity="0.6" d="M-4.76314e-07 0.0362976C-4.76314e-07 0.0362976 5.45104 -0.598817 12.1065 3.44435" transform="translate(26.6104 80.4368)" stroke="#535461" stroke-miterlimit="10"/>
<path opacity="0.6" d="M7.93856e-07 5.96019C7.93856e-07 5.96019 3.02923 0.957216 9.5325 3.1709e-07" transform="translate(38.6101 81.3251)" stroke="#535461" stroke-miterlimit="10"/>
<path opacity="0.6" d="M3.17543e-07 0.380975C3.17543e-07 0.380975 7.5555 -0.898344 11.0269 1.23169" transform="translate(27.1439 91.6995)" stroke="#535461" stroke-miterlimit="10"/>
<path opacity="0.6" d="M4.76314e-07 0.906466C4.76314e-07 0.906466 3.95529 -0.885874 8.40483 0.570081" transform="translate(37.7401 94.947)" stroke="#535461" stroke-miterlimit="10"/>
<path d="M0.195095 0.389638C0.246838 0.389638 0.296463 0.369114 0.333051 0.332578C0.369639 0.296042 0.390193 0.246488 0.390193 0.194818C0.390193 0.143149 0.369639 0.0935984 0.333051 0.0570625C0.296463 0.0205267 0.246838 -1.74399e-06 0.195095 -1.74399e-06C0.143352 -1.74399e-06 0.0937345 0.0205267 0.0571465 0.0570625C0.0205585 0.0935984 -3.17543e-06 0.143149 -3.17543e-06 0.194818C-3.17543e-06 0.246488 0.0205585 0.296042 0.0571465 0.332578C0.0937345 0.369114 0.143352 0.389638 0.195095 0.389638Z" transform="translate(101.529 68.8424)" fill="url(#paint3_linear)"/>
<path d="M9.52628e-07 -1.4269e-06L13.5268 48.0673" transform="translate(130.352 60.5081)" stroke="#E0E0E0" stroke-width="8" stroke-miterlimit="10"/>
<path d="M73.046 0H0V2.84177H73.046V0Z" transform="translate(70.8868 59.1)" fill="#E0E0E0"/>
<path d="M11.1206 0H0.845425C0.378509 0 0 0.377969 0 0.844218C0 1.31047 0.378509 1.68844 0.845425 1.68844H11.1206C11.5875 1.68844 11.966 1.31047 11.966 0.844218C11.966 0.377969 11.5875 0 11.1206 0Z" transform="translate(88.8923 58.4299)" fill="#535461"/>
<g opacity="0.7">
<path opacity="0.7" d="M26.0703 0H3.67045C1.64332 0 0 1.64097 0 3.66521V16.8688C0 18.8931 1.64332 20.534 3.67045 20.534H26.0703C28.0974 20.534 29.7408 18.8931 29.7408 16.8688V3.66521C29.7408 1.64097 28.0974 0 26.0703 0Z" transform="translate(96.176 39.6051)" fill="url(#paint4_linear)"/>
</g>
<path d="M24.6825 0H3.49095C1.56295 0 0 1.56073 0 3.48598V16.6688C0 18.594 1.56295 20.1548 3.49095 20.1548H24.6825C26.6105 20.1548 28.1735 18.594 28.1735 16.6688V3.48598C28.1735 1.56073 26.6105 0 24.6825 0Z" transform="translate(96.7056 39.983)" fill="#3E3F49"/>
<path d="M24.6825 0H3.49095C1.56295 0 0 1.56073 0 3.48598V16.6688C0 18.594 1.56295 20.1548 3.49095 20.1548H24.6825C26.6105 20.1548 28.1735 18.594 28.1735 16.6688V3.48598C28.1735 1.56073 26.6105 0 24.6825 0Z" transform="translate(97.0952 39.983)" fill="#535461"/>
<path d="M0.910458 1.81832C1.41329 1.81832 1.82092 1.41127 1.82092 0.909158C1.82092 0.407043 1.41329 0 0.910458 0C0.407626 0 0 0.407043 0 0.909158C0 1.41127 0.407626 1.81832 0.910458 1.81832Z" transform="translate(111.588 49.0135)" fill="#E0E0E0"/>
<defs>
<linearGradient id="paint0_linear" x2="1" gradientUnits="userSpaceOnUse" gradientTransform="translate(0.4962 7.92398) scale(7.93529 7.92398) rotate(-90)">
<stop stop-color="#808080" stop-opacity="0.25"/>
<stop offset="0.54" stop-color="#808080" stop-opacity="0.12"/>
<stop offset="1" stop-color="#808080" stop-opacity="0.1"/>
</linearGradient>
<linearGradient id="paint1_linear" x2="1" gradientUnits="userSpaceOnUse" gradientTransform="translate(6429.1 80092.8) scale(33660.2 72717.2) rotate(-90)">
<stop stop-color="#808080" stop-opacity="0.25"/>
<stop offset="0.54" stop-color="#808080" stop-opacity="0.12"/>
<stop offset="1" stop-color="#808080" stop-opacity="0.1"/>
</linearGradient>
<linearGradient id="paint2_linear" x2="1" gradientUnits="userSpaceOnUse" gradientTransform="translate(3342.6 22421.3) scale(3983.9 7140.65)">
<stop stop-color="#808080" stop-opacity="0.25"/>
<stop offset="0.54" stop-color="#808080" stop-opacity="0.12"/>
<stop offset="1" stop-color="#808080" stop-opacity="0.1"/>
</linearGradient>
<linearGradient id="paint3_linear" x2="1" gradientUnits="userSpaceOnUse" gradientTransform="translate(283.712 189.786) scale(1.17059 1.16892) rotate(-90)">
<stop stop-color="#808080" stop-opacity="0.25"/>
<stop offset="0.54" stop-color="#808080" stop-opacity="0.12"/>
<stop offset="1" stop-color="#808080" stop-opacity="0.1"/>
</linearGradient>
<linearGradient id="paint4_linear" x2="1" gradientUnits="userSpaceOnUse" gradientTransform="translate(17081.3 7005.8) scale(4702.01 3246.43) rotate(-90)">
<stop stop-color="#808080" stop-opacity="0.25"/>
<stop offset="0.54" stop-color="#808080" stop-opacity="0.12"/>
<stop offset="1" stop-color="#808080" stop-opacity="0.1"/>
</linearGradient>
</defs>
</svg>
