<svg width="202" height="168" viewBox="0 0 202 168" fill="none" xmlns="http://www.w3.org/2000/svg">
<path d="M156.895 44.2282C156.331 43.7696 155.804 43.2672 155.32 42.7257C155.32 42.8548 155.32 42.9839 155.32 43.113C151.471 39.1894 151.606 34.4363 153.182 30.1L153.703 29.9075C156.177 23.3724 161.848 17.8913 161.848 17.8913L161.001 18.2468C161.263 17.9759 161.414 17.8236 161.414 17.8236C126.252 32.8089 101.786 33.6829 99.0583 33.7337C97.3764 33.0988 83.5192 28.0578 70.1132 26.1786C65.8958 25.567 61.7082 25.2601 57.9463 25.4971L53.7226 7.37978L53.6421 7.42845C53.4451 5.87511 52.7143 2.49332 50.0412 0.396096C46.472 -2.38891 49.1303 10.4251 49.1303 10.4251L49.4227 10.2875L50.9181 26.422L50.1894 27.0314C45.9641 28.2898 41.6038 29.0407 37.2007 29.2683C38.0126 28.5181 38.6815 27.6268 39.1748 26.6378C39.4584 26.6963 39.752 26.6838 40.0295 26.6014C40.3071 26.5191 40.5599 26.3695 40.7656 26.1659C40.9044 26.02 41.022 25.8555 41.1151 25.677C41.3096 25.363 41.4661 25.027 41.5811 24.676C42.458 22.3227 43.4155 19.9631 43.6993 17.4701C43.9831 14.9772 43.5171 12.2726 41.8374 10.4039C40.1577 8.53526 37.0948 7.82419 35.038 9.26749C34.5063 9.63995 34.0552 10.1352 33.4706 10.4187C31.6892 11.2801 29.7129 9.88333 28.0543 8.80403C26.1268 7.54908 23.5807 6.64967 21.5833 7.78822C20.9598 8.1504 20.4471 8.67579 20.1005 9.3077C19.5527 10.1752 19.2953 11.1943 19.3655 12.2176C19.4799 13.8619 20.3674 15.392 21.5557 16.5263C21.9548 16.9447 22.4457 17.2649 22.9897 17.4617C23.1282 17.5042 23.2699 17.5353 23.4134 17.5548C22.7508 18.5563 22.2927 19.6787 22.0651 20.8575C21.8376 22.0363 21.8452 23.2483 22.0874 24.4242L21.3481 28.8938C20.6915 29.2006 20.3251 29.8715 20.1196 30.5275C17.0291 30.6185 13.8667 32.7348 13.8667 32.7348L1.72097 44.8695C-1.42879 47.0048 0.708471 50.9368 0.708471 50.9368L7.79383 72.1735L8.18569 71.8815C9.63877 74.5268 13.9048 81.828 14.7246 78.188C15.7265 73.7777 12.6064 69.7737 12.6064 69.7737H12.5682L11.7612 68.7367L8.79573 52.9494L12.5471 49.2269L17.5883 48.4925L17.8129 81.1825C8.59026 105.454 9.71503 116.577 9.71503 116.577L17.8129 146.916L18.8466 146.744L19.0965 147.743L19.1876 147.712L19.6366 149.951H18.8275L17.815 152.985C17.815 152.985 12.6424 152.873 12.7546 153.997C12.8669 155.121 15.6799 157.032 22.8775 155.008L24.9025 152.985C24.9025 152.985 25.915 151.974 23.89 149.951H23.7459L23.1846 146.023L23.89 145.904L17.8129 115.559C22.8732 111.401 31.9836 95.334 31.9836 95.334C31.9836 95.334 41.0918 111.403 46.1543 115.559L40.0814 145.896L40.7868 146.014L40.2339 149.942H40.0899C38.0649 151.965 39.0774 152.977 39.0774 152.977L41.1024 155C48.3043 157.023 51.113 155.112 51.2252 153.988C51.3375 152.865 46.1649 152.977 46.1649 152.977L45.1524 149.942H44.3432L44.9257 147.03L45.0295 146.719L46.1649 146.907L54.2627 116.569C54.2627 116.569 54.1123 99.0396 46.2496 77.1277L62.4029 99.7591L75.1841 119.893C75.8603 118.265 76.6924 116.706 77.6687 115.237L86.9168 106.605C97.6666 100.216 112.017 99.8332 120.88 100.36L129.052 101.243L132.894 81.0195C135.133 78.1393 138.457 75.6548 143.288 73.7967C153.312 69.9451 161.716 61.7679 161.649 53.817C161.795 53.98 161.937 54.1429 162.072 54.308C162.176 50.7908 160.649 47.2989 156.895 44.2282ZM45.9531 74.2263L45.9425 73.8539L46.4085 74.5861L45.9531 74.2263Z" transform="translate(39.9227 4.10303)" fill="url(#paint0_linear)"/>
<path d="M4.79135 2.31731H4.75322L2.95488 -2.58333e-06L0.0444841 2.90775L0.366447 3.39026L-2.58568e-06 3.47914C-2.58568e-06 3.47914 5.87375 14.8139 6.85235 10.5115C7.83096 6.20913 4.79135 2.31731 4.79135 2.31731Z" transform="translate(49.4534 71.7521)" fill="#FDB797"/>
<path d="M4.96952 10.1687C4.96952 10.1687 15.6812 13.379 30.6801 8.56242C45.6791 3.74579 76.7445 15.5186 76.7445 15.5186C76.7445 15.5186 101.383 15.5186 137.808 3.875e-07C137.808 3.875e-07 121.203 16.054 132.987 25.6873C144.77 35.3205 134.059 49.2329 120.131 54.5849C106.204 59.9369 105.135 70.6389 106.204 80.8076C107.274 90.9762 106.204 81.343 106.204 81.343C106.204 81.343 64.4251 73.8514 53.7112 99.5429L0.684417 16.0561C0.684417 16.0561 -2.52888 9.63537 4.96952 10.1687Z" transform="translate(61.5375 23.4017)" fill="#E30613"/>
<path opacity="0.1" d="M1.42213e-06 6.45834e-08L133.372 95.7907L141.406 72.2451L1.42213e-06 6.45834e-08Z" transform="translate(39.9639 17.8147)" fill="black"/>
<path opacity="0.1" d="M-1.29284e-07 -1.42083e-06L73.9164 74.9201L84.6302 66.8931L-1.29284e-07 -1.42083e-06Z" transform="translate(47.9982 47.7832)" fill="black"/>
<g opacity="0.1">
<path opacity="0.1" d="M7.65328 17.6603C7.65328 17.6603 18.365 20.8706 33.3639 16.054C48.3628 11.2374 79.424 23.0123 79.424 23.0123C79.424 23.0123 99.3562 23.0123 129.867 11.7199C132.279 5.34569 137.808 -1.03333e-06 137.808 -1.03333e-06C101.375 15.5186 76.7445 15.5186 76.7445 15.5186C76.7445 15.5186 45.6769 3.74579 30.6801 8.56242C15.6833 13.379 4.96952 10.1687 4.96952 10.1687C-2.52888 9.63325 0.684418 16.0561 0.684418 16.0561L2.88946 19.5289C3.3491 18.3586 4.63061 17.4444 7.65328 17.6603Z" transform="translate(61.9484 23.463)" fill="black"/>
<path opacity="0.1" d="M1.54702 1.46657C0.996574 1.01893 0.482371 0.528544 0.00921107 1.55e-06C-0.113644 3.15959 0.97723 6.30224 4.22442 8.95816C5.08981 9.65766 5.88311 10.4417 6.59254 11.2988C6.69633 7.86617 5.20726 4.45898 1.54702 1.46657Z" transform="translate(193.395 47.6837)" fill="black"/>
</g>
<path d="M4.9375 1.97237L3.95043 6.90539H-2.32712e-06L0.989196 2.58333e-06L4.9375 1.97237Z" transform="translate(81.0167 146.329)" fill="#FDB797"/>
<path opacity="0.1" d="M4.17284 0.833807L3.89536 1.66762L0 0.556577L0.277483 -2.58333e-06L4.17284 0.833807Z" transform="translate(81.7008 148.149)" fill="black"/>
<path d="M7.75705e-07 1.97237L0.987079 6.90539H4.93539L3.94831 2.58333e-06L7.75705e-07 1.97237Z" transform="translate(60.288 146.329)" fill="#FDB797"/>
<path opacity="0.1" d="M-7.75705e-07 0.833807L0.277482 1.94485L4.17495 0.556577V-2.58333e-06L-7.75705e-07 0.833807Z" transform="translate(60.2732 148.149)" fill="black"/>
<path d="M5.39565 8.05287C5.39565 8.05287 5.2855 3.10927 1.80955 0.387749C-1.6664 -2.33377 0.934737 10.1628 0.934737 10.1628L5.39565 8.05287Z" transform="translate(88.9148 6.01819)" fill="#FDB797"/>
<path d="M10.8596 -3.61667e-06H5.92425L4.93717 2.96277C4.93717 2.96277 -0.108371 2.85273 0.00177544 3.94896C0.111921 5.04519 2.85286 6.91173 9.87255 4.93513L11.8467 2.96277C11.8467 2.96277 12.8338 1.97236 10.8596 -3.61667e-06Z" transform="translate(54.3638 152.249)" fill="#333333"/>
<path d="M1.23385 -3.61667e-06H6.16923L7.15631 2.96277C7.15631 2.96277 12.2018 2.85273 12.0917 3.94896C11.9816 5.04519 9.24061 6.91173 2.22092 4.93513L0.246768 2.96277C0.246768 2.96277 -0.740309 1.97236 1.23385 -3.61667e-06Z" transform="translate(79.7828 152.249)" fill="#333333"/>
<path d="M35.5728 2.06667e-06H7.93883C-1.05501 23.6705 0.0422123 34.5206 0.0422123 34.5206L7.93883 64.1081L13.8698 63.1219L7.93883 33.5407C12.8742 29.486 21.76 13.815 21.76 13.815C21.76 13.815 30.6416 29.4775 35.5728 33.5407L29.6418 63.1283L35.5728 64.1144L43.4694 34.5269C43.4694 34.5269 44.573 23.6705 35.5728 2.06667e-06Z" transform="translate(51.3621 85.1819)" fill="#333333"/>
<path opacity="0.1" d="M1.80998e-06 1.55e-06C1.80998e-06 1.55e-06 15.6746 5.92555 27.6403 1.55e-06H1.80998e-06Z" transform="translate(59.3009 85.5649)" fill="black"/>
<path d="M16.48 13.9969L8.58337 21.8864L11.5488 37.6674L7.60053 40.6301L0.690983 19.9182C0.690983 19.9182 -1.39332 16.0835 1.67806 13.9927L13.5251 2.15638C13.5251 2.15638 18.6088 -1.24658 22.1038 0.497228C25.5988 2.24103 16.4122 13.872 16.4122 13.872" transform="translate(41.9482 35.7756)" fill="#00CC00"/>
<path d="M-1.03427e-06 36.4569L0.987077 71.9637C0.987077 71.9637 16.6617 77.8892 28.6274 71.9637L27.6403 38.5394L27.3882 37.4347L27.5704 36.8908L39.4323 27.0628C42.6837 25.2746 40.9658 21.2621 40.9658 21.2621L36.0093 1.42083e-06L31.8004 2.57761L33.2832 18.5639L24.8358 25.5645L24.624 25.5539V25.6068L2.96971 24.6228" transform="translate(58.3117 13.2183)" fill="#00CC00"/>
<path d="M4.54352 0H3.3531C1.50123 0 -3.10282e-06 1.49987 -3.10282e-06 3.35005V5.52557C-3.10282e-06 7.37576 1.50123 8.87563 3.3531 8.87563H4.54352C6.39539 8.87563 7.89662 7.37576 7.89662 5.52557V3.35005C7.89662 1.49987 6.39539 0 4.54352 0Z" transform="translate(69.2268 32.963)" fill="#FDB797"/>
<path opacity="0.1" d="M-7.75705e-07 3.4474C1.25355 3.88476 2.5893 4.03574 3.90896 3.88925C5.22862 3.74275 6.49861 3.3025 7.62549 2.60089C7.34736 1.84023 6.84248 1.18307 6.1789 0.718003C5.51533 0.252939 4.72498 0.00234229 3.91442 1.03333e-06C2.95465 0.0032863 2.02871 0.354623 1.30873 0.988708C0.588746 1.62279 0.123687 2.49649 -7.75705e-07 3.4474Z" transform="translate(69.4788 33.3058)" fill="black"/>
<path d="M8.8837 17.7513C13.79 17.7513 17.7674 13.7775 17.7674 8.87563C17.7674 3.97375 13.79 0 8.8837 0C3.97737 0 0 3.97375 0 8.87563C0 13.7775 3.97737 17.7513 8.8837 17.7513Z" transform="translate(63.3043 19.1565)" fill="#FDB797"/>
<path opacity="0.1" d="M5.1985 9.81791C4.64669 9.88747 4.0868 9.85591 3.54632 9.7248C3.01579 9.53223 2.53723 9.21928 2.14831 8.81057C0.98754 7.69741 0.123318 6.21179 0.0110543 4.60766C-0.10121 3.00353 0.646507 1.30417 2.03816 0.50845C3.9869 -0.600474 6.47154 0.275662 8.35038 1.49886C9.96656 2.557 11.8962 3.91353 13.6331 3.07337C14.2029 2.79825 14.6435 2.31363 15.1625 1.95175C17.1684 0.544428 20.1551 1.23856 21.7924 3.06067C23.4298 4.88277 23.8894 7.51965 23.6077 9.95335C23.326 12.3871 22.394 14.6874 21.5382 16.9815C21.4051 17.4341 21.1793 17.8543 20.8752 18.2153C19.8331 19.284 17.8822 18.4544 17.1959 17.1296C16.0034 14.825 17.1959 10.8295 14.3787 9.48566C12.1356 8.41906 7.60689 9.66131 5.1985 9.81791Z" transform="translate(60.8192 13.3192)" fill="black"/>
<path d="M5.19851 9.81791C4.64669 9.88746 4.0868 9.85591 3.54631 9.7248C3.01578 9.53223 2.53723 9.21928 2.14831 8.81057C0.987541 7.69741 0.123319 6.21179 0.0110553 4.60766C-0.101209 3.00353 0.646508 1.30417 2.03816 0.508451C3.9869 -0.600473 6.47154 0.27566 8.35038 1.49886C9.96656 2.557 11.8962 3.91353 13.6331 3.07337C14.2029 2.79825 14.6435 2.31363 15.1625 1.95174C17.1684 0.544426 20.1551 1.23856 21.7924 3.06067C23.4298 4.88278 23.8894 7.51964 23.6077 9.95335C23.326 12.3871 22.3813 14.6874 21.534 16.9815C21.4008 17.4341 21.1751 17.8543 20.871 18.2153C19.8289 19.284 17.878 18.4544 17.1917 17.1296C15.9992 14.825 17.1917 10.8295 14.3745 9.48566C12.1419 8.41906 7.60477 9.66342 5.19851 9.81791Z" transform="translate(60.9526 13.0991)" fill="#333333"/>
<path d="M0.987081 3.94472C1.53223 3.94472 1.97415 3.06167 1.97415 1.97236C1.97415 0.883058 1.53223 0 0.987081 0C0.441933 0 2.32712e-06 0.883058 2.32712e-06 1.97236C2.32712e-06 3.06167 0.441933 3.94472 0.987081 3.94472Z" transform="translate(76.1363 26.0597)" fill="#FDB797"/>
<path opacity="0.1" d="M-1.29284e-07 1.42083e-06L2.50582 1.17241L-1.29284e-07 4.23254V1.42083e-06Z" transform="translate(58.3245 49.6709)" fill="black"/>
<path opacity="0.1" d="M1.66914 0L1.55141e-06 1.85385L1.11205 3.52147L1.76234 1.66762L1.66914 0Z" transform="translate(84.2045 50.1027)" fill="black"/>
<path d="M12.0229 3.74579V5.35204C12.0229 5.35204 0.298662 3.2125 -2.84425e-06 6.45834e-07L7.73775 0.535416L12.0229 3.74579Z" transform="translate(61.2687 37.3098)" fill="#E30613"/>
<path d="M-7.75705e-07 3.74579V5.35204C-7.75705e-07 5.35204 11.7242 3.2125 12.0229 6.45834e-07L4.2851 0.535416L-7.75705e-07 3.74579Z" transform="translate(73.2916 37.3098)" fill="#E30613"/>
<path opacity="0.1" d="M5.6885e-06 -3.1e-06L38.5659 9.09784L24.6388 14.9853L5.6885e-06 -3.1e-06Z" transform="translate(144.948 58.4852)" fill="black"/>
<path d="M0 3.36275C0 3.36275 1.21204e-06 -2.58333e-07 2.24529 -2.58333e-07C4.49057 -2.58333e-07 6.73374 6.72762 6.73374 6.72762L0 3.36275Z" transform="translate(61.3047 34.0254)" fill="#E30613"/>
<path opacity="0.5" d="M1.47003 2.93738C2.2819 2.93738 2.94005 2.27983 2.94005 1.46869C2.94005 0.657556 2.2819 0 1.47003 0C0.658153 0 0 0.657556 0 1.46869C0 2.27983 0.658153 2.93738 1.47003 2.93738Z" transform="translate(10.9786 60.6776)" fill="#F55F44"/>
<path opacity="0.5" d="M1.47002 2.93738C2.2819 2.93738 2.94005 2.27982 2.94005 1.46869C2.94005 0.657553 2.2819 -2.06667e-06 1.47002 -2.06667e-06C0.658152 -2.06667e-06 0 0.657553 0 1.46869C0 2.27982 0.658152 2.93738 1.47002 2.93738Z" transform="translate(29.3455 95.177)" fill="#F55F44"/>
<path opacity="0.5" d="M1.47002 2.93738C2.2819 2.93738 2.94005 2.27982 2.94005 1.46869C2.94005 0.657555 2.2819 0 1.47002 0C0.65815 0 -3.10282e-06 0.657555 -3.10282e-06 1.46869C-3.10282e-06 2.27982 0.65815 2.93738 1.47002 2.93738Z" transform="translate(185.833 2.68982)" fill="#F55F44"/>
<path opacity="0.5" d="M3.00829 1.66384C2.80598 1.5758 2.64307 1.41659 2.55052 1.21645C2.45797 1.01631 2.44222 0.789172 2.50627 0.578193C2.51658 0.54592 2.52299 0.512526 2.52534 0.478728C2.53136 0.381913 2.50597 0.28574 2.45293 0.204494C2.39988 0.123249 2.32202 0.0612675 2.23091 0.0277554C2.13979 -0.00575659 2.04029 -0.00901005 1.94718 0.018478C1.85407 0.0459661 1.77231 0.102729 1.71407 0.180335C1.69358 0.207799 1.67652 0.237645 1.66323 0.269218C1.57478 0.470495 1.41561 0.63244 1.21579 0.72446C1.01597 0.81648 0.789347 0.832202 0.578718 0.768658C0.546416 0.758351 0.512998 0.751957 0.479169 0.749612C0.382266 0.743594 0.286005 0.768967 0.204686 0.821963C0.123367 0.874959 0.0613289 0.952749 0.0277864 1.04378C-0.00575607 1.13481 -0.00902218 1.23422 0.0184909 1.32724C0.046004 1.42027 0.10282 1.50195 0.180497 1.56014C0.207986 1.58061 0.237855 1.59766 0.269457 1.61093C0.470143 1.70005 0.631309 1.85939 0.722598 2.05895C0.813888 2.25851 0.829008 2.48453 0.76512 2.69446C0.754804 2.72673 0.748398 2.76013 0.746051 2.79393C0.740027 2.89074 0.765432 2.98691 0.818476 3.06816C0.87152 3.14941 0.949383 3.21139 1.0405 3.2449C1.13161 3.27841 1.2311 3.28167 1.32421 3.25418C1.41732 3.22669 1.49907 3.16993 1.55732 3.09232C1.5778 3.06486 1.59487 3.03501 1.60816 3.00344C1.69627 2.80131 1.85563 2.63855 2.05596 2.54609C2.25628 2.45362 2.48362 2.43789 2.69479 2.50188C2.72709 2.51219 2.76052 2.51858 2.79435 2.52093C2.89089 2.52676 2.98675 2.50145 3.0678 2.44871C3.14885 2.39598 3.21079 2.31862 3.24449 2.22805C3.27819 2.13747 3.28187 2.03847 3.25498 1.94565C3.22809 1.85283 3.17205 1.7711 3.09513 1.71251C3.0682 1.69293 3.03905 1.6766 3.00829 1.66384Z" transform="translate(113.494 3.46387)" fill="#4D8AF0"/>
<path opacity="0.5" d="M3.01041 1.66383C2.80809 1.5758 2.64519 1.41659 2.55264 1.21645C2.46009 1.01631 2.44435 0.789178 2.5084 0.578199C2.51871 0.545926 2.52511 0.512525 2.52745 0.478728C2.53348 0.381913 2.50809 0.285739 2.45504 0.204494C2.402 0.123249 2.32414 0.061267 2.23302 0.027755C2.14191 -0.00575704 2.04241 -0.00901373 1.9493 0.0184744C1.85619 0.0459624 1.77443 0.102727 1.71618 0.180333C1.6957 0.207797 1.67863 0.237646 1.66535 0.269219C1.57723 0.47135 1.41789 0.634109 1.21756 0.726573C1.01724 0.819037 0.789887 0.834763 0.578716 0.770774C0.546413 0.760467 0.512995 0.754067 0.479167 0.751722C0.382264 0.745704 0.286003 0.771085 0.204683 0.824081C0.123364 0.877077 0.0613263 0.95487 0.0277838 1.0459C-0.00575865 1.13693 -0.00902477 1.23633 0.0184883 1.32936C0.0460014 1.42238 0.102818 1.50406 0.180494 1.56226C0.207983 1.58272 0.237865 1.59977 0.269468 1.61304C0.471782 1.70108 0.634676 1.8603 0.727224 2.06044C0.819772 2.26058 0.835526 2.48771 0.771478 2.69869C0.761162 2.73096 0.754756 2.76436 0.752409 2.79816C0.746386 2.89498 0.77179 2.99115 0.824834 3.0724C0.877878 3.15364 0.955729 3.21562 1.04684 3.24913C1.13795 3.28265 1.23746 3.2859 1.33057 3.25841C1.42368 3.23092 1.50543 3.17416 1.56368 3.09655C1.58416 3.06909 1.60123 3.03924 1.61451 3.00767C1.70263 2.80554 1.86199 2.64278 2.06232 2.55032C2.26264 2.45785 2.48998 2.44213 2.70115 2.50612C2.73345 2.51642 2.76687 2.52281 2.8007 2.52516C2.8976 2.53117 2.99386 2.5058 3.07518 2.45281C3.1565 2.39981 3.21855 2.32202 3.25209 2.23099C3.28564 2.13996 3.28889 2.04055 3.26138 1.94752C3.23386 1.8545 3.17705 1.77283 3.09937 1.71463C3.07188 1.69417 3.04201 1.6771 3.01041 1.66383Z" transform="translate(185.735 92.7683)" fill="#4D8AF0"/>
<path opacity="0.5" d="M1.47003 2.93737C2.2819 2.93737 2.94005 2.27982 2.94005 1.46868C2.94005 0.657549 2.2819 6.2e-06 1.47003 6.2e-06C0.658154 6.2e-06 0 0.657549 0 1.46868C0 2.27982 0.658154 2.93737 1.47003 2.93737Z" transform="translate(132.936 134.813)" fill="#47E6B1"/>
<path opacity="0.5" d="M1.47003 2.93738C2.2819 2.93738 2.94005 2.27982 2.94005 1.46869C2.94005 0.657551 2.2819 -4.13334e-06 1.47003 -4.13334e-06C0.658153 -4.13334e-06 0 0.657551 0 1.46869C0 2.27982 0.658153 2.93738 1.47003 2.93738Z" transform="translate(10.9786 124.538)" fill="#47E6B1"/>
<path opacity="0.5" d="M1.47003 2.93738C2.2819 2.93738 2.94005 2.27982 2.94005 1.46869C2.94005 0.657554 2.2819 0 1.47003 0C0.658155 0 0 0.657554 0 1.46869C0 2.27982 0.658155 2.93738 1.47003 2.93738Z" transform="translate(128.528 18.1047)" fill="#47E6B1"/>
<g opacity="0.5">
<path opacity="0.5" d="M0.735013 0H0V4.15847H0.735013V0Z" transform="translate(11.7136)" fill="#47E6B1"/>
<path opacity="0.5" d="M0.734346 0H0V4.16225H0.734346V0Z" transform="translate(14.1622 1.71204) rotate(90)" fill="#47E6B1"/>
</g>
<g opacity="0.5">
<path opacity="0.5" d="M0.735013 0H0V4.15847H0.735013V0Z" transform="translate(25.1832 39.8811)" fill="#47E6B1"/>
<path opacity="0.5" d="M0.734345 2.58568e-06H0V4.16225H0.734345V2.58568e-06Z" transform="translate(27.6318 41.5931) rotate(90)" fill="#47E6B1"/>
</g>
<g opacity="0.5">
<path opacity="0.5" d="M0.735019 0H0V4.15847H0.735019V0Z" transform="translate(159.875 22.0198)" fill="#47E6B1"/>
<path opacity="0.5" d="M0.734347 0H-5.16667e-06V4.16225H0.734347V0Z" transform="translate(162.326 23.7318) rotate(90)" fill="#47E6B1"/>
</g>
<path opacity="0.1" d="M0.0825594 83.8711C0.64546 90.1357 4.17283 95.808 6.32994 101.775C9.38144 110.249 9.66925 119.479 7.15169 128.128C6.63809 129.906 6.00534 131.689 6.00329 133.51C6.00329 139.787 13.1217 143.952 19.5889 146.72C36.0259 153.732 53.1694 158.936 70.7205 162.243C76.4604 163.33 83.6282 163.803 87.2603 159.706C89.0024 157.739 89.4256 155.165 90.7055 152.964C93.9699 147.337 101.912 145.151 109.041 143.898C117.636 142.389 126.313 141.385 135.025 140.893C143.795 140.398 153.755 139.968 159.566 134.18C163.264 130.502 164.337 125.426 164.482 120.633C164.965 104.907 157.485 87.8879 167.085 74.2666C171.112 68.553 177.682 64.3814 181.672 58.6534C187.455 50.3514 186.955 39.8077 183.04 30.9608C179.124 22.1139 172.186 14.5921 165.352 7.22314C150.326 -8.98549 111.574 5.8701 96.3797 15.0029C89.2017 19.3149 83.207 24.9108 76.8035 30.0485C62.9713 41.1598 46.9451 51.4247 28.6796 55.8111C13.8408 59.3779 -1.25279 68.9927 0.0825594 83.8711Z" transform="translate(186 5) scale(-1 1)" fill="#E30613"/>
<defs>
<linearGradient id="paint0_linear" x2="1" gradientUnits="userSpaceOnUse" gradientTransform="translate(3.03213 155.887) scale(156.026 155.884) rotate(-90)">
<stop stop-color="#808080" stop-opacity="0.25"/>
<stop offset="0.54" stop-color="#808080" stop-opacity="0.12"/>
<stop offset="1" stop-color="#808080" stop-opacity="0.1"/>
</linearGradient>
</defs>
</svg>
