<svg width="296" height="218" viewBox="0 0 296 218" fill="none" xmlns="http://www.w3.org/2000/svg">
<path opacity="0.2" d="M74.3341 7.58446C55.7122 1.13155 34.4204 -4.33059 17.0221 4.94243C14.817 6.11775 12.6442 7.59742 11.4561 9.79911C8.31806 15.5915 13.3061 23.1032 10.875 29.2258C8.44397 35.3485 -0.705554 38.4308 0.0434546 44.9712C0.240392 46.6807 1.16374 48.2284 2.25174 49.5624C9.06707 57.9126 21.5613 58.7577 32.1217 56.6855C42.682 54.6133 53.01 50.3168 63.7608 50.8575C74.092 51.3917 83.5966 56.3617 93.0625 60.5449C109.021 67.6162 127.659 72.6898 143.604 65.5829C150.911 62.3257 156.951 56.7794 163.944 52.907C173.368 47.7364 184.2 45.7431 194.841 47.2214C201.943 48.2251 208.723 50.7506 215.674 52.4925C231.461 56.4459 247.939 56.3164 264.208 56.161C267.236 56.1318 270.313 56.0962 273.215 55.2285C277.512 53.9334 281.057 50.9514 284.47 48.0341C288.954 44.2038 293.677 39.9947 295.124 34.2671C296.832 27.4677 293.296 20.241 288.053 15.6206C282.81 11.0003 276.108 8.47484 269.567 6.04003C267.953 5.44427 266.229 4.83883 264.576 5.28888C263.491 5.58675 262.577 6.312 261.767 7.09231C257.124 11.5734 253.202 19.1531 246.871 17.9357C244.611 17.5018 242.761 15.925 240.972 14.468C231.422 6.69731 218.576 0.697683 207.051 4.99099C198.621 8.13164 192.671 16.197 184.128 19.043C178.052 21.0698 171.45 20.1924 165.058 20.5874C155.76 21.1573 146.71 24.4533 137.399 24.2526C113.657 23.741 93.8761 0.972908 70.2307 3.14222C68.3776 3.31059 66.3565 3.73798 65.2201 5.20793" transform="translate(295.558 198.008) rotate(-180)" fill="#E30613"/>
<path opacity="0.5" d="M255.76 28.9679H218.784V14.8194C218.784 10.889 217.222 7.11967 214.443 4.3405C211.664 1.56132 207.894 -1.52903e-06 203.964 -1.52903e-06H34.663C31.0973 -1.52903e-06 27.6777 1.41645 25.1564 3.93775C22.6351 6.45905 21.2187 9.87867 21.2187 13.4443V28.9763H15.6516C11.5045 28.9748 7.52634 30.6199 4.59148 33.5501C1.65663 36.4802 0.00516436 40.4557 0 44.6029V114.747C0.00300689 118.692 1.49599 122.489 4.17999 125.38C6.86398 128.27 10.5408 130.04 14.4742 130.335V146.201H30.279V130.382H50.181V146.334H65.9858V130.382H208.223V146.334H224.028V130.382H237.199V146.187H253.021V130.382H255.868C257.724 130.383 259.561 130.017 261.276 129.307C262.991 128.598 264.548 127.557 265.861 126.245C267.173 124.933 268.214 123.375 268.924 121.661C269.634 119.946 270 118.109 270 116.253V43.2111C270 41.3408 269.632 39.4888 268.917 37.7607C268.201 36.0327 267.152 34.4625 265.83 33.1398C264.508 31.8172 262.938 30.768 261.21 30.0522C259.482 29.3364 257.63 28.9679 255.76 28.9679ZM216 90.8703V102.722H157.079C157.717 101.58 158.051 100.293 158.05 98.9842V90.8703H216Z" transform="translate(18 25.2092)" fill="url(#paint0_linear)"/>
<path d="M15.2174 -4.75697e-06H0V19.0225H15.2174V-4.75697e-06Z" transform="translate(36.9613 149.663)" fill="#E30613"/>
<path d="M15.2174 -2.0387e-06H0V19.0225H15.2174V-2.0387e-06Z" transform="translate(223.526 149.805)" fill="#E30613"/>
<path d="M15.2174 -4.75697e-06H-6.79567e-06V19.0225H15.2174V-4.75697e-06Z" transform="translate(251.425 149.663)" fill="#E30613"/>
<path d="M15.2174 -2.0387e-06H0V19.0225H15.2174V-2.0387e-06Z" transform="translate(71.3431 149.805)" fill="#E30613"/>
<path opacity="0.3" d="M15.2174 -4.75697e-06H0V19.0225H15.2174V-4.75697e-06Z" transform="translate(36.9613 149.663)" fill="black"/>
<path opacity="0.3" d="M15.2174 -2.0387e-06H0V19.0225H15.2174V-2.0387e-06Z" transform="translate(223.526 149.805)" fill="black"/>
<path opacity="0.3" d="M15.2174 -4.75697e-06H-6.79567e-06V19.0225H15.2174V-4.75697e-06Z" transform="translate(251.425 149.663)" fill="black"/>
<path opacity="0.3" d="M15.2174 -2.0387e-06H0V19.0225H15.2174V-2.0387e-06Z" transform="translate(71.3431 149.805)" fill="black"/>
<path d="M3.39783e-06 1.18924e-06H38.2843C41.9209 1.18924e-06 45.4084 1.44461 47.9799 4.01602C50.5513 6.58743 51.9959 10.075 51.9959 13.7115V84.0479C51.9959 87.6557 50.5627 91.1157 48.0116 93.6667C45.4606 96.2178 42.0006 97.6509 38.3929 97.6509H3.39783e-06V1.18924e-06Z" transform="translate(230.994 55.8167)" fill="#E30613"/>
<path opacity="0.3" d="M3.39783e-06 1.18924e-06H38.2843C41.9209 1.18924e-06 45.4084 1.44461 47.9799 4.01602C50.5513 6.58743 51.9959 10.075 51.9959 13.7115V84.0479C51.9959 87.6557 50.5627 91.1157 48.0116 93.6667C45.4606 96.2178 42.0006 97.6509 38.3929 97.6509H3.39783e-06V1.18924e-06Z" transform="translate(230.994 55.8167)" fill="black"/>
<path d="M12.9461 2.54838e-07H86.2386V87.5051H4.24729e-07V12.9433C0.000738553 9.51026 1.36502 6.21809 3.7928 3.79084C6.22059 1.36358 9.51305 1.75486e-07 12.9461 2.54838e-07Z" transform="translate(43.4412 27.9177)" fill="#E30613"/>
<path opacity="0.3" d="M13.3636 5.44813e-07H86.2386V87.5051H4.24729e-07V13.3608C3.86648e-07 11.606 0.345681 9.86841 1.0173 8.24722C1.68892 6.62602 2.67332 5.15301 3.91428 3.91231C5.15524 2.67161 6.62846 1.68751 8.24979 1.01623C9.87112 0.344952 11.6088 -0.000365039 13.3636 5.44813e-07Z" transform="translate(43.4412 27.9177)" fill="black"/>
<path d="M15.1757 2.54838e-07H86.2386V87.5051H-2.0387e-06V15.1729C-2.0387e-06 11.1488 1.59857 7.2895 4.44404 4.44404C7.28951 1.59857 11.1488 2.54838e-07 15.1729 2.54838e-07H15.1757Z" transform="translate(61.0552 27.9177)" fill="#E30613"/>
<path d="M0 2.54838e-07H72.5242C76.3091 2.54838e-07 79.939 1.50355 82.6154 4.17989C85.2917 6.85623 86.7953 10.4861 86.7953 14.271V87.5051H0V2.54838e-07Z" transform="translate(146.876 27.9177)" fill="#E30613"/>
<path d="M5.43653e-06 1.18924e-06H14.1959C17.831 0.002215 21.3164 1.4478 23.886 4.01897C26.4556 6.59015 27.8991 10.0765 27.8991 13.7115V84.0479C27.8991 87.6557 26.4659 91.1157 23.9148 93.6667C21.3638 96.2178 17.9038 97.6509 14.2961 97.6509H5.43653e-06V1.18924e-06Z" transform="translate(255.091 55.8167)" fill="#E30613"/>
<path d="M175.01 0H0V26.6326H175.01V0Z" transform="translate(80.0777 126.835)" fill="#E30613"/>
<path d="M35.7987 0H15.8799C7.10967 0 4.0774e-06 7.10967 4.0774e-06 15.8799V38.5181C4.0774e-06 47.2884 7.10967 54.398 15.8799 54.398H35.7987C44.5689 54.398 51.6786 47.2884 51.6786 38.5181V15.8799C51.6786 7.10967 44.5689 0 35.7987 0Z" transform="translate(85.9228 69.2673) rotate(-16.25)" fill="url(#paint1_linear)"/>
<path d="M33.3826 -4.0774e-06H14.8082C6.62988 -4.0774e-06 0 6.62988 0 14.8082V35.9184C0 44.0967 6.62988 50.7266 14.8082 50.7266H33.3826C41.5609 50.7266 48.1908 44.0967 48.1908 35.9184V14.8082C48.1908 6.62988 41.5609 -4.0774e-06 33.3826 -4.0774e-06Z" transform="translate(87.1888 71.1875) rotate(-16.25)" fill="#F55F44"/>
<path opacity="0.1" d="M33.3826 -4.0774e-06H14.8082C6.62988 -4.0774e-06 0 6.62988 0 14.8082V35.9184C0 44.0967 6.62988 50.7266 14.8082 50.7266H33.3826C41.5609 50.7266 48.1908 44.0967 48.1908 35.9184V14.8082C48.1908 6.62988 41.5609 -4.0774e-06 33.3826 -4.0774e-06Z" transform="translate(87.1888 71.1875) rotate(-16.25)" fill="black"/>
<path d="M33.3826 0H14.8082C6.62988 0 0 6.62988 0 14.8083V35.9184C0 44.0967 6.62988 50.7266 14.8082 50.7266H33.3826C41.5609 50.7266 48.1908 44.0967 48.1908 35.9184V14.8083C48.1908 6.62988 41.5609 0 33.3826 0Z" transform="translate(88.109 70.5408) rotate(-16.25)" fill="#F55F44"/>
<path d="M3.80505 7.6101C5.90652 7.6101 7.6101 5.90652 7.6101 3.80505C7.6101 1.70358 5.90652 0 3.80505 0C1.70358 0 -3.05805e-06 1.70358 -3.05805e-06 3.80505C-3.05805e-06 5.90652 1.70358 7.6101 3.80505 7.6101Z" transform="translate(108.854 74.6609) rotate(-35.12)" fill="url(#paint2_linear)"/>
<path d="M3.80506 7.6101C5.90653 7.6101 7.61011 5.90652 7.61011 3.80505C7.61011 1.70358 5.90653 0 3.80506 0C1.70359 0 -4.75697e-06 1.70358 -4.75697e-06 3.80505C-4.75697e-06 5.90652 1.70359 7.6101 3.80506 7.6101Z" transform="translate(127.058 85.1123) rotate(-35.12)" fill="url(#paint3_linear)"/>
<path d="M3.80505 7.6101C5.90652 7.6101 7.61011 5.90652 7.61011 3.80505C7.61011 1.70358 5.90652 2.0387e-06 3.80505 2.0387e-06C1.70358 2.0387e-06 3.05805e-06 1.70358 3.05805e-06 3.80505C3.05805e-06 5.90652 1.70358 7.6101 3.80505 7.6101Z" transform="translate(98.8214 95.6663) rotate(-35.12)" fill="url(#paint4_linear)"/>
<path d="M3.80505 7.6101C5.90653 7.6101 7.6101 5.90653 7.6101 3.80506C7.6101 1.70358 5.90653 0 3.80505 0C1.70358 0 0 1.70358 0 3.80506C0 5.90653 1.70358 7.6101 3.80505 7.6101Z" transform="translate(115.987 106.85) rotate(-35.12)" fill="url(#paint5_linear)"/>
<path d="M2.53577 5.07155C3.93624 5.07155 5.07154 3.93624 5.07154 2.53577C5.07154 1.1353 3.93624 0 2.53577 0C1.13531 0 -3.73762e-06 1.1353 -3.73762e-06 2.53577C-3.73762e-06 3.93624 1.13531 5.07155 2.53577 5.07155Z" transform="translate(110.622 74.9688) rotate(-35.12)" fill="#F99F8F"/>
<path d="M2.53578 5.07155C3.93625 5.07155 5.07155 3.93624 5.07155 2.53577C5.07155 1.1353 3.93625 0 2.53578 0C1.13531 0 -5.43653e-06 1.1353 -5.43653e-06 2.53577C-5.43653e-06 3.93624 1.13531 5.07155 2.53578 5.07155Z" transform="translate(128.827 85.4204) rotate(-35.12)" fill="#F99F8F"/>
<path d="M2.53577 5.07155C3.93624 5.07155 5.07155 3.93624 5.07155 2.53577C5.07155 1.1353 3.93624 0 2.53577 0C1.1353 0 2.37848e-06 1.1353 2.37848e-06 2.53577C2.37848e-06 3.93624 1.1353 5.07155 2.53577 5.07155Z" transform="translate(100.59 95.9741) rotate(-35.12)" fill="#F99F8F"/>
<path d="M2.53578 5.07155C3.93624 5.07155 5.07154 3.93625 5.07154 2.53578C5.07154 1.13531 3.93624 0 2.53578 0C1.13531 0 -2.37848e-06 1.13531 -2.37848e-06 2.53578C-2.37848e-06 3.93625 1.13531 5.07155 2.53578 5.07155Z" transform="translate(117.755 107.157) rotate(-35.12)" fill="#F99F8F"/>
<path d="M15.0671 1.18924e-06H71.0156V97.6509H15.0671C11.0715 97.6509 7.23959 96.0639 4.41404 93.2389C1.58849 90.4138 0.000738142 86.5822 0 82.5866V15.0671C0 11.0711 1.58742 7.23869 4.41306 4.41306C7.23869 1.58742 11.0711 1.18924e-06 15.0671 1.18924e-06Z" transform="translate(23.0103 55.8167)" fill="#E30613"/>
<path opacity="0.3" d="M15.1729 1.18924e-06H56.9784C58.823 6.09193e-07 60.6497 0.363524 62.3538 1.0698C64.0579 1.77607 65.6062 2.81124 66.9101 4.11616C68.214 5.42107 69.2479 6.97014 69.9528 8.67484C70.6577 10.3795 71.0198 12.2064 71.0184 14.0511V83.6109C71.0184 87.3346 69.5391 90.9057 66.9061 93.5387C64.2731 96.1717 60.702 97.6509 56.9784 97.6509H15.1729C11.1488 97.6509 7.2895 96.0524 4.44404 93.2069C1.59857 90.3614 0 86.5021 0 82.478V15.1645C0.0022139 11.1419 1.60176 7.28475 4.44699 4.44108C7.29222 1.59742 11.1502 5.80024e-07 15.1729 1.18924e-06Z" transform="translate(23.0103 55.8167)" fill="black"/>
<path opacity="0.1" d="M1.01935e-06 1.18924e-06H24.4364C25.6914 1.18924e-06 26.895 0.498546 27.7824 1.38596C28.6698 2.27338 29.1684 3.47697 29.1684 4.73196V92.919C29.1684 94.174 28.6698 95.3776 27.7824 96.265C26.895 97.1524 25.6914 97.6509 24.4364 97.6509H1.01935e-06V1.18924e-06Z" transform="translate(66.2687 55.8167)" fill="black"/>
<path d="M1.69892e-06 1.18924e-06H24.4364C25.6914 1.18924e-06 26.895 0.498546 27.7824 1.38596C28.6698 2.27338 29.1684 3.47697 29.1684 4.73196V92.919C29.1684 94.174 28.6698 95.3776 27.7824 96.265C26.895 97.1524 25.6914 97.6509 24.4364 97.6509H1.69892e-06V1.18924e-06Z" transform="translate(64.8604 55.8167)" fill="#E30613"/>
<path d="M87.5051 -3.05805e-06H0V24.0968H87.5051V-3.05805e-06Z" transform="translate(87.6879 106.546)" fill="#E30613"/>
<path d="M87.5051 -3.05805e-06H-2.71827e-06V24.0968H87.5051V-3.05805e-06Z" transform="translate(175.335 106.685)" fill="#E30613"/>
<path opacity="0.15" d="M80.1009 -3.05805e-06H7.40412C3.31494 -3.05805e-06 0 3.31494 0 7.40412V16.6927C0 20.7819 3.31494 24.0968 7.40412 24.0968H80.1009C84.1901 24.0968 87.5051 20.7819 87.5051 16.6927V7.40412C87.5051 3.31494 84.1901 -3.05805e-06 80.1009 -3.05805e-06Z" transform="translate(87.6879 106.546)" fill="white"/>
<path d="M5.07154 10.1431C7.87248 10.1431 10.1431 7.87248 10.1431 5.07155C10.1431 2.27061 7.87248 0 5.07154 0C2.27061 0 6.1161e-06 2.27061 6.1161e-06 5.07155C6.1161e-06 7.87248 2.27061 10.1431 5.07154 10.1431Z" transform="translate(180.337 52.084)" fill="#E30613"/>
<path opacity="0.3" d="M5.07154 10.1431C7.87248 10.1431 10.1431 7.87248 10.1431 5.07155C10.1431 2.27061 7.87248 0 5.07154 0C2.27061 0 6.1161e-06 2.27061 6.1161e-06 5.07155C6.1161e-06 7.87248 2.27061 10.1431 5.07154 10.1431Z" transform="translate(180.337 52.084)" fill="black"/>
<path d="M5.07154 10.1431C7.87248 10.1431 10.1431 7.87248 10.1431 5.07155C10.1431 2.27061 7.87248 0 5.07154 0C2.27061 0 -2.71827e-06 2.27061 -2.71827e-06 5.07155C-2.71827e-06 7.87248 2.27061 10.1431 5.07154 10.1431Z" transform="translate(101.711 52.084)" fill="#E30613"/>
<path opacity="0.3" d="M5.07154 10.1431C7.87248 10.1431 10.1431 7.87248 10.1431 5.07155C10.1431 2.27061 7.87248 0 5.07154 0C2.27061 0 -2.71827e-06 2.27061 -2.71827e-06 5.07155C-2.71827e-06 7.87248 2.27061 10.1431 5.07154 10.1431Z" transform="translate(101.711 52.084)" fill="black"/>
<path d="M1.26928 3.80227C1.97028 3.80227 2.53855 2.9511 2.53855 1.90113C2.53855 0.851166 1.97028 0 1.26928 0C0.568274 0 0 0.851166 0 1.90113C0 2.9511 0.568274 3.80227 1.26928 3.80227Z" transform="translate(102.975 26.5789)" fill="#FDA57D"/>
<path opacity="0.15" d="M80.1009 -3.05805e-06H7.40413C3.31495 -3.05805e-06 -2.71827e-06 3.31494 -2.71827e-06 7.40412V16.6927C-2.71827e-06 20.7819 3.31495 24.0968 7.40413 24.0968H80.1009C84.1901 24.0968 87.5051 20.7819 87.5051 16.6927V7.40412C87.5051 3.31494 84.1901 -3.05805e-06 80.1009 -3.05805e-06Z" transform="translate(175.335 106.685)" fill="white"/>
<path opacity="0.5" d="M19.8408 18.0867C19.2591 14.8884 18.6634 11.654 17.3357 8.67841C15.8816 5.40966 13.6036 2.57447 10.7248 0.450371C10.2973 0.127223 9.7676 -0.0309053 9.23289 0.00500856C8.39784 0.0773797 8.14175 0.589545 8.01093 1.11841C7.99423 1.18243 7.9803 1.24367 7.96917 1.30769C7.64072 2.93047 7.86061 4.53377 8.33659 6.1148C8.92948 8.08831 9.9232 10.0117 10.7499 11.9212C12.2394 15.3428 13.2266 18.9616 13.6809 22.6655C13.7422 23.1554 13.7895 23.6592 13.8006 24.1631C13.8087 24.4629 13.8012 24.763 13.7783 25.0621C13.741 25.6487 13.6075 26.2252 13.3831 26.7684C13.3441 26.8575 13.3024 26.9503 13.2578 27.0468C13.2133 27.1433 13.1651 27.2286 13.1131 27.3028C12.6065 28.1379 11.816 28.7336 11.0422 29.3209C10.2684 29.9082 9.39155 30.5345 8.46743 30.8518H8.49804C8.06815 31.007 7.61332 31.0815 7.15639 31.0717C5.72845 31.0272 4.20587 29.8776 2.76958 30.1476L2.60815 30.1838C1.13846 30.5818 0.0111265 32.8921 -7.47523e-06 34.359C-7.47523e-06 34.4759 -7.47523e-06 34.5891 -7.47523e-06 34.6986C-7.47523e-06 34.7376 6.11585e-06 34.7766 0.0139236 34.8155C0.0278412 34.8545 0.0306179 34.963 0.0417519 35.0326C0.0528859 35.1022 0.0584461 35.1189 0.0695802 35.1607C0.0807142 35.2024 0.0946385 35.2859 0.11134 35.3472C0.128041 35.4084 0.136395 35.4335 0.150313 35.4752C0.16423 35.517 0.186502 35.5893 0.205986 35.645C0.225471 35.7007 0.239386 35.7285 0.256087 35.7675C0.272788 35.8065 0.300623 35.8733 0.325675 35.9234L0.386904 36.0403C0.414739 36.0876 0.439787 36.1377 0.470406 36.185L0.542779 36.2963L0.637426 36.43L0.718142 36.5329L0.826702 36.6554L0.915777 36.7501L1.03547 36.8642L1.13288 36.9505L1.26371 37.0562L1.3667 37.137L1.50866 37.2344L1.61444 37.3068L1.77031 37.3986L1.87886 37.4599L2.05422 37.5461L2.15721 37.5962C2.24071 37.6352 2.32702 37.6714 2.4133 37.7048L2.53856 37.7521L2.73897 37.8245L2.88372 37.869L3.04793 37.9191L3.20938 37.9609L3.36526 37.9999L3.53783 38.036L3.68814 38.0667L3.86907 38.0973L4.01382 38.1195L4.20031 38.1446L4.33948 38.1613L4.53433 38.178H4.67072H4.87113H4.99917H5.20794H5.64495H5.8732H5.95391L6.19886 38.1585H6.24618C6.94101 38.0981 7.62501 37.9475 8.28092 37.7104C10.3602 36.9226 12.125 35.4836 13.7589 33.9721C16.9989 30.9799 20.0607 27.2667 20.3196 22.8632C20.4198 21.2738 20.1275 19.6705 19.8408 18.0867Z" transform="translate(185.333 39.8149)" fill="url(#paint6_linear)"/>
<path opacity="0.1" d="M26.2401 0H0V7.59619H26.2401V0Z" transform="translate(165.231 56.844)" fill="black"/>
<path d="M26.2401 0H0V6.90588H26.2401V0Z" transform="translate(165.231 56.844)" fill="#E30613"/>
<path d="M4.14186 8.28371C6.42934 8.28371 8.28372 6.42934 8.28372 4.14186C8.28372 1.85437 6.42934 0 4.14186 0C1.85438 0 4.0774e-06 1.85437 4.0774e-06 4.14186C4.0774e-06 6.42934 1.85438 8.28371 4.14186 8.28371Z" transform="translate(176.281 49.4814)" fill="#E30613"/>
<path d="M0.0501092 1.32216L8.1548e-06 1.27206C0.0939914 1.20095 0.170203 1.10902 0.222685 1.0035C0.275168 0.897972 0.302483 0.781721 0.302483 0.663866C0.302483 0.546011 0.275168 0.42976 0.222685 0.324236C0.170203 0.218711 0.0939914 0.126784 8.1548e-06 0.0556708L0.0445368 -2.71827e-06C0.145114 0.0780535 0.226509 0.178077 0.282504 0.292415C0.338499 0.406752 0.36762 0.532374 0.36762 0.659687C0.36762 0.786999 0.338499 0.91263 0.282504 1.02697C0.226509 1.1413 0.145114 1.24133 0.0445368 1.31938L0.0501092 1.32216Z" transform="translate(172.562 58.6753)" fill="#4D8AF0"/>
<path opacity="0.1" d="M0.0501092 1.32216L8.1548e-06 1.27206C0.0939914 1.20095 0.170203 1.10902 0.222685 1.0035C0.275168 0.897972 0.302483 0.781721 0.302483 0.663866C0.302483 0.546011 0.275168 0.42976 0.222685 0.324236C0.170203 0.218711 0.0939914 0.126784 8.1548e-06 0.0556708L0.0445368 -2.71827e-06C0.145114 0.0780535 0.226509 0.178077 0.282504 0.292415C0.338499 0.406752 0.36762 0.532374 0.36762 0.659687C0.36762 0.786999 0.338499 0.91263 0.282504 1.02697C0.226509 1.1413 0.145114 1.24133 0.0445368 1.31938L0.0501092 1.32216Z" transform="translate(172.562 58.6753)" fill="black"/>
<path d="M0.323084 1.31938C0.222507 1.24132 0.141095 1.14131 0.0850996 1.02697C0.0291043 0.912632 8.91766e-07 0.787002 8.91766e-07 0.659689C8.91766e-07 0.532377 0.0291043 0.406755 0.0850996 0.292418C0.141095 0.17808 0.222507 0.0780562 0.323084 0L0.367612 0.0556735C0.273629 0.126786 0.197401 0.218705 0.144918 0.32423C0.0924359 0.429754 0.0651204 0.546013 0.0651204 0.663869C0.0651204 0.781724 0.0924359 0.897974 0.144918 1.0035C0.197401 1.10902 0.273629 1.20095 0.367612 1.27206L0.323084 1.31938Z" transform="translate(172.239 58.6782)" fill="#4D8AF0"/>
<path d="M7.5851 34.4758C9.48623 33.7549 11.0979 32.4383 12.5954 31.0577C15.5571 28.3243 18.3517 24.934 18.5911 20.9062C18.6774 19.4365 18.4129 17.9724 18.1485 16.5222C17.6169 13.5995 17.0741 10.6435 15.8688 7.92676C14.5398 4.94106 12.4585 2.35146 9.8286 0.411293C9.43708 0.115192 8.95159 -0.029164 8.46189 0.00490393C7.62684 0.0800586 7.4153 0.653457 7.30396 1.20181C6.62757 4.54201 8.48416 7.78202 9.84251 10.8995C11.2032 14.026 12.1051 17.3326 12.5202 20.717C12.6956 22.1533 12.7596 23.7064 12.0025 24.9423C11.5405 25.6994 10.8167 26.2506 10.1097 26.785C9.052 27.5839 7.88293 28.4217 6.55798 28.3827C5.23303 28.3438 3.75221 27.2053 2.38272 27.5727C1.01324 27.9402 0.00839449 30.0473 4.3978e-05 31.3973C-0.0166571 35.0548 5.04097 35.4389 7.5851 34.4758Z" transform="translate(186.196 47.8064)" fill="#FFD180"/>
<path opacity="0.1" d="M4.85062 24.9468C4.38856 25.7039 3.66485 26.255 2.95784 26.7895C2.25027 27.3733 1.45571 27.8429 0.602986 28.1812C1.80546 28.1005 2.88268 27.3462 3.85969 26.5974C4.5667 26.063 5.29041 25.509 5.75247 24.7547C6.5068 23.5216 6.44558 21.9712 6.27022 20.5294C5.85517 17.145 4.95328 13.8384 3.59248 10.7119C2.23413 7.59163 0.374737 4.34885 1.05391 1.01421C1.07269 0.817064 1.13181 0.625885 1.22758 0.452546C1.32334 0.279206 1.45371 0.127405 1.61061 0.00657605C1.50781 -0.00219315 1.40445 -0.00219315 1.30165 0.00657605C0.466597 0.0817307 0.255058 0.655134 0.143718 1.20348C-0.532674 4.54369 1.32392 7.78369 2.68227 10.9012C4.04306 14.0276 4.94496 17.3343 5.36 20.7186C5.54372 22.1577 5.60773 23.7109 4.85062 24.9468Z" transform="translate(193.342 47.802)" fill="black"/>
<path opacity="0.1" d="M0.904692 3.71109C0.904692 2.46407 1.79262 0.568511 2.98675 0.000676368C2.78315 -0.00439062 2.57985 0.019032 2.38273 0.070264C1.0383 0.434903 0.00840341 2.5448 5.28945e-05 3.8948C-0.0166481 7.30737 4.3785 7.86408 7.03675 7.14872C4.3952 7.53284 0.887991 6.75067 0.904692 3.71109Z" transform="translate(186.199 75.3088)" fill="black"/>
<path opacity="0.5" d="M15.1617 5.52544C15.1617 5.52544 22.744 4.00843 26.5351 5.52544C26.5351 5.52544 28.8093 0.217302 31.0834 0.217302C33.3575 0.217302 34.1146 8.56782 34.1146 8.56782L37.1459 20.6983C37.1459 20.6983 51.5505 46.4764 37.1459 60.1211C22.7412 73.7659 6.79567e-06 58.5958 6.79567e-06 48.7394C6.79567e-06 38.883 4.54824 18.4159 4.54824 18.4159C4.54824 18.4159 9.0965 1.73709 10.6135 0.220084C12.1305 -1.29693 15.1617 5.52544 15.1617 5.52544Z" transform="translate(152.555 35.4468)" fill="url(#paint7_linear)"/>
<path d="M14.58 5.31373C14.58 5.31373 21.8672 3.85518 25.5108 5.31373C25.5108 5.31373 27.6959 0.21157 29.8837 0.21157C32.0716 0.21157 32.798 8.22806 32.798 8.22806L35.7124 19.8882C35.7124 19.8882 49.5603 44.6614 35.7124 57.7856C21.8644 70.9098 -7.47523e-06 56.327 -7.47523e-06 46.8548C-7.47523e-06 37.3825 4.37289 17.7031 4.37289 17.7031C4.37289 17.7031 8.74578 1.67013 10.2043 0.21157C11.6629 -1.24699 14.58 5.31373 14.58 5.31373Z" transform="translate(153.392 36.7136)" fill="#FFD180"/>
<path opacity="0.1" d="M5.09938 13.6197C3.98136 8.88273 2.26793 4.30642 -2.0387e-06 -3.39783e-06L0.459283 1.84268C2.43381 5.58603 3.9899 9.53553 5.09938 13.6197Z" transform="translate(189.096 56.6045)" fill="white"/>
<path opacity="0.1" d="M0.45929 44.8917C0.45929 35.4278 3.98599 19.5451 3.98599 19.5451C3.98599 19.5451 8.35888 3.51213 9.81743 2.05357C11.276 0.595016 14.1903 7.15574 14.1903 7.15574C14.1903 7.15574 21.4775 5.69718 25.1211 7.15574C25.1211 7.15574 27.309 2.05357 29.494 2.05357C30.3291 2.05357 30.9721 3.26161 31.423 4.73965C30.9776 2.57687 30.2205 0.210894 29.0348 0.210894C26.8497 0.210894 24.6619 5.31306 24.6619 5.31306C21.0183 3.8545 13.731 5.31306 13.731 5.31306C13.731 5.31306 10.8167 -1.24488 9.35816 0.210894C7.89961 1.66667 3.52672 17.7024 3.52672 17.7024C3.52672 17.7024 4.37096e-06 33.5684 4.37096e-06 43.049C-0.00277913 43.9064 0.45929 45.1645 0.45929 44.8917Z" transform="translate(154.244 36.7141)" fill="white"/>
<path d="M1.45855 2.91711C2.26409 2.91711 2.91712 2.2641 2.91712 1.45856C2.91712 0.653019 2.26409 0 1.45855 0C0.653011 0 -4.0774e-06 0.653019 -4.0774e-06 1.45856C-4.0774e-06 2.2641 0.653011 2.91711 1.45855 2.91711Z" transform="translate(180.727 53.3228)" fill="#58555D"/>
<path d="M1.45856 2.91711C2.2641 2.91711 2.91711 2.2641 2.91711 1.45856C2.91711 0.653019 2.2641 0 1.45856 0C0.653019 0 4.0774e-06 0.653019 4.0774e-06 1.45856C4.0774e-06 2.2641 0.653019 2.91711 1.45856 2.91711Z" transform="translate(163.964 53.3228)" fill="#58555D"/>
<path d="M2.18505 2.91711C3.39182 2.91711 4.37011 2.26409 4.37011 1.45855C4.37011 0.653016 3.39182 0 2.18505 0C0.978278 0 3.39783e-06 0.653016 3.39783e-06 1.45855C3.39783e-06 2.26409 0.978278 2.91711 2.18505 2.91711Z" transform="translate(171.983 54.7812)" fill="#58555D"/>
<path d="M6.71937 2.0387e-06H5.43653e-06V0.729279H6.71937V2.0387e-06Z" transform="translate(186.479 54.4126) rotate(-12.52)" fill="#FFD180"/>
<path d="M7.43196 -3.39783e-06H-3.39783e-06V0.729282H7.43196V-3.39783e-06Z" transform="translate(186.489 57.3247) rotate(-11.27)" fill="#FFD180"/>
<path d="M0.729284 0H6.79567e-06V7.84948H0.729284V0Z" transform="translate(152.895 51.4739) rotate(-68.2)" fill="#FFD180"/>
<path d="M0.729286 0H-8.1548e-06V9.58639H0.729286V0Z" transform="translate(150.8 55.1482) rotate(-81.25)" fill="#FFD180"/>
<path opacity="0.1" d="M15.969 6.16824C14.0612 6.16996 12.1568 6.00792 10.2767 5.68392C6.66197 5.06131 3.184 3.81124 6.79567e-06 1.99021L0.253298 0.812784C3.47309 2.55656 6.94937 3.77796 10.5523 4.43134C15.7992 5.33041 24.8233 5.06041 33.995 -3.73762e-06L34.6073 1.1134C27.9492 4.79319 20.9403 6.16824 15.969 6.16824Z" transform="translate(156.382 59.3962)" fill="black"/>
<path d="M34.4153 -4.0774e-06C25.2297 5.06041 16.2167 5.33041 10.9726 4.43134C7.36968 3.77796 3.8934 2.55656 0.673608 0.812783L4.0774e-06 1.88722C3.33693 3.72109 6.94968 5.00054 10.697 5.67557C12.5779 6.00066 14.4833 6.16363 16.3921 6.16268C21.3634 6.16268 28.3611 4.79041 35.0416 1.11618L34.4153 -4.0774e-06ZM16.6259 6.06248C16.5978 6.06248 16.5704 6.05415 16.547 6.03855C16.5237 6.02295 16.5055 6.00078 16.4947 5.97484C16.484 5.9489 16.4812 5.92036 16.4866 5.89282C16.4921 5.86529 16.5056 5.83999 16.5255 5.82014C16.5454 5.80028 16.5706 5.78676 16.5982 5.78128C16.6257 5.7758 16.6543 5.77862 16.6802 5.78936C16.7061 5.8001 16.7283 5.8183 16.7439 5.84164C16.7595 5.86499 16.7678 5.89244 16.7678 5.92052C16.7671 5.95768 16.7518 5.99308 16.7253 6.0191C16.6987 6.04513 16.663 6.0597 16.6259 6.05969V6.06248Z" transform="translate(155.962 59.1262)" fill="#F55F44"/>
<path opacity="0.1" d="M-3.39783e-06 1.40845C-3.39783e-06 1.782 0.148391 2.14025 0.412528 2.40438C0.676664 2.66852 1.0349 2.81691 1.40845 2.81691C1.78199 2.81691 2.14025 2.66852 2.40439 2.40438C2.66852 2.14025 2.8169 1.782 2.8169 1.40845C2.8169 1.03491 2.66852 0.67666 2.40439 0.412523C2.14025 0.148387 1.78199 1.01935e-06 1.40845 1.01935e-06C1.0349 1.01935e-06 0.676664 0.148387 0.412528 0.412523C0.148391 0.67666 -3.39783e-06 1.03491 -3.39783e-06 1.40845ZM1.40845 0.704227C1.36221 0.704227 1.317 0.690513 1.27855 0.664821C1.2401 0.639129 1.21013 0.602611 1.19243 0.559887C1.17474 0.517164 1.17011 0.470154 1.17913 0.424798C1.18815 0.379443 1.21043 0.337784 1.24313 0.305084C1.27583 0.272384 1.31748 0.250116 1.36283 0.241094C1.40819 0.232073 1.45521 0.2367 1.49793 0.254397C1.54066 0.272094 1.57716 0.302064 1.60286 0.340515C1.62855 0.378965 1.64227 0.42417 1.64227 0.470414C1.64228 0.531946 1.61802 0.590998 1.57477 0.634767C1.53152 0.678537 1.47276 0.703495 1.41124 0.704227H1.40845Z" transform="translate(171.176 65.751)" fill="url(#paint8_linear)"/>
<path d="M-6.79567e-07 1.26928C-6.79567e-07 1.60591 0.13372 1.92876 0.371756 2.16679C0.609792 2.40483 0.932643 2.53856 1.26928 2.53856C1.60591 2.53856 1.92876 2.40483 2.1668 2.16679C2.40483 1.92876 2.53855 1.60591 2.53855 1.26928C2.53855 0.932645 2.40483 0.609802 2.1668 0.371766C1.92876 0.133731 1.60591 1.01935e-06 1.26928 1.01935e-06C0.932643 1.01935e-06 0.609792 0.133731 0.371756 0.371766C0.13372 0.609802 -6.79567e-07 0.932645 -6.79567e-07 1.26928ZM1.26928 0.63464C1.22744 0.63464 1.18653 0.622233 1.15175 0.598988C1.11696 0.575743 1.08985 0.542699 1.07383 0.504044C1.05782 0.465389 1.05363 0.42286 1.06179 0.381824C1.06995 0.340788 1.0901 0.303095 1.11969 0.27351C1.14927 0.243924 1.18697 0.223773 1.22801 0.215611C1.26905 0.207448 1.31158 0.211636 1.35023 0.227647C1.38889 0.243659 1.42192 0.270771 1.44517 0.30556C1.46841 0.340348 1.48083 0.381251 1.48083 0.423091C1.48083 0.479196 1.45854 0.533008 1.41887 0.57268C1.37919 0.612353 1.32538 0.63464 1.26928 0.63464Z" transform="translate(171.318 65.8901)" fill="#4D8AF0"/>
<path d="M30.5768 1.35913e-06C11.1786 11.4124 -8.1548e-06 0.835053 -8.1548e-06 0.835053L30.5768 1.35913e-06Z" transform="translate(157.932 59.5493)" fill="#FFD180"/>
<path d="M170.451 115.618C169.263 112.247 156.534 121.741 156.534 121.741L153.592 121.566L147.93 116.322L151.883 112.369L118.692 83.9079C117.806 83.149 116.771 82.5837 115.654 82.2481C114.536 81.9126 113.361 81.8143 112.204 81.9594L84.6109 85.3999C84.4912 83.8188 83.517 81.94 82.1391 80.0221C79.3083 75.3792 73.3488 70.1379 71.1498 68.2757L67.7762 45.5957L70.6349 41.3063C70.1058 41.1617 69.5854 40.987 69.0761 40.7831L69.6801 39.8756L69.4575 39.8144L69.7358 39.4859H69.7024L76.8226 31.2468C77.3514 30.6353 77.6225 29.8426 77.5789 29.0354C77.5353 28.2282 77.1804 27.4693 76.5888 26.9184L60.6532 14.8102C61.1365 13.6569 61.368 12.4137 61.3324 11.1638C61.4577 8.75882 60.3805 6.31769 56.7703 4.51119C54.5364 3.44611 52.1964 2.61948 49.7892 2.04501C45.8226 1.02436 41.6548 1.08587 37.7199 2.22315C37.6559 2.14243 37.5863 2.06171 37.514 1.9782C32.6094 -3.62778 26.1767 4.42769 25.9262 4.76171L0.785611 32.7248C0.102036 33.8103 -0.148051 35.1133 0.0850546 36.3747C0.31816 37.6362 1.01739 38.7637 2.04376 39.5333L15.3517 49.5121L15.3099 49.5984L16.0615 50.1551C15.5048 51.2685 14.7282 52.0201 13.7122 52.1342L15.7497 53.1529C15.4279 53.3782 15.0546 53.5189 14.6642 53.5621L23.9945 58.2273C23.9945 63.0761 24.4955 85.2746 32.3784 96.172C33.1861 97.5131 34.1473 98.7555 35.2426 99.8741C35.2426 99.8741 35.9135 99.5094 37.1382 98.9193L38.5466 101.739C40.0946 104.835 42.5773 107.365 45.6432 108.971C48.7091 110.577 52.2027 111.178 55.629 110.688L99.4275 104.431L98.9626 105.822L99.2131 105.786L85.0173 148.374L87.361 149.156L87.3164 149.24L87.6477 149.382L84.6944 154.949L75.4003 162.097C75.4003 162.097 102.564 175.677 105.423 173.534C108.282 171.391 95.4025 162.097 95.4025 162.097L94.6872 159.238L97.813 152.638L100.432 153.512L121.481 111.414L122.197 109.984L136.443 127.798L140.459 123.784L140.893 124.224L140.93 124.188L146.497 129.822L150.53 140.831C150.53 140.831 171.634 118.988 170.451 115.618ZM59.9462 33.7547L59.6679 33.4318C57.9699 35.5556 54.9665 38.1248 51.618 39.8645V37.5236L51.7766 37.3844V36.3656C53.8932 34.4174 55.4238 31.9168 56.1959 29.1456C56.968 26.3744 56.951 23.4426 56.1468 20.6806L65.3936 27.7813L59.9462 33.7547ZM28.5622 7.35872L28.3395 7.13604L28.565 7.35872H28.5622ZM21.172 22.2449C21.1108 22.9872 21.0857 23.7341 21.0968 24.4856C21.0805 25.5769 21.141 26.6679 21.2778 27.7507C21.7538 31.5335 23.1093 34.6259 25.9012 36.1012C28.334 37.3816 29.9345 37.312 30.9532 36.438L31.0646 36.5382C31.1502 38.0177 31.5346 39.4645 32.1947 40.7914C26.9831 39.7033 22.006 37.6987 17.495 34.8709C17.495 34.8709 17.5117 35.0602 17.5312 35.3997L13.7066 31.5752L21.172 22.2449Z" transform="translate(71.2729)" fill="url(#paint9_linear)"/>
<path d="M6.24896 -3.05805e-06L3.39783e-07 11.8048L9.72 15.969L15.969 2.77794L6.24896 -3.05805e-06Z" transform="translate(155.984 141.201)" fill="#FEC3BE"/>
<path d="M18.7497 4.16135L19.4428 6.94485C19.4428 6.94485 31.9407 15.9718 29.1628 18.0538C26.3848 20.1359 8.1548e-06 6.94485 8.1548e-06 6.94485L9.02691 4.0774e-06L18.7497 4.16135Z" transform="translate(146.954 153.009)" fill="#011B3D"/>
<path opacity="0.1" d="M12.7596 3.27619L2.92546 1.35913e-06L-4.0774e-06 5.52247L9.72001 9.68938L12.7596 3.27619Z" transform="translate(158.528 141.927)" fill="black"/>
<path d="M6.79567e-07 8.43958L9.38597 17.9425L16.2751 9.91763L5.56422 2.71827e-06L6.79567e-07 8.43958Z" transform="translate(206.635 110.649)" fill="#FEC3BE"/>
<path opacity="0.1" d="M5.56423 3.73762e-06L4.75697e-06 8.44237L3.55732 12.0414L10.7749 4.82381L5.56423 3.73762e-06Z" transform="translate(207.022 111.111)" fill="black"/>
<path d="M6.88638 6.47624L9.74505 6.64604C9.74505 6.64604 22.1038 -2.57014 23.259 0.703258C24.4141 3.97666 3.91639 25.1981 3.91639 25.1981L-4.75697e-06 14.5039L6.88638 6.47624Z" transform="translate(216.024 114.088)" fill="#011B3D"/>
<path d="M21.0016 44.6947L35.4257 27.9937C35.9395 27.3995 36.2029 26.6291 36.1603 25.8447C36.1177 25.0603 35.7726 24.323 35.1974 23.7878L3.81062 0L0 5.94557L24.3251 24.6702L13.9983 35.9935L21.0016 44.6947Z" transform="translate(112.918 4.81738)" fill="#FEC3BE"/>
<path opacity="0.1" d="M5.04649 2.0387e-06L-1.35913e-06 5.53361L7.01165 14.246L14.2488 5.87876C10.7184 4.76113 7.54455 2.73357 5.04649 2.0387e-06Z" transform="translate(127.216 34.9683)" fill="black"/>
<path d="M18.3155 46.0531L1.98466 33.8057C0.98797 33.0579 0.309005 31.9627 0.0826217 30.7374C-0.143761 29.5122 0.0990064 28.2466 0.762706 27.1921L25.1991 -1.69892e-07L30.2094 5.01031L13.3052 26.0675L23.298 36.0603L18.3155 46.0531Z" transform="translate(73.7258 7.08325)" fill="#FEC3BE"/>
<path opacity="0.1" d="M-1.01935e-06 14.2599L2.67217 16.264L7.68247 6.27124L1.39175 0C1.52536 2.1266 1.90113 10.3908 -1.01935e-06 14.2599Z" transform="translate(88.5869 36.4102)" fill="black"/>
<path d="M14.992 4.9964L-3.73762e-06 49.9695L14.992 54.9659L39.9739 4.9964L19.9884 6.79567e-07L14.992 4.9964Z" transform="translate(156.293 96.6423)" fill="#9197AE"/>
<path opacity="0.1" d="M0.748764 4.99639L0 7.24546L15.7407 4.99639L21.8895 12.6844L25.7335 4.99639L5.74516 -2.0387e-06L0.748764 4.99639Z" transform="translate(169.84 98.0315)" fill="black"/>
<path d="M-4.0774e-06 4.62209C-4.0774e-06 4.62209 6.40206 -3.63379 11.2648 1.92209C16.1276 7.47796 3.62691 8.17106 3.62691 8.17106L-4.0774e-06 4.62209Z" transform="translate(98.8914 2.4917)" fill="#FEC3BE"/>
<path d="M2.0387e-06 9.59904L4.82939 19.2606C6.33278 22.2677 8.74431 24.7254 11.7223 26.2856C14.7003 27.8458 18.0938 28.4293 21.4219 27.9535L79.9478 19.603L99.9362 44.5877L114.925 29.5985L82.6784 1.95832C81.818 1.22076 80.813 0.671153 79.7278 0.344723C78.6426 0.0182923 77.5011 -0.0777514 76.3766 0.0627534L2.0387e-06 9.59904Z" transform="translate(106.326 82.0469)" fill="#9197AE"/>
<path opacity="0.1" d="M3.67979 1.3834C3.67979 1.3834 4.99639 17.6112 -1.01935e-06 18.1679L9.99278 23.1782C9.99278 23.1782 9.43609 52.6027 19.9856 63.1522C19.9856 63.1522 39.4172 52.6027 59.9595 53.1594C80.5018 53.7161 54.9492 33.171 54.9492 33.171L51.5756 10.4242L54.3591 6.24897C50.5956 5.12204 47.2266 2.95606 44.6391 2.0387e-06C41.8556 3.47103 35.4925 8.17794 29.9728 8.17794H27.5845C19.3565 8.17794 10.6052 6.50784 3.67144 2.08206L3.67979 1.3834Z" transform="translate(87.9606 36.3601)" fill="black"/>
<path d="M3.68258 1.38619C3.68258 1.38619 5.01031 17.614 0 18.1679L9.99278 23.1782C9.99278 23.1782 9.43608 52.6027 19.9856 63.1522C19.9856 63.1522 39.4172 52.6027 59.9595 53.1594C80.5017 53.7161 54.9492 33.171 54.9492 33.171L51.5756 10.4242L54.3591 6.24897C50.5956 5.12204 47.2266 2.95606 44.6391 2.0387e-06C41.8556 3.47103 35.4925 8.17794 29.9728 8.17794H27.5845C19.3565 8.17794 10.6052 5.82031 3.67144 1.38619H3.68258Z" transform="translate(87.0309 34.9683)" fill="#2F4F7C"/>
<path d="M-3.05805e-06 1.69892e-07V5.56701C0.000320237 8.39431 1.12372 11.1057 3.12309 13.1047L14.992 24.9736L18.9418 17.0712C19.6299 15.6954 19.9882 14.1782 19.9883 12.6399V1.69892e-07H-3.05805e-06Z" transform="translate(103.877 31.7783)" fill="#FEC3BE"/>
<path opacity="0.1" d="M2.0387e-06 5.57814C2.0387e-06 5.78412 4.07723e-06 5.98732 0.0194886 6.1933C2.76835 8.64495 6.32379 9.99842 10.0071 9.99534C13.6904 9.99226 17.2436 8.63284 19.9884 6.1766V1.01935e-06H2.0387e-06V5.57814Z" transform="translate(104.03 32.6274)" fill="black"/>
<path d="M14.9892 29.9784C23.2675 29.9784 29.9783 23.2675 29.9783 14.9892C29.9783 6.71088 23.2675 0 14.9892 0C6.71089 0 2.0387e-06 6.71088 2.0387e-06 14.9892C2.0387e-06 23.2675 6.71089 29.9784 14.9892 29.9784Z" transform="translate(98.8803 11.7957)" fill="#FEC3BE"/>
<path opacity="0.1" d="M9.66422 18.0843H34.649C34.649 18.0843 44.6418 8.09149 34.649 3.0951C32.4791 2.06115 30.2064 1.25878 27.8684 0.701286C12.6732 -3.15109 -1.77598 9.41644 0.178037 24.9707C0.640099 28.6449 1.9567 31.6511 4.66783 33.0735C15.2145 38.6182 9.66422 18.0843 9.66422 18.0843Z" transform="translate(94.2125 4.47241)" fill="black"/>
<path d="M9.66422 18.0843H34.649C34.649 18.0843 44.6418 8.09149 34.649 3.0951C32.4791 2.06115 30.2064 1.25878 27.8684 0.701286C12.6732 -3.15108 -1.77598 9.41644 0.178037 24.9707C0.640099 28.6449 1.9567 31.6511 4.66783 33.0734C15.2145 38.6265 9.66422 18.0843 9.66422 18.0843Z" transform="translate(94.2125 3.7793)" fill="#333333"/>
<path d="M1.38897 4.86C2.15607 4.86 2.77793 3.77205 2.77793 2.43C2.77793 1.08795 2.15607 0 1.38897 0C0.621861 0 0 1.08795 0 2.43C0 3.77205 0.621861 4.86 1.38897 4.86Z" transform="translate(103.211 24.5496)" fill="#FDA57D"/>
<path opacity="0.1" d="M-2.0387e-06 2.08484L0.695874 6.79567e-07L2.77794 1.38897L-2.0387e-06 2.08484Z" transform="translate(96.9625 55.7944)" fill="black"/>
<path opacity="0.1" d="M9.64484 0C9.64484 0 2.08485 3.61856 6.79567e-06 7.09794L9.64484 0Z" transform="translate(132.374 68.1421)" fill="black"/>
<path opacity="0.1" d="M2.08206 -3.39783e-07L1.38897 2.08206L-1.35913e-06 -3.39783e-07H2.08206Z" transform="translate(136.541 45.3813)" fill="black"/>
<path d="M9.66422 18.0843H34.649C34.649 18.0843 44.6418 8.09149 34.649 3.0951C32.4791 2.06115 30.2064 1.25878 27.8684 0.701286C12.6732 -3.15108 -1.77598 9.41644 0.178037 24.9707C0.640099 28.6449 1.9567 31.6511 4.66783 33.0734C15.2145 38.6265 9.66422 18.0843 9.66422 18.0843Z" transform="translate(94.2125 3.7793)" fill="#273043"/>
<path opacity="0.1" d="M7.49041 0.450924C7.49041 0.450924 12.5592 11.4708 5.90381 12.42C-0.75155 13.3692 2.28525 3.1899 2.28525 3.1899C2.28525 3.1899 1.62001 0.169791 7.47523e-06 -2.71827e-06" transform="translate(163.602 77.5337)" fill="black"/>
<path opacity="0.1" d="M2.5313 -1.69892e-06C2.5313 -1.69892e-06 -3.495 10.5272 3.04902 12.0526C9.59304 13.5779 7.47202 3.18154 7.47202 3.18154C7.47202 3.18154 8.40171 0.233819 10.0328 0.205983" transform="translate(174.685 77.7173)" fill="black"/>
<path d="M7.48485 0.459278C7.48485 0.459278 12.5536 11.4792 5.89825 12.4284C-0.757113 13.3775 2.27969 3.19825 2.27969 3.19825C2.27969 3.19825 1.61443 0.169796 0 1.69892e-06" transform="translate(163.021 77.2163)" fill="#FFD180"/>
<path d="M2.53623 3.05805e-06C2.53623 3.05805e-06 -3.50119 10.53 3.05396 12.0442C9.60912 13.5585 7.47695 3.1732 7.47695 3.1732C7.47695 3.1732 8.40665 0.225465 10.0378 0.19763" transform="translate(175.151 77.2524)" fill="#FFD180"/>
<path opacity="0.5" d="M0.114122 2.0387e-06H5.43653e-06V2.15165H0.114122V2.0387e-06Z" transform="translate(166.784 87.3538)" fill="#58555D"/>
<path opacity="0.5" d="M0.11412 2.0387e-06H4.0774e-06V2.15165H0.11412V2.0387e-06Z" transform="translate(168.627 87.3538)" fill="#58555D"/>
<path opacity="0.5" d="M0.11413 -4.0774e-06H-3.39783e-06V3.00897H0.11413V-4.0774e-06Z" transform="translate(167.627 86.6692)" fill="#58555D"/>
<path opacity="0.5" d="M0.114122 3.73762e-06H5.43653e-06V2.15165H0.114122V3.73762e-06Z" transform="translate(178.753 86.8945)" fill="#58555D"/>
<path opacity="0.5" d="M0.11412 3.73762e-06H4.0774e-06V2.15165H0.11412V3.73762e-06Z" transform="translate(180.596 86.8945)" fill="#58555D"/>
<path opacity="0.5" d="M0.11413 3.39783e-06H-3.39783e-06V3.00897H0.11413V3.39783e-06Z" transform="translate(179.596 86.207)" fill="#58555D"/>
<path opacity="0.5" d="M13.2467 26.4934C20.5627 26.4934 26.4934 20.5626 26.4934 13.2467C26.4934 5.93074 20.5627 2.0387e-06 13.2467 2.0387e-06C5.93076 2.0387e-06 0 5.93074 0 13.2467C0 20.5626 5.93076 26.4934 13.2467 26.4934Z" transform="translate(154.147 192.347) rotate(-18.54)" fill="url(#paint10_linear)"/>
<path d="M12.4005 24.801C19.2491 24.801 24.801 19.2491 24.801 12.4005C24.801 5.55189 19.2491 -4.0774e-06 12.4005 -4.0774e-06C5.55191 -4.0774e-06 -6.79567e-06 5.55189 -6.79567e-06 12.4005C-6.79567e-06 19.2491 5.55191 24.801 12.4005 24.801Z" transform="translate(155.219 192.88) rotate(-18.54)" fill="#3EC300"/>
<path opacity="0.5" d="M23.3524 45.4045C21.571 46.003 19.3525 45.5771 18.5258 43.868C18.0498 42.8799 18.164 41.7748 18.2753 40.706C18.3978 39.5341 18.5008 38.5237 17.8411 37.8696C17.5002 37.5796 17.0989 37.3694 16.6664 37.2544C16.1097 37.0679 15.5085 36.9121 14.9351 36.7618C13.9127 36.5268 12.9139 36.1988 11.9512 35.782C10.0584 34.894 8.84756 33.3937 8.71396 31.7681C8.59983 30.3764 9.27065 29.1071 9.91086 27.8907C10.5511 26.6743 11.1968 25.4663 10.8907 24.2722C10.4759 22.6605 8.54138 21.8951 6.83788 21.2103L6.55953 21.1045C4.47746 20.2695 2.24509 18.5075 2.80179 16.2473C2.99664 15.4596 3.49489 14.8556 3.97643 14.2989C4.30291 13.9367 4.58339 13.5357 4.81148 13.1047C5.56303 11.5209 4.53313 9.68938 4.07385 8.97402C3.71478 8.41732 3.2889 7.90516 2.87695 7.39578C2.23128 6.64757 1.65984 5.83841 1.17066 4.9797L1.09272 4.83495C-0.0373855 2.69722 -0.0596501 2.60815 0.034989 0.278353V2.71827e-06L1.02034 0.0389759V0.317326C0.936839 2.43001 0.936843 2.42999 1.96396 4.37288L2.04189 4.51763C2.50116 5.32008 3.03717 6.07609 3.64241 6.77504C4.06829 7.30113 4.50808 7.84669 4.89499 8.42845C6.08911 10.2349 6.38138 12.0915 5.69942 13.525C5.43299 14.0285 5.10375 14.4962 4.71962 14.9168C4.29096 15.429 3.88457 15.9133 3.7454 16.4811C3.31117 18.2375 5.52962 19.6349 6.91024 20.186L7.17468 20.2917C9.00344 21.0155 11.2803 21.9173 11.8203 24.0133C12.2212 25.5693 11.478 26.9722 10.757 28.3305C10.153 29.4717 9.57963 30.5573 9.67148 31.6707C9.79396 33.1655 11.1328 34.3039 12.3436 34.8745C13.2517 35.2659 14.1937 35.5734 15.1578 35.7931C15.7479 35.9462 16.3575 36.1076 16.9531 36.3053C17.5319 36.4641 18.0656 36.7557 18.5119 37.157C19.5056 38.1424 19.3664 39.4924 19.2328 40.7978C19.1326 41.7721 19.0352 42.6934 19.3915 43.4283C20.0345 44.7588 22.0275 44.9536 23.4137 44.2995C24.5493 43.765 25.4428 42.8549 26.3892 41.8945C26.6954 41.5828 27.0127 41.2627 27.3356 40.9565C29.1003 39.2864 30.8846 38.5571 32.499 38.8382C33.0112 38.9448 33.5105 39.1063 33.9882 39.3198C34.3598 39.483 34.7443 39.6152 35.1378 39.7151C36.0154 39.8714 36.9197 39.6911 37.6703 39.2103C38.421 38.7295 38.9628 37.9834 39.1878 37.1208C39.224 36.9566 39.249 36.784 39.2768 36.6031C39.3631 36.0241 39.4606 35.3672 39.9226 34.8578C40.3847 34.3484 41.1167 34.162 41.6373 34.0423L47.0094 32.8008L47.2321 33.7611L41.8599 35.0026C41.3506 35.1195 40.908 35.242 40.6547 35.5203C40.4014 35.7987 40.3262 36.2635 40.2566 36.7478C40.2288 36.9371 40.1982 37.1347 40.1564 37.3296C39.8738 38.447 39.1757 39.4146 38.2044 40.0352C37.2332 40.6559 36.0618 40.8828 34.929 40.6698C34.4821 40.5583 34.0454 40.4093 33.6236 40.2244C33.21 40.0385 32.7781 39.8967 32.3348 39.8013C30.6981 39.523 29.0864 40.6559 28.0204 41.6635C27.7114 41.9558 27.3996 42.2731 27.099 42.5765C26.1331 43.5563 25.1366 44.5723 23.8423 45.1819C23.6835 45.2655 23.5199 45.3399 23.3524 45.4045Z" transform="translate(114.564 171.9)" fill="url(#paint11_linear)"/>
<path d="M23.3524 45.4045C21.571 46.003 19.3525 45.5771 18.5258 43.868C18.0498 42.8799 18.164 41.7748 18.2753 40.706C18.3978 39.5341 18.5008 38.5237 17.8411 37.8696C17.5002 37.5796 17.0989 37.3694 16.6664 37.2544C16.1097 37.0679 15.5085 36.9121 14.9351 36.7618C13.9127 36.5268 12.9139 36.1988 11.9512 35.782C10.0584 34.894 8.84757 33.3937 8.71396 31.7681C8.59984 30.3764 9.27066 29.1071 9.91086 27.8907C10.5511 26.6743 11.1968 25.4663 10.8907 24.2722C10.4759 22.6605 8.54138 21.8951 6.83787 21.2103L6.55952 21.1045C4.47746 20.2695 2.24509 18.5075 2.80179 16.2473C2.99663 15.4596 3.49488 14.8556 3.97643 14.2989C4.30291 13.9367 4.58338 13.5357 4.81148 13.1047C5.56303 11.5209 4.53313 9.68938 4.07385 8.97402C3.71478 8.41732 3.28891 7.90516 2.87695 7.39577C2.23129 6.64757 1.65984 5.83841 1.17066 4.97969L1.09272 4.83495C-0.0373824 2.69722 -0.0596556 2.60814 0.0349836 0.278351V0L1.02035 0.0389731V0.317324C0.936842 2.43 0.936846 2.43001 1.96396 4.37289L2.0419 4.51762C2.50116 5.32007 3.03718 6.0761 3.64241 6.77506C4.06829 7.30114 4.50808 7.84671 4.89499 8.42846C6.08911 10.235 6.38138 12.0916 5.69942 13.5251C5.43298 14.0285 5.10376 14.4962 4.71963 14.9168C4.29097 15.429 3.88458 15.9133 3.7454 16.4811C3.31117 18.2375 5.52963 19.6348 6.91024 20.186L7.17468 20.2918C9.00344 21.0155 11.2803 21.9173 11.8203 24.0133C12.2212 25.5693 11.478 26.9722 10.7571 28.3305C10.153 29.4718 9.57963 30.5573 9.67149 31.6707C9.79396 33.1655 11.1328 34.3039 12.3436 34.8745C13.2517 35.2659 14.1937 35.5734 15.1578 35.7931C15.7479 35.9462 16.3575 36.1076 16.9531 36.3053C17.5319 36.4641 18.0656 36.7557 18.5119 37.157C19.5056 38.1424 19.3664 39.4924 19.2328 40.7978C19.1326 41.7721 19.0352 42.6934 19.3915 43.4282C20.0345 44.7588 22.0275 44.9536 23.4136 44.2995C24.5493 43.7651 25.4428 42.8548 26.3892 41.8945C26.6954 41.5828 27.0127 41.2627 27.3356 40.9565C29.1003 39.2864 30.8846 38.5571 32.499 38.8383C33.0113 38.9448 33.5105 39.1063 33.9882 39.3198C34.3598 39.483 34.7443 39.6152 35.1378 39.715C36.0154 39.8714 36.9197 39.6911 37.6703 39.2103C38.421 38.7295 38.9628 37.9834 39.1878 37.1208C39.224 36.9566 39.249 36.784 39.2768 36.6031C39.3631 36.0241 39.4606 35.3672 39.9226 34.8578C40.3847 34.3484 41.1167 34.162 41.6372 34.0423L47.0094 32.8008L47.2321 33.7611L41.8599 35.0026C41.3506 35.1195 40.908 35.242 40.6547 35.5203C40.4014 35.7987 40.3262 36.2635 40.2566 36.7478C40.2288 36.9371 40.1982 37.1347 40.1564 37.3296C39.8738 38.447 39.1757 39.4146 38.2044 40.0353C37.2331 40.6559 36.0618 40.8828 34.929 40.6698C34.4821 40.5582 34.0454 40.4093 33.6235 40.2244C33.21 40.0385 32.778 39.8967 32.3348 39.8013C30.6981 39.523 29.0864 40.6559 28.0203 41.6635C27.7114 41.9558 27.3996 42.2731 27.099 42.5765C26.1331 43.5563 25.1366 44.5723 23.8423 45.1819C23.6835 45.2655 23.5199 45.3399 23.3524 45.4045Z" transform="translate(114.697 171.41)" fill="#3EC300"/>
<path opacity="0.2" d="M8.1548e-06 0.0329665C8.1548e-06 0.0329665 6.86134 -1.00527 10.221 8.56999" transform="translate(170.197 191.828)" stroke="black" stroke-miterlimit="10"/>
<path opacity="0.2" d="M1.42452 15.159C1.42452 15.159 -3.6693 7.94969 5.40771 -6.79567e-07" transform="translate(161.181 191.955)" stroke="black" stroke-miterlimit="10"/>
<path opacity="0.2" d="M1.05775 7.17309C1.05775 7.17309 -1.40008 3.3903 1.17744 -6.1161e-06" transform="translate(163.633 197.308)" stroke="black" stroke-miterlimit="10"/>
<path opacity="0.2" d="M-6.79567e-07 1.35913e-06C-6.79567e-07 1.35913e-06 3.25392 1.28598 3.71042 7.07845" transform="translate(169.091 195.872)" stroke="black" stroke-miterlimit="10"/>
<path opacity="0.2" d="M8.1548e-06 5.43653e-06C8.1548e-06 5.43653e-06 5.08269 0.971442 8.62887 7.96082" transform="translate(172.91 189.091)" stroke="black" stroke-miterlimit="10"/>
<path opacity="0.2" d="M0 1.06699C0 1.06699 2.40217 -0.630938 4.63176 0.257" transform="translate(166.361 190.22)" stroke="black" stroke-miterlimit="10"/>
<path opacity="0.2" d="M5.43653e-06 3.85237C5.43653e-06 3.85237 3.21216 5.89546 11.4903 -7.47523e-06" transform="translate(168.176 203.465)" stroke="black" stroke-miterlimit="10"/>
<path opacity="0.2" d="M-8.1548e-06 -6.79567e-06C-8.1548e-06 -6.79567e-06 2.00968 2.00134 6.19329 0.300617" transform="translate(167.605 211.381)" stroke="black" stroke-miterlimit="10"/>
<path opacity="0.2" d="M1.85397 5.43653e-06C0.991093 1.28016 0.411184 2.72962 0.152947 4.25168C-0.105289 5.77374 -0.0359142 7.33337 0.356444 8.82649" transform="translate(159.792 193.614)" stroke="black" stroke-miterlimit="10"/>
<path opacity="0.2" d="M0.0107349 -4.75697e-06C0.0107349 -4.75697e-06 -0.253693 1.8733 1.84229 2.80299" transform="translate(164.332 206.53)" stroke="black" stroke-miterlimit="10"/>
<path opacity="0.2" d="M2.13216 1.35913e-06C2.13216 1.35913e-06 2.00413 3.61855 3.39783e-06 3.83566" transform="translate(178.873 204.361)" stroke="black" stroke-miterlimit="10"/>
<path opacity="0.2" d="M-6.79567e-06 2.2268C1.20954 2.38817 2.43996 2.27147 3.5976 1.88559C4.75524 1.49971 5.80959 0.854816 6.68041 0" transform="translate(170.007 207.457)" stroke="black" stroke-miterlimit="10"/>
<path opacity="0.2" d="M-8.1548e-06 -6.79567e-07C-8.1548e-06 -6.79567e-07 1.73968 1.19969 1.56711 3.34021" transform="translate(173.102 196.757)" stroke="black" stroke-miterlimit="10"/>
<path opacity="0.2" d="M0.0923399 7.47523e-06C0.0923399 7.47523e-06 -0.39199 2.54135 0.857804 4.05279" transform="translate(166.374 199.131)" stroke="black" stroke-miterlimit="10"/>
<path opacity="0.2" d="M-7.47523e-06 2.0387e-06C-7.47523e-06 2.0387e-06 1.78702 2.2268 1.2999 3.87464" transform="translate(167.936 198.638)" stroke="black" stroke-miterlimit="10"/>
<defs>
<linearGradient id="paint0_linear" x2="1" gradientUnits="userSpaceOnUse" gradientTransform="translate(61.83 146.332) scale(146.34) rotate(-90)">
<stop stop-color="#808080" stop-opacity="0.25"/>
<stop offset="0.54" stop-color="#808080" stop-opacity="0.12"/>
<stop offset="1" stop-color="#808080" stop-opacity="0.1"/>
</linearGradient>
<linearGradient id="paint1_linear" x2="1" gradientUnits="userSpaceOnUse" gradientTransform="matrix(-3769.06 -11027.4 10476.1 -3580.64 49640.5 -111098)">
<stop stop-color="#808080" stop-opacity="0.25"/>
<stop offset="0.54" stop-color="#808080" stop-opacity="0.12"/>
<stop offset="1" stop-color="#808080" stop-opacity="0.1"/>
</linearGradient>
<linearGradient id="paint2_linear" x2="1" gradientUnits="userSpaceOnUse" gradientTransform="translate(12722 -13009.3) scale(207.984) rotate(-90)">
<stop stop-color="#808080" stop-opacity="0.25"/>
<stop offset="0.54" stop-color="#808080" stop-opacity="0.12"/>
<stop offset="1" stop-color="#808080" stop-opacity="0.1"/>
</linearGradient>
<linearGradient id="paint3_linear" x2="1" gradientUnits="userSpaceOnUse" gradientTransform="translate(12974 -12497.7) scale(208.06) rotate(-90)">
<stop stop-color="#808080" stop-opacity="0.25"/>
<stop offset="0.54" stop-color="#808080" stop-opacity="0.12"/>
<stop offset="1" stop-color="#808080" stop-opacity="0.1"/>
</linearGradient>
<linearGradient id="paint4_linear" x2="1" gradientUnits="userSpaceOnUse" gradientTransform="translate(12177.5 -12687.6) scale(208.06) rotate(-90)">
<stop stop-color="#808080" stop-opacity="0.25"/>
<stop offset="0.54" stop-color="#808080" stop-opacity="0.12"/>
<stop offset="1" stop-color="#808080" stop-opacity="0.1"/>
</linearGradient>
<linearGradient id="paint5_linear" x2="1" gradientUnits="userSpaceOnUse" gradientTransform="translate(12395 -12175.3) scale(208.06) rotate(-90)">
<stop stop-color="#808080" stop-opacity="0.25"/>
<stop offset="0.54" stop-color="#808080" stop-opacity="0.12"/>
<stop offset="1" stop-color="#808080" stop-opacity="0.1"/>
</linearGradient>
<linearGradient id="paint6_linear" x2="1" gradientUnits="userSpaceOnUse" gradientTransform="translate(13912.9 12963.7) scale(2793.25 5242.98) rotate(-90)">
<stop stop-color="#808080" stop-opacity="0.25"/>
<stop offset="0.54" stop-color="#808080" stop-opacity="0.12"/>
<stop offset="1" stop-color="#808080" stop-opacity="0.1"/>
</linearGradient>
<linearGradient id="paint7_linear" x2="1" gradientUnits="userSpaceOnUse" gradientTransform="translate(24338.3 27666.6) scale(10255.1 15437.8) rotate(-90)">
<stop stop-color="#808080" stop-opacity="0.25"/>
<stop offset="0.54" stop-color="#808080" stop-opacity="0.12"/>
<stop offset="1" stop-color="#808080" stop-opacity="0.1"/>
</linearGradient>
<linearGradient id="paint8_linear" x2="1" gradientUnits="userSpaceOnUse" gradientTransform="translate(0.00278351 2.81691) scale(2.81691) rotate(-90)">
<stop stop-color="white"/>
<stop offset="1"/>
</linearGradient>
<linearGradient id="paint9_linear" x2="1" gradientUnits="userSpaceOnUse" gradientTransform="translate(51238.5 118764) scale(106439 108477) rotate(-90)">
<stop stop-color="#808080" stop-opacity="0.25"/>
<stop offset="0.54" stop-color="#808080" stop-opacity="0.12"/>
<stop offset="1" stop-color="#808080" stop-opacity="0.1"/>
</linearGradient>
<linearGradient id="paint10_linear" x2="1" gradientUnits="userSpaceOnUse" gradientTransform="translate(30018.6 -8416.63) scale(2521.64) rotate(-90)">
<stop stop-color="#808080" stop-opacity="0.25"/>
<stop offset="0.54" stop-color="#808080" stop-opacity="0.12"/>
<stop offset="1" stop-color="#808080" stop-opacity="0.1"/>
</linearGradient>
<linearGradient id="paint11_linear" x2="1" gradientUnits="userSpaceOnUse" gradientTransform="matrix(-2631.93 -7847.78 8117.87 -2722.51 39195.1 -30054.5)">
<stop stop-color="#808080" stop-opacity="0.25"/>
<stop offset="0.54" stop-color="#808080" stop-opacity="0.12"/>
<stop offset="1" stop-color="#808080" stop-opacity="0.1"/>
</linearGradient>
</defs>
</svg>
