<svg width="270" height="199" viewBox="0 0 270 199" fill="none" xmlns="http://www.w3.org/2000/svg">
<path opacity="0.2" d="M22.2757 72.9022C18.7246 73.975 15.4009 76.5725 14.5138 80.1762C13.4993 84.3177 15.8389 88.4924 16.1771 92.7448C17.2693 106.677 -2.55108 116.507 0.276438 130.193C1.39913 135.634 5.93703 139.637 10.4084 142.944C17.5715 148.225 25.519 152.891 34.3204 154.207C47.679 156.209 61.6364 150.326 74.6209 154.044C85.0938 157.043 93.1079 165.833 103.509 169.077C111.426 171.547 119.955 170.574 128.18 169.573C132.616 169.035 137.262 168.414 140.84 165.753C147.493 160.799 147.912 151.017 152.367 144.006C159.247 133.195 174.333 131.072 186.982 133.173C199.631 135.274 211.914 140.447 224.729 140.025C227.468 139.934 230.273 139.562 232.663 138.218C235.568 136.585 237.531 133.708 239.266 130.861C250.112 113 256.065 92.5985 256.528 71.7075C256.602 68.1176 256.475 64.3725 254.787 61.204C252.652 57.1956 248.386 54.7978 244.139 53.1844C233.941 49.3035 222.675 48.6687 212.682 44.2916C203.043 40.0697 195.237 32.6655 186.843 26.3202C170.116 13.6996 150.728 5.06499 130.157 1.07483C125.336 0.143412 120.332 -0.521888 115.542 0.553679C110.023 1.7928 105.266 5.23295 100.989 8.93645C89.6095 18.7884 80.4894 30.944 70.0026 41.7413C62.7684 49.1874 54.8909 55.9804 46.4621 62.0412C42.5812 64.8382 38.4563 68.1592 34.1319 70.2272C30.1733 72.1177 26.4615 71.6409 22.2757 72.9022Z" transform="translate(13.4564 27.4473)" fill="#E30613"/>
<path d="M6.92757 7.46539C6.07654 11.1273 2.00436 13.3089 2.00436 13.3089C2.00436 13.3089 -0.68456 9.55276 0.166469 5.89085C1.0175 2.22893 3.21575 -0.387916 5.08968 0.0473009C6.96361 0.482518 7.7786 3.80347 6.92757 7.46539Z" transform="translate(84.3321)" fill="#3EC300"/>
<path d="M7.58164 7.25958C4.04447 8.53474 -2.03033e-06 6.30044 -2.03033e-06 6.30044C-2.03033e-06 6.30044 1.69097 2.00095 5.23091 0.72856C8.77086 -0.543825 12.1611 -0.103067 12.8126 1.6877C13.464 3.47846 11.1188 5.98442 7.58164 7.25958Z" transform="translate(81.8263 16.4751)" fill="#3EC300"/>
<path d="M7.58164 7.25958C4.04447 8.53474 -2.36872e-06 6.30044 -2.36872e-06 6.30044C-2.36872e-06 6.30044 1.69097 2.00095 5.23091 0.728561C8.77086 -0.543824 12.1611 -0.103066 12.8126 1.6877C13.464 3.47846 11.1188 5.9872 7.58164 7.25958Z" transform="translate(81.003 29.4402)" fill="#3EC300"/>
<path d="M7.58164 7.25958C4.04447 8.53474 -1.35356e-06 6.30044 -1.35356e-06 6.30044C-1.35356e-06 6.30044 1.69097 2.00094 5.23091 0.72856C8.77086 -0.543826 12.1611 -0.103067 12.8126 1.6877C13.464 3.47846 11.1188 5.99274 7.58164 7.25958Z" transform="translate(85.1362 44.6506)" fill="#3EC300"/>
<path d="M7.58164 7.25958C4.04446 8.53474 3.72228e-06 6.30044 3.72228e-06 6.30044C3.72228e-06 6.30044 1.69097 2.00094 5.23092 0.728558C8.77087 -0.543828 12.1611 -0.103069 12.8126 1.6877C13.464 3.47846 11.1216 5.98719 7.58164 7.25958Z" transform="translate(82.4472 58.5608)" fill="#3EC300"/>
<path d="M2.85201 7.86811C5.46331 10.5737 10.0788 10.363 10.0788 10.363C10.0788 10.363 10.4586 5.75856 7.8473 3.05301C5.236 0.347455 2.00098 -0.766921 0.62048 0.558134C-0.760017 1.88319 0.240709 5.16256 2.85201 7.86811Z" transform="translate(70.5859 19.5508)" fill="#3EC300"/>
<path d="M2.85201 7.86812C5.46331 10.5737 10.0788 10.363 10.0788 10.363C10.0788 10.363 10.4586 5.75855 7.8473 3.053C5.236 0.347453 2.00097 -0.766924 0.620479 0.558131C-0.760018 1.88319 0.240709 5.16256 2.85201 7.86812Z" transform="translate(69.0862 62.5151)" fill="#3EC300"/>
<path d="M4.73658 7.45778C8.10188 9.13766 12.3792 7.39125 12.3792 7.39125C12.3792 7.39125 11.2011 2.92543 7.83854 1.24555C4.476 -0.434332 1.05248 -0.417703 0.195908 1.31208C-0.660665 3.04185 1.37127 5.7779 4.73658 7.45778Z" transform="translate(70.6641 35.1465)" fill="#3EC300"/>
<path d="M4.73574 7.45778C8.10105 9.13766 12.3784 7.39125 12.3784 7.39125C12.3784 7.39125 11.2002 2.92543 7.8377 1.24555C4.47516 -0.434335 1.05164 -0.417705 0.195068 1.31207C-0.661505 3.04185 1.38429 5.79453 4.73574 7.45778Z" transform="translate(72.0759 50.2737)" fill="#3EC300"/>
<path d="M16.408 1.35356e-06C16.408 1.35356e-06 5.69386 14.2291 13.3587 30.8145C21.0235 47.3998 6.76778e-07 74.0478 6.76778e-07 74.0478" transform="translate(70.0477 12.7905)" stroke="#535461" stroke-width="2" stroke-miterlimit="10"/>
<path d="M2.13728 1.60226C3.31766 1.60226 4.27455 1.24358 4.27455 0.801132C4.27455 0.358679 3.31766 0 2.13728 0C0.956893 0 -3.72228e-06 0.358679 -3.72228e-06 0.801132C-3.72228e-06 1.24358 0.956893 1.60226 2.13728 1.60226Z" transform="translate(86.4795 8.5459) rotate(-76.9)" fill="#8ED16F"/>
<path d="M2.13728 1.60226C3.31766 1.60226 4.27455 1.24358 4.27455 0.80113C4.27455 0.358677 3.31766 0 2.13728 0C0.956892 0 3.72228e-06 0.358677 3.72228e-06 0.80113C3.72228e-06 1.24358 0.956892 1.60226 2.13728 1.60226Z" transform="translate(85.8605 20.1321) scale(0.9996) rotate(-19.8852)" fill="#8ED16F"/>
<path d="M2.13727 1.60226C3.31766 1.60226 4.27455 1.24358 4.27455 0.80113C4.27455 0.358677 3.31766 0 2.13727 0C0.956889 0 0 0.358677 0 0.80113C0 1.24358 0.956889 1.60226 2.13727 1.60226Z" transform="translate(85.0786 33.2888) rotate(-19.8)" fill="#8ED16F"/>
<path d="M2.13727 1.60226C3.31766 1.60226 4.27455 1.24359 4.27455 0.801134C4.27455 0.358681 3.31766 0 2.13727 0C0.95689 0 0 0.358681 0 0.801134C0 1.24359 0.95689 1.60226 2.13727 1.60226Z" transform="translate(89.2123 48.5059) rotate(-19.8)" fill="#8ED16F"/>
<path d="M2.13727 1.60226C3.31766 1.60226 4.27455 1.24359 4.27455 0.801135C4.27455 0.358682 3.31766 0 2.13727 0C0.956889 0 0 0.358682 0 0.801135C0 1.24359 0.956889 1.60226 2.13727 1.60226Z" transform="translate(86.5308 62.1841) scale(0.9996) rotate(-19.8852)" fill="#8ED16F"/>
<path d="M0.801131 4.27455C1.24358 4.27455 1.60227 3.31766 1.60227 2.13727C1.60227 0.956889 1.24358 0 0.801131 0C0.358678 0 4.06067e-06 0.956889 4.06067e-06 2.13727C4.06067e-06 3.31766 0.358678 4.27455 0.801131 4.27455Z" transform="translate(73.9742 23.9397) rotate(-43.99)" fill="#8ED16F"/>
<path d="M0.801127 4.27455C1.24358 4.27455 1.60226 3.31765 1.60226 2.13727C1.60226 0.956886 1.24358 0 0.801127 0C0.358675 0 0 0.956886 0 2.13727C0 3.31765 0.358675 4.27455 0.801127 4.27455Z" transform="translate(72.4706 66.908) rotate(-43.99)" fill="#8ED16F"/>
<path d="M0.801128 4.27455C1.24358 4.27455 1.60226 3.31766 1.60226 2.13728C1.60226 0.956891 1.24358 0 0.801128 0C0.358675 0 0 0.956891 0 2.13728C0 3.31766 0.358675 4.27455 0.801128 4.27455Z" transform="translate(74.7356 39.1377) rotate(-63.48)" fill="#8ED16F"/>
<path d="M0.80113 4.27455C1.24358 4.27455 1.60227 3.31766 1.60227 2.13728C1.60227 0.956892 1.24358 3.72228e-06 0.80113 3.72228e-06C0.358677 3.72228e-06 2.70711e-06 0.956892 2.70711e-06 2.13728C2.70711e-06 3.31766 0.358677 4.27455 0.80113 4.27455Z" transform="translate(76.1478 54.2668) rotate(-63.48)" fill="#8ED16F"/>
<path d="M20.5774 1.86114e-06C20.5774 1.86114e-06 40.1455 19.5681 29.0988 48.6057C18.052 77.6432 48.0349 125.93 48.0349 125.93C48.0349 125.93 47.7133 125.883 47.1173 125.778C6.92214 118.684 -13.0368 72.7172 9.30613 38.5707C17.603 25.8746 24.4361 10.983 20.5774 1.86114e-06Z" transform="translate(14.2759 43.375)" fill="#3EC300"/>
<path d="M0 0.244574C0 0.244574 22.3291 -3.31199 24.3638 16.6997C26.3985 36.7113 67.3006 39.4862 67.3006 39.4862C67.3006 39.4862 67.0234 39.6691 66.5327 39.9962C32.7605 62.1729 0.476799 54.1172 5.3418 24.6805C7.15474 13.7335 7.00505 2.74222 0 0.244574Z" transform="translate(0 122.276)" fill="#8ED16F"/>
<path opacity="0.3" d="M0 0.244574C0 0.244574 22.3291 -3.31199 24.3638 16.6997C26.3985 36.7113 67.3006 39.4862 67.3006 39.4862C67.3006 39.4862 67.0234 39.6691 66.5327 39.9962C32.7605 62.1729 0.476799 54.1172 5.3418 24.6805C7.15474 13.7335 7.00505 2.74222 0 0.244574Z" transform="translate(0 122.276)" fill="#3EC300"/>
<path d="M6.14016 32.0397C9.53127 32.0397 12.2803 24.8674 12.2803 16.0199C12.2803 7.17233 9.53127 2.70711e-06 6.14016 2.70711e-06C2.74904 2.70711e-06 0 7.17233 0 16.0199C0 24.8674 2.74904 32.0397 6.14016 32.0397Z" transform="translate(23.0609 90.2341)" fill="#33A000"/>
<path d="M4.13872 18.4233C6.42447 18.4233 8.27744 14.2991 8.27744 9.21162C8.27744 4.12418 6.42447 0 4.13872 0C1.85297 0 0 4.12418 0 9.21162C0 14.2991 1.85297 18.4233 4.13872 18.4233Z" transform="translate(12.6863 154.334) rotate(-45)" fill="#33A000"/>
<path d="M151.974 3.38389e-06H6.6225C4.8661 3.38389e-06 3.18165 0.697722 1.93969 1.93968C0.697728 3.18164 1.01517e-06 4.8661 1.01517e-06 6.6225V91.8169C1.01517e-06 93.5733 0.697728 95.2577 1.93969 96.4997C3.18165 97.7417 4.8661 98.4394 6.6225 98.4394H151.974C153.73 98.4394 155.415 97.7417 156.657 96.4997C157.899 95.2577 158.596 93.5733 158.596 91.8169V6.6225C158.596 4.8661 157.899 3.18164 156.657 1.93968C155.415 0.697722 153.73 3.38389e-06 151.974 3.38389e-06Z" transform="translate(48.6943 73.5879)" fill="url(#paint0_linear)"/>
<path d="M147.985 4.06067e-06H6.87753C3.07918 4.06067e-06 0 3.07918 0 6.87754V89.2444C0 93.0427 3.07918 96.1219 6.87753 96.1219H147.985C151.783 96.1219 154.862 93.0427 154.862 89.2444V6.87754C154.862 3.07918 151.783 4.06067e-06 147.985 4.06067e-06Z" transform="translate(50.5599 74.7466)" fill="#E30613"/>
<path d="M154.862 2.03033e-06H0V17.6221H154.862V2.03033e-06Z" transform="translate(50.5599 91.5676)" fill="#E30613"/>
<path opacity="0.3" d="M154.862 2.03033e-06H0V17.6221H154.862V2.03033e-06Z" transform="translate(50.5599 91.5676)" fill="black"/>
<path d="M125.492 0H0V8.54355H125.492V0Z" transform="translate(65.2465 122.274)" fill="#D6D6E3"/>
<path d="M12.2831 24.5662C19.0669 24.5662 24.5662 19.0668 24.5662 12.2831C24.5662 5.49932 19.0669 0 12.2831 0C5.49933 0 0 5.49932 0 12.2831C0 19.0668 5.49933 24.5662 12.2831 24.5662Z" transform="translate(63.3754 139.896)" fill="#E30613"/>
<path opacity="0.3" d="M12.2831 24.5662C19.0669 24.5662 24.5662 19.0668 24.5662 12.2831C24.5662 5.49932 19.0669 0 12.2831 0C5.49933 0 0 5.49932 0 12.2831C0 19.0668 5.49933 24.5662 12.2831 24.5662Z" transform="translate(63.3754 139.896)" fill="black"/>
<path d="M0.0450476 19.7709C0.243316 20.3978 0.664405 20.9303 1.22871 21.2678C3.77626 22.9504 9.31488 22.5928 9.98018 22.5928C10.1216 22.5928 10.3073 22.8451 10.5124 23.2692C11.491 25.2873 13.0073 31.2029 13.1099 32.5335C13.2457 34.1441 14.7426 41.6814 17.1931 44.4895C17.268 44.5754 17.3428 44.6558 17.4149 44.7307C19.8183 47.1452 22.6375 44.4895 22.6375 44.4895L23.0422 43.0841C22.9286 43.6385 22.801 44.2844 22.6735 45.0079C22.6098 45.371 22.546 45.7563 22.485 46.1528C22.1198 48.3864 21.928 50.645 21.9112 52.9083C21.905 53.7301 21.9402 54.5517 22.0165 55.3699C22.0387 55.5972 22.0637 55.8218 22.0942 56.0408C22.2193 57.0375 22.2804 58.0412 22.2771 59.0457C22.2549 65.0112 20.7331 72.4321 20.7331 72.4321L20.7913 72.4127C20.7553 72.5984 20.7331 72.6899 20.7331 72.6899L20.8218 72.6622C20.7793 72.9375 20.7386 73.2194 20.6998 73.5077C20.1842 77.25 19.8876 81.9071 19.7462 84.596C19.6731 86.0144 19.7362 87.4365 19.9347 88.8428L22.6403 107.89V116.76C22.6312 118.105 22.7951 119.444 23.1282 120.747C24.0097 124.098 23.2834 135.796 22.8759 141.346C22.7622 142.86 22.6735 143.919 22.6486 144.223V144.315L22.7262 144.284C22.7262 144.348 22.7262 144.381 22.7262 144.381C22.8417 144.332 22.9627 144.297 23.0866 144.276C22.0138 145.939 20.0706 148.689 18.5764 149.152C17.6958 149.42 16.9126 149.94 16.3227 150.646L16.2839 150.699L16.2284 150.777C16.0437 151.024 15.9314 151.318 15.9041 151.625C15.8825 151.572 15.8658 151.517 15.8542 151.461C15.7406 152.08 16.112 152.645 17.2791 152.919C17.9594 153.049 18.6519 153.105 19.3443 153.086C23.3915 153.086 30.574 151.841 31.3668 150.502V145.884L31.4971 145.925V145.967L31.9933 146.131L33.3544 141.562C34.9871 140.354 33.6316 118.723 33.3544 113.753C33.1049 109.223 35.9075 91.2046 36.4037 88.0306L36.3371 87.9502L36.412 87.4873C36.5118 87.5597 36.6046 87.6414 36.6892 87.7312C36.852 87.9247 36.9942 88.1346 37.1133 88.3577C37.3476 88.7544 37.5488 89.1698 37.7148 89.5996C40.4537 96.43 41.6872 115.962 41.6872 117.714V136.082C41.6816 137.894 41.9336 139.699 42.4357 141.44C42.6872 142.357 42.8816 143.288 43.0178 144.229C43.076 144.598 43.1259 144.964 43.1731 145.313C43.2202 145.662 43.2673 146.061 43.3034 146.388C43.3034 146.474 43.3228 146.558 43.3311 146.635C43.3394 146.713 43.3311 146.71 43.3311 146.749C43.4059 147.472 43.4447 147.946 43.4447 147.946C43.455 147.907 43.4739 147.87 43.5002 147.838L43.514 148.013C43.5336 147.947 43.571 147.887 43.6222 147.841C43.7349 147.73 43.8573 147.63 43.9881 147.542V149.876L43.9215 149.826V150.228C46.7435 152.357 51.3369 153 54.863 152.975C57.1499 152.975 59.0017 152.698 59.6448 152.376C60.5651 151.924 60.0606 150.871 59.2234 150.064C58.5748 149.438 57.7293 148.955 57.1942 149.016C56.3016 149.113 53.2496 145.657 51.6501 143.763L51.8303 143.683L52.0853 143.572V112.946C52.0853 112.946 52.4956 100.854 53.7181 88.8955C54.2982 82.8673 53.5846 76.7847 51.6251 71.0544L51.5863 70.9407L51.9578 70.9989C52.3514 71.0599 52.5621 71.0959 52.5621 71.0959C52.5621 71.0959 52.5621 71.0017 52.5372 70.8187H52.5621C52.5621 70.8187 52.0853 65.6322 52.0798 59.1178C52.0798 51.733 52.7035 42.7292 55.2843 37.6342C56.7701 34.7013 57.2663 32.3672 57.2248 30.5265C57.2896 28.9069 56.8233 27.3105 55.8969 25.9803C55.5084 25.4449 54.9799 25.0267 54.3695 24.7717L54.3168 24.7412H54.2891C53.8433 24.5608 53.3673 24.4668 52.8865 24.464H47.3118C46.6666 24.4645 46.0323 24.2974 45.4711 23.9789L43.2895 22.7425C42.5632 21.1541 42.4579 19.186 42.6131 17.3397C42.6131 17.1928 42.6408 17.0459 42.6547 16.9018L42.8127 16.7354C42.9347 16.6051 43.0483 16.4582 43.1592 16.3335C43.1567 16.4429 43.1484 16.5521 43.1343 16.6606C43.1065 16.8352 43.0594 16.9378 42.9846 16.96C44.1766 16.8047 45.5072 16.5691 46.239 15.6488C46.2695 15.6127 46.2972 15.5739 46.3249 15.5351C46.5412 15.185 46.7205 14.8134 46.8599 14.4263C46.9625 14.1618 47.0995 13.912 47.2674 13.6834C47.4504 13.445 47.6888 13.2509 47.8856 13.0236L47.9189 12.9848C48.6202 12.1532 48.659 10.9612 48.6673 9.87453C48.6812 7.23551 48.6036 4.33037 46.8378 2.3511C45.3713 0.704489 43.0317 0.0807716 40.8113 0.0086975C38.5908 -0.0633766 36.3759 0.335803 34.1583 0.346892C32.6503 0.346892 30.8318 0.321944 30.0002 1.56938C29.5927 2.18201 29.5428 2.98314 29.0992 3.57082C28.8442 3.90902 28.4533 4.20008 28.4311 4.62144C28.4283 4.81586 28.4781 5.00743 28.5753 5.17586V5.19526C29.1131 6.2542 30.2552 6.91395 31.4472 7.12186C31.2457 7.3644 31.0605 7.61998 30.8928 7.88695C30.165 9.05034 29.7806 10.3956 29.7839 11.7679C29.7839 11.9286 29.7839 12.0867 29.8006 12.2447C29.9243 14.1085 30.7552 15.8547 32.1236 17.1263C32.1014 17.2815 32.0792 17.4368 32.0543 17.5892L32.1042 17.6336C32.2612 17.7759 32.4248 17.9108 32.5948 18.0383L32.6558 18.0854C32.6558 18.1825 32.6558 18.2795 32.6558 18.3626C32.6558 18.5234 32.6558 18.687 32.6392 18.845C32.6225 19.003 32.6392 19.1 32.6225 19.2275L32.5865 19.197L29.8782 16.935L25.5232 12.9044C25.5232 12.9044 14.6345 4.97904 14.0884 8.7463C14.0224 9.41537 14.2071 10.0851 14.6068 10.6258C16.6055 13.6751 23.4774 16.2697 23.4774 16.2697C23.4774 16.2697 27.5746 20.6025 30.3162 25.2734C30.2191 25.3261 30.1221 25.376 30.0195 25.4231C27.5801 26.5569 24.0208 26.0773 24.0208 26.0773C19.9098 26.7177 19.5383 31.2223 19.5605 33.0436C19.5605 33.1295 19.5605 33.2127 19.5605 33.2875C19.5605 33.3624 19.5605 33.379 19.5605 33.4206L14.105 20.6108L14.0884 20.572C13.9104 20.155 13.6302 19.7895 13.2736 19.5095C12.917 19.2294 12.4955 19.0438 12.0482 18.9697C8.4001 18.3571 -0.717275 17.0792 0.0450476 19.7709ZM22.8842 144.237C22.9638 144.218 23.0443 144.204 23.1254 144.193L23.1004 144.232L22.8842 144.237Z" transform="translate(196.573 31.2744)" fill="url(#paint1_linear)"/>
<path d="M6.49776 -2.03033e-06C6.49776 -2.03033e-06 11.6649 6.49499 12.8597 6.36193C14.0544 6.22887 16.8349 8.87898 15.2465 9.68843C13.6581 10.4979 4.51295 11.0135 -6.76778e-07 7.56778V2.37567L6.49776 -2.03033e-06Z" transform="translate(240.217 172.892)" fill="#011B3D"/>
<path d="M7.76513 -4.06067e-06C7.76513 -4.06067e-06 4.71584 5.43327 2.59797 6.09857C0.480102 6.76387 -1.37719 9.14787 1.40598 9.8104C4.18915 10.4729 14.1298 9.01481 15.0557 7.42364V0.396401L7.76513 -4.06067e-06Z" transform="translate(212.84 173.289)" fill="#011B3D"/>
<path d="M0.218684 20.8599L2.85216 39.6491V48.3839C2.8441 49.7091 3.00431 51.0299 3.32895 52.3147C4.1883 55.6218 3.48143 67.1592 3.08225 72.6341C2.95196 74.4193 2.85216 75.5614 2.85216 75.5614C4.57362 74.7658 11.8642 77.2828 11.8642 77.2828L12.6016 74.7741L13.1892 72.7782C14.7804 71.5862 13.4665 50.2495 13.1892 45.3346C13.0091 41.9776 14.506 31.0944 15.4651 24.5717C15.7423 22.7283 15.9669 21.2452 16.1027 20.3526C16.1886 19.7982 16.2358 19.4905 16.2358 19.4905C16.5279 19.7287 16.7708 20.0215 16.951 20.3526C17.1791 20.7444 17.3747 21.1542 17.5359 21.5779C20.2026 28.3168 21.4168 47.5828 21.4168 49.2987V67.417C21.4113 69.2046 21.6567 70.984 22.1458 72.7034C22.4741 73.9574 22.714 75.2329 22.8638 76.5205C23.0523 77.9592 23.141 79.118 23.141 79.118C23.2741 78.3224 31.4905 74.7436 31.4905 74.7436V44.5279C31.4905 44.5279 31.8869 32.608 33.0817 20.8045C33.5952 15.4354 33.0777 10.0176 31.5571 4.84283C31.2272 3.71459 30.8973 2.75822 30.6118 2.00144C30.1267 0.712424 29.7802 -6.76778e-07 29.7802 -6.76778e-07H2.71356C2.25894 0.0859338 1.88194 1.00072 1.54097 2.38953C1.31921 3.32095 1.12515 4.46305 0.95605 5.71603C0.454303 9.40567 0.166013 13.999 0.0274093 16.6547C-0.0425541 18.0593 0.0214939 19.4674 0.218684 20.8599Z" transform="translate(216.558 99.0522)" fill="#9197AE"/>
<path opacity="0.1" d="M7.86163 74.7464V44.5307C7.86163 44.5307 8.25803 32.6108 9.4528 20.8072C10.6476 9.00371 6.1263 -4.06067e-06 6.1263 -4.06067e-06H6.65576C6.65576 -4.06067e-06 11.1604 9.01203 9.98226 20.8072C8.80413 32.6024 8.39109 44.5307 8.39109 44.5307V74.7464C8.39109 74.7464 0.174642 78.3252 0.0415826 79.1208C0.0415826 79.1208 0.0415758 78.9433 -5.41422e-06 78.6384C1.79076 77.3937 7.86163 74.7464 7.86163 74.7464Z" transform="translate(239.71 99.1353)" fill="black"/>
<path opacity="0.1" d="M0.729056 0.0069951C0.478956 0.0121444 0.231892 0.062866 -2.70711e-06 0.156681V0.0236269C0.242226 -0.000673917 0.485971 -0.00623393 0.729056 0.0069951Z" transform="translate(219.477 174.523)" fill="black"/>
<path opacity="0.1" d="M1.27516 53.285C2.86633 52.093 1.55236 30.7562 1.27516 25.8413C0.997948 20.9264 4.32444 -1.35356e-06 4.32444 -1.35356e-06C4.49856 0.134518 4.65258 0.293207 4.78185 0.471256C4.29396 3.59816 1.56622 21.3755 1.80739 25.8413C2.0846 30.7452 3.39857 52.0819 1.80739 53.285L0.482345 57.7896L5.41422e-06 57.6288L1.27516 53.285Z" transform="translate(228.009 118.612)" fill="black"/>
<path d="M24.8374 16.1881L22.0653 25.9957C22.0653 25.9957 19.1491 28.7678 16.7651 25.9957C14.3811 23.2236 12.9119 15.7917 12.7678 14.2005C12.6236 12.6093 10.5141 4.39289 9.7185 4.39289C8.92291 4.39289 0.972576 4.92236 0.0439284 1.62081C-0.698989 -1.03485 8.17722 0.234765 11.731 0.830763C12.1687 0.90527 12.5803 1.08919 12.9278 1.36544C13.2753 1.64169 13.5473 2.0013 13.7186 2.41085L19.1685 15.4258C19.1685 15.4258 22.0543 12.0799 24.8374 16.1881Z" transform="translate(197.356 50.1506)" fill="#FEC3BE"/>
<path d="M14.7142 2.03033e-06C14.7142 2.03033e-06 11.2685 9.67456 15.6429 13.1203C20.0172 16.566 0 17.4946 0 17.4946L2.71664 14.911C2.71664 14.911 4.63769 7.29057 3.31264 0.928647L14.7142 2.03033e-06Z" transform="translate(225.37 43.5439)" fill="#FEC3BE"/>
<path opacity="0.1" d="M19.4524 1.78799C19.4524 1.78799 22.9646 0.925878 22.9646 3.38389e-06L26.0777 1.78799H33.8977C33.8977 1.78799 39.5971 4.96757 34.8264 14.5118C30.0556 24.0561 32.1763 47.4996 32.1763 47.4996C32.1763 47.4996 15.2139 44.4503 1.16498 49.0908C1.16498 49.0908 3.28563 38.6206 2.49004 32.6579C1.69446 26.6951 3.81509 18.3456 3.81509 18.3456L5.00708 13.3088C5.00708 13.3088 4.94055 8.59622 0.0367415 10.9885C0.0367415 10.9885 -0.692305 4.16367 4.34457 3.36808C4.34457 3.36808 10.1659 4.16367 11.8985 1.24744C11.8985 1.25853 15.7434 3.51222 19.4524 1.78799Z" transform="translate(216.391 54.8762)" fill="black"/>
<path d="M19.4525 1.788C19.4525 1.788 22.9647 0.925875 22.9647 0L25.2461 1.3112C25.7913 1.62352 26.4086 1.78788 27.0369 1.788H32.5062C33.0779 1.78635 33.6418 1.92074 34.1513 2.18006C34.6608 2.43938 35.1012 2.81619 35.4363 3.27937C36.6921 5.04518 37.8175 8.52692 34.8265 14.5118C30.0557 24.0533 32.1763 47.4996 32.1763 47.4996C32.1763 47.4996 15.214 44.4503 1.16508 49.0908C1.16508 49.0908 3.28573 38.6206 2.49014 32.6579C1.69456 26.6951 3.81519 18.365 3.81519 18.365L5.00718 13.3282C5.00718 13.3282 4.94065 8.61563 0.0368424 11.0079C0.0368424 11.0079 -0.6728 4.37157 4.13676 3.42352C4.27042 3.3938 4.4078 3.38445 4.54425 3.3958C5.57269 3.50391 10.3656 3.85042 11.9013 1.25298C11.8986 1.25575 15.7435 3.50946 19.4525 1.788Z" transform="translate(216.391 54.613)" fill="#2F4F7C"/>
<path opacity="0.1" d="M21.3396 10.4168C21.3396 10.4168 17.0983 13.0669 10.2069 10.4168C10.2069 10.4168 2.65301 7.64475 0.266246 2.20039C-2.12052 -3.24398 12.3248 3.12904 12.3248 3.12904C12.3248 3.12904 15.3741 3.12903 16.3 2.4665C17.2258 1.80398 23.7236 7.50061 21.3396 10.4168Z" transform="translate(227.89 58.0427)" fill="black"/>
<path d="M38.1923 28.043C38.1923 28.043 33.951 30.6931 27.0596 28.043C27.0596 28.043 19.5057 25.2709 17.1189 19.8266C14.7322 14.3822 9.16862 8.41947 9.16862 8.41947C9.16862 8.41947 -0.505946 4.70765 0.0207493 0.998604C0.547445 -2.71044 11.1534 5.10683 11.1534 5.10683L15.3947 9.082L29.1775 20.7441C29.1775 20.7441 32.2268 20.7441 33.1527 20.0816C34.0785 19.4191 40.5763 25.1268 38.1923 28.043Z" transform="translate(211.037 39.887)" fill="#FEC3BE"/>
<path opacity="0.1" d="M-2.70711e-06 0.928649L11.396 0C10.8101 1.75204 10.4115 3.56122 10.2068 5.39724C8.88193 6.77101 7.07068 7.56976 5.16285 7.6216C3.25501 7.67344 1.40307 6.97424 0.00554687 5.67445C0.295966 4.10567 0.294081 2.49674 -2.70711e-06 0.928649Z" transform="translate(228.555 43.9404)" fill="black"/>
<path d="M7.28781 14.5756C11.3127 14.5756 14.5756 11.3127 14.5756 7.2878C14.5756 3.26286 11.3127 0 7.28781 0C3.26287 0 -4.06067e-06 3.26286 -4.06067e-06 7.2878C-4.06067e-06 11.3127 3.26287 14.5756 7.28781 14.5756Z" transform="translate(226.371 36.5889)" fill="#FEC3BE"/>
<path opacity="0.1" d="M12.6157 12.9182C12.1888 12.2141 13.0565 11.2965 12.771 10.5259C12.5076 9.81622 11.4598 9.69425 11.1077 9.03172C10.8305 8.49671 11.1077 7.83973 10.9968 7.24927C10.8388 6.48695 10.0183 6.01292 9.23935 5.97411C8.4604 5.93531 7.70916 6.22638 6.96902 6.47587C5.76316 6.88336 4.49354 7.19661 3.22947 7.05246C1.9654 6.90831 0.704113 6.22083 0.141381 5.0926C0.049343 4.92825 0.000684998 4.74317 2.03033e-06 4.55481C0.0221787 4.139 0.404719 3.85348 0.651434 3.52083C1.08388 2.94146 1.13379 2.15142 1.52742 1.54711C2.33132 0.316301 4.09714 0.346792 5.56635 0.341248C7.72857 0.341248 9.8797 -0.0634747 12.0419 0.00859939C14.2041 0.0806735 16.4772 0.693304 17.9104 2.31774C19.6291 4.27206 19.7067 7.13285 19.6929 9.7386C19.6929 10.8114 19.6485 11.9784 18.9638 12.8073C18.7642 13.0485 18.5203 13.2481 18.329 13.4948C17.9132 14.0492 17.8023 14.7588 17.4114 15.3216C16.7184 16.3223 15.3657 16.5662 14.1598 16.727C14.5146 16.6799 14.2208 14.3042 14.1598 14.0852C13.9269 12.993 13.6747 13.0152 12.6157 12.9182Z" transform="translate(225.043 32.5413)" fill="black"/>
<path d="M12.6157 12.9182C12.1888 12.2141 13.0565 11.2965 12.771 10.5259C12.5076 9.81622 11.4598 9.69425 11.1077 9.03172C10.8305 8.49671 11.1077 7.83973 10.9968 7.24928C10.8388 6.48695 10.0183 6.01293 9.23935 5.97412C8.4604 5.93531 7.70916 6.22637 6.96902 6.47586C5.76316 6.88336 4.49354 7.1966 3.22947 7.05246C1.9654 6.90831 0.704113 6.22083 0.141381 5.0926C0.049343 4.92825 0.000684998 4.74317 2.03033e-06 4.55481C0.0221787 4.139 0.404719 3.85348 0.651434 3.52083C1.08388 2.94146 1.13379 2.15142 1.52742 1.5471C2.33132 0.316298 4.09714 0.346793 5.56635 0.341249C7.72857 0.341249 9.8797 -0.0634739 12.0419 0.00860024C14.2041 0.0806743 16.4772 0.693301 17.9104 2.31774C19.6291 4.27206 19.7067 7.13285 19.6929 9.7386C19.6929 10.8114 19.6485 11.9784 18.9638 12.8073C18.7642 13.0485 18.5203 13.2481 18.329 13.4948C17.9132 14.0492 17.8023 14.7588 17.4114 15.3216C16.7184 16.3223 15.3657 16.5662 14.1598 16.727C14.5146 16.6799 14.2208 14.3042 14.1598 14.0852C13.9269 12.9792 13.6747 13.0124 12.6157 12.9182Z" transform="translate(225.043 32.2781)" fill="#273043"/>
<path opacity="0.1" d="M6.94506 9.65854C6.94506 9.65854 3.3663 0.380394 0.583128 0.117046C-2.20004 -0.146301 5.88335 0.117046 5.88335 0.117046L8.53345 4.8878L6.94506 9.65854Z" transform="translate(242.218 59.1335)" fill="black"/>
<path d="M6.94505 9.65854C6.94505 9.65854 3.3663 0.380394 0.583134 0.117046C-2.20004 -0.146301 5.88335 0.117046 5.88335 0.117046L8.53346 4.8878L6.94505 9.65854Z" transform="translate(242.484 59.1335)" fill="#E14B5A"/>
<path d="M6.76778e-06 3.93335C0.188508 5.37206 0.277215 6.53079 0.277215 6.53079C0.410275 5.7352 8.62672 2.15645 8.62672 2.15645V0.00254255C8.4174 -0.00527053 8.2078 0.00492729 8.00023 0.0330314C6.40628 0.246482 4.92876 1.0199 3.5649 1.84598C2.41293 2.60204 1.22308 3.29873 6.76778e-06 3.93335Z" transform="translate(239.411 171.662)" fill="#618FD8"/>
<path opacity="0.3" d="M6.76778e-06 3.93335C0.188508 5.37206 0.277215 6.53079 0.277215 6.53079C0.410275 5.7352 8.62672 2.15645 8.62672 2.15645V0.00254255C8.4174 -0.00527053 8.2078 0.00492729 8.00023 0.0330314C6.40628 0.246482 4.92876 1.0199 3.5649 1.84598C2.41293 2.60204 1.22308 3.29873 6.76778e-06 3.93335Z" transform="translate(239.411 171.662)" fill="black"/>
<path d="M0 3.10123C1.72146 2.30565 9.01204 4.82268 9.01204 4.82268L9.7494 2.31395C8.47702 2.05615 7.21295 1.7346 5.97106 1.35205C5.39124 1.18423 4.82427 0.974854 4.27454 0.725557C3.90747 0.529417 3.52991 0.35358 3.14355 0.198855C2.19272 -0.12825 1.20309 0.0103631 0.227313 0.173916C0.099797 1.95914 0 3.10123 0 3.10123Z" transform="translate(219.41 171.512)" fill="#618FD8"/>
<path opacity="0.3" d="M0 3.10123C1.72146 2.30565 9.01204 4.82268 9.01204 4.82268L9.7494 2.31395C8.47702 2.05615 7.21295 1.7346 5.97106 1.35205C5.39124 1.18423 4.82427 0.974854 4.27454 0.725557C3.90747 0.529417 3.52991 0.35358 3.14355 0.198855C2.19272 -0.12825 1.20309 0.0103631 0.227313 0.173916C0.099797 1.95914 0 3.10123 0 3.10123Z" transform="translate(219.41 171.512)" fill="black"/>
<path opacity="0.4" d="M15.2465 2.12065C15.3573 2.0732 15.4559 2.0011 15.5346 1.90983C15.6134 1.81856 15.6703 1.71052 15.7011 1.59394C15.7504 1.77678 15.7315 1.97135 15.6479 2.14125C15.5642 2.31116 15.4215 2.44475 15.2465 2.51705C13.6553 3.31264 4.51294 3.8421 -3.38389e-06 0.396403V-2.70711e-06C4.51294 3.44569 13.6553 2.91623 15.2465 2.12065Z" transform="translate(240.145 180.047)" fill="white"/>
<path opacity="0.4" d="M1.40588 2.38676C4.17796 3.04929 14.1297 1.59118 15.0556 6.76778e-07V0.396406C14.127 1.98758 4.18905 3.44569 1.40588 2.78316C0.269329 2.50596 -0.0938137 1.95154 0.0198417 1.34445C0.108548 1.79353 0.52436 2.16499 1.40588 2.38676Z" transform="translate(212.771 180.31)" fill="white"/>
<path opacity="0.1" d="M11.3073 0.412732C11.3073 0.412732 8.39109 -0.515915 7.5955 0.412732C6.79991 1.34138 6.76778e-06 3.51747 6.76778e-06 3.51747" transform="translate(219.036 85.741)" fill="black"/>
<path d="M14.1792 0H6.76778e-06V0.299383H14.1792V0Z" transform="translate(211.526 49.7397) rotate(-180)" fill="#8ED16F"/>
<path d="M14.1792 3.72228e-06H6.76778e-06V0.299385H14.1792V3.72228e-06Z" transform="translate(211.526 50.0391) rotate(-180)" fill="#8ED16F"/>
<path opacity="0.1" d="M14.1792 3.72228e-06H6.76778e-06V0.299385H14.1792V3.72228e-06Z" transform="translate(211.526 50.0391) rotate(-180)" fill="black"/>
<path d="M14.1792 0H6.76778e-06V0.299381H14.1792V0Z" transform="translate(211.526 50.3384) rotate(-180)" fill="#8ED16F"/>
<path d="M14.1792 -3.72228e-06H6.76778e-06V0.299386H14.1792V-3.72228e-06Z" transform="translate(211.526 50.635) rotate(-180)" fill="#8ED16F"/>
<path opacity="0.1" d="M14.1792 -3.72228e-06H6.76778e-06V0.299386H14.1792V-3.72228e-06Z" transform="translate(211.526 50.635) rotate(-180)" fill="black"/>
<path d="M14.1792 0H6.76778e-06V0.299388H14.1792V0Z" transform="translate(211.526 50.9343) rotate(-180)" fill="#8ED16F"/>
<path d="M14.1792 3.0455e-06H6.76778e-06V0.299384H14.1792V3.0455e-06Z" transform="translate(211.526 51.231) rotate(-180)" fill="#8ED16F"/>
<path opacity="0.1" d="M14.1792 3.0455e-06H6.76778e-06V0.299384H14.1792V3.0455e-06Z" transform="translate(211.526 51.231) rotate(-180)" fill="black"/>
<path d="M14.1792 -3.38389e-06H6.76778e-06V0.299386H14.1792V-3.38389e-06Z" transform="translate(211.526 51.5303) rotate(-180)" fill="#8ED16F"/>
<path d="M14.1792 0H6.76778e-06V0.299382H14.1792V0Z" transform="translate(211.526 51.8269) rotate(-180)" fill="#8ED16F"/>
<path opacity="0.1" d="M14.1792 0H6.76778e-06V0.299382H14.1792V0Z" transform="translate(211.526 51.8269) rotate(-180)" fill="black"/>
<path d="M14.1792 -2.70711e-06H6.76778e-06V0.299387H14.1792V-2.70711e-06Z" transform="translate(211.526 47.3557) rotate(-180)" fill="#8ED16F"/>
<path d="M14.1792 0H0V0.299386H14.1792V0Z" transform="translate(218.278 49.3342) rotate(-140.25)" fill="#8ED16F"/>
<path d="M14.1792 0H4.06067e-06V0.299384H14.1792V0Z" transform="translate(208.339 44.564) rotate(-140.25)" fill="#8ED16F"/>
<path d="M14.1792 2.03033e-06H6.76778e-06V0.299383H14.1792V2.03033e-06Z" transform="translate(211.526 47.6523) rotate(-180)" fill="#8ED16F"/>
<path opacity="0.1" d="M14.1792 2.03033e-06H6.76778e-06V0.299383H14.1792V2.03033e-06Z" transform="translate(211.526 47.6523) rotate(-180)" fill="black"/>
<path d="M14.1792 4.06067e-06H6.76778e-06V0.299385H14.1792V4.06067e-06Z" transform="translate(211.526 47.9543) rotate(-180)" fill="#8ED16F"/>
<path d="M14.1792 0H6.76778e-06V0.299381H14.1792V0Z" transform="translate(211.526 48.251) rotate(-180)" fill="#8ED16F"/>
<path opacity="0.1" d="M14.1792 0H6.76778e-06V0.299381H14.1792V0Z" transform="translate(211.526 48.251) rotate(-180)" fill="black"/>
<path d="M14.1792 -3.38389e-06H6.76778e-06V0.299386H14.1792V-3.38389e-06Z" transform="translate(211.526 48.5476) rotate(-180)" fill="#8ED16F"/>
<path d="M14.1792 0H6.76778e-06V0.299388H14.1792V0Z" transform="translate(211.526 48.8469) rotate(-180)" fill="#8ED16F"/>
<path opacity="0.1" d="M14.1792 0H6.76778e-06V0.299388H14.1792V0Z" transform="translate(211.526 48.8469) rotate(-180)" fill="black"/>
<path d="M14.1792 3.38389e-06H6.76778e-06V0.299384H14.1792V3.38389e-06Z" transform="translate(211.526 49.1436) rotate(-180)" fill="#8ED16F"/>
<path d="M14.1792 -3.0455e-06H6.76778e-06V0.299386H14.1792V-3.0455e-06Z" transform="translate(211.526 49.4431) rotate(-180)" fill="#8ED16F"/>
<path opacity="0.1" d="M14.1792 -3.0455e-06H6.76778e-06V0.299386H14.1792V-3.0455e-06Z" transform="translate(211.526 49.4431) rotate(-180)" fill="black"/>
<path d="M5.16716 0H0V10.071H5.16716V0Z" transform="translate(200.63 62.0105) rotate(-169.48)" fill="#8ED16F"/>
<path d="M2.12064 2.11787C3.29184 2.11787 4.24129 1.64377 4.24129 1.05893C4.24129 0.474099 3.29184 4.06067e-06 2.12064 4.06067e-06C0.94944 4.06067e-06 6.091e-06 0.474099 6.091e-06 1.05893C6.091e-06 1.64377 0.94944 2.11787 2.12064 2.11787Z" transform="translate(197.652 58.5112) rotate(-79.48)" fill="#8ED16F"/>
<path opacity="0.1" d="M2.12064 2.11787C3.29184 2.11787 4.24129 1.64377 4.24129 1.05893C4.24129 0.474099 3.29184 4.06067e-06 2.12064 4.06067e-06C0.94944 4.06067e-06 6.091e-06 0.474099 6.091e-06 1.05893C6.091e-06 1.64377 0.94944 2.11787 2.12064 2.11787Z" transform="translate(197.652 58.5112) rotate(-79.48)" fill="black"/>
<path d="M5.16717 0H3.38389e-06V10.071H5.16717V0Z" transform="translate(201.499 82.9102) rotate(-169.48)" fill="#8ED16F"/>
<path d="M2.12064 2.11787C3.29184 2.11787 4.24129 1.64377 4.24129 1.05893C4.24129 0.4741 3.29184 -3.0455e-06 2.12064 -3.0455e-06C0.949444 -3.0455e-06 -6.76778e-06 0.4741 -6.76778e-06 1.05893C-6.76778e-06 1.64377 0.949444 2.11787 2.12064 2.11787Z" transform="translate(198.518 79.4087) rotate(-79.48)" fill="#8ED16F"/>
<path opacity="0.1" d="M2.12064 2.11787C3.29184 2.11787 4.24129 1.64377 4.24129 1.05893C4.24129 0.4741 3.29184 -3.0455e-06 2.12064 -3.0455e-06C0.949444 -3.0455e-06 -6.76778e-06 0.4741 -6.76778e-06 1.05893C-6.76778e-06 1.64377 0.949444 2.11787 2.12064 2.11787Z" transform="translate(198.518 79.4087) rotate(-79.48)" fill="black"/>
<path d="M5.16716 0H-2.70711e-06V10.071H5.16716V0Z" transform="translate(175.585 35.1401) rotate(-61.58)" fill="#8ED16F"/>
<path d="M1.05894 4.24128C1.64377 4.24128 2.11788 3.29184 2.11788 2.12064C2.11788 0.949442 1.64377 0 1.05894 0C0.474105 0 0 0.949442 0 2.12064C0 3.29184 0.474105 4.24128 1.05894 4.24128Z" transform="translate(179.731 35.3735) scale(1.0024) rotate(-61.3895)" fill="#8ED16F"/>
<path opacity="0.1" d="M1.05894 4.24128C1.64377 4.24128 2.11788 3.29184 2.11788 2.12064C2.11788 0.949442 1.64377 0 1.05894 0C0.474105 0 0 0.949442 0 2.12064C0 3.29184 0.474105 4.24128 1.05894 4.24128Z" transform="translate(179.731 35.3735) scale(1.0024) rotate(-61.3895)" fill="black"/>
<path d="M5.16715 0H7.44455e-06V10.071H5.16715V0Z" transform="translate(156.137 124.824) rotate(-61.58)" fill="#8ED16F"/>
<path d="M1.05893 4.24129C1.64377 4.24129 2.11787 3.29184 2.11787 2.12064C2.11787 0.949444 1.64377 -6.091e-06 1.05893 -6.091e-06C0.474098 -6.091e-06 -5.41422e-06 0.949444 -5.41422e-06 2.12064C-5.41422e-06 3.29184 0.474098 4.24129 1.05893 4.24129Z" transform="translate(159.397 124.931) rotate(-61.58)" fill="#8ED16F"/>
<path opacity="0.1" d="M1.05893 4.24129C1.64377 4.24129 2.11787 3.29184 2.11787 2.12064C2.11787 0.949444 1.64377 -6.091e-06 1.05893 -6.091e-06C0.474098 -6.091e-06 -5.41422e-06 0.949444 -5.41422e-06 2.12064C-5.41422e-06 3.29184 0.474098 4.24129 1.05893 4.24129Z" transform="translate(159.397 124.931) rotate(-61.58)" fill="black"/>
<path d="M5.16716 2.03033e-06H-7.44455e-06V10.071H5.16716V2.03033e-06Z" transform="translate(144.238 50.814) rotate(-61.58)" fill="#8ED16F"/>
<path d="M1.05893 4.24128C1.64377 4.24128 2.11787 3.29184 2.11787 2.12064C2.11787 0.949444 1.64377 2.36872e-06 1.05893 2.36872e-06C0.4741 2.36872e-06 -3.38389e-06 0.949444 -3.38389e-06 2.12064C-3.38389e-06 3.29184 0.4741 4.24128 1.05893 4.24128Z" transform="translate(147.496 50.917) rotate(-61.58)" fill="#8ED16F"/>
<path opacity="0.1" d="M1.05893 4.24128C1.64377 4.24128 2.11787 3.29184 2.11787 2.12064C2.11787 0.949444 1.64377 2.36872e-06 1.05893 2.36872e-06C0.4741 2.36872e-06 -3.38389e-06 0.949444 -3.38389e-06 2.12064C-3.38389e-06 3.29184 0.4741 4.24128 1.05893 4.24128Z" transform="translate(147.496 50.917) rotate(-61.58)" fill="black"/>
<path d="M5.16715 0H6.091e-06V10.071H5.16715V0Z" transform="translate(159.151 35.1392) rotate(-61.58)" fill="#8ED16F"/>
<path d="M1.05893 4.24128C1.64376 4.24128 2.11787 3.29184 2.11787 2.12064C2.11787 0.949442 1.64376 0 1.05893 0C0.474097 0 -6.76778e-06 0.949442 -6.76778e-06 2.12064C-6.76778e-06 3.29184 0.474097 4.24128 1.05893 4.24128Z" transform="translate(162.409 35.2419) rotate(-61.58)" fill="#8ED16F"/>
<path opacity="0.1" d="M1.05893 4.24128C1.64376 4.24128 2.11787 3.29184 2.11787 2.12064C2.11787 0.949442 1.64376 0 1.05893 0C0.474097 0 -6.76778e-06 0.949442 -6.76778e-06 2.12064C-6.76778e-06 3.29184 0.474097 4.24128 1.05893 4.24128Z" transform="translate(162.409 35.2419) rotate(-61.58)" fill="black"/>
<path d="M5.16716 3.72228e-06H-4.06067e-06V10.071H5.16716V3.72228e-06Z" transform="translate(171.364 49.6516) rotate(-6.24)" fill="#8ED16F"/>
<path d="M1.05894 4.24128C1.64377 4.24128 2.11787 3.29184 2.11787 2.12064C2.11787 0.949442 1.64377 0 1.05894 0C0.474102 0 0 0.949442 0 2.12064C0 3.29184 0.474102 4.24128 1.05894 4.24128Z" transform="translate(173.128 52.3918) rotate(-6.24)" fill="#8ED16F"/>
<path opacity="0.1" d="M1.05894 4.24128C1.64377 4.24128 2.11787 3.29184 2.11787 2.12064C2.11787 0.949442 1.64377 0 1.05894 0C0.474102 0 0 0.949442 0 2.12064C0 3.29184 0.474102 4.24128 1.05894 4.24128Z" transform="translate(173.128 52.3918) rotate(-6.24)" fill="black"/>
<path d="M5.16716 3.72228e-06H-4.73744e-06V10.071H5.16716V3.72228e-06Z" transform="translate(206.58 104.472) rotate(-6.24)" fill="#8ED16F"/>
<path d="M1.05893 4.24129C1.64377 4.24129 2.11787 3.29184 2.11787 2.12064C2.11787 0.94944 1.64377 -2.36872e-06 1.05893 -2.36872e-06C0.474101 -2.36872e-06 -2.03033e-06 0.94944 -2.03033e-06 2.12064C-2.03033e-06 3.29184 0.474101 4.24129 1.05893 4.24129Z" transform="translate(208.347 107.212) rotate(-6.24)" fill="#8ED16F"/>
<path opacity="0.1" d="M1.05893 4.24129C1.64377 4.24129 2.11787 3.29184 2.11787 2.12064C2.11787 0.94944 1.64377 -2.36872e-06 1.05893 -2.36872e-06C0.474101 -2.36872e-06 -2.03033e-06 0.94944 -2.03033e-06 2.12064C-2.03033e-06 3.29184 0.474101 4.24129 1.05893 4.24129Z" transform="translate(208.347 107.212) rotate(-6.24)" fill="black"/>
<path d="M5.16716 0H0V10.071H5.16716V0Z" transform="translate(153.928 74.9009) rotate(-61.58)" fill="#8ED16F"/>
<path d="M1.05894 4.24128C1.64377 4.24128 2.11787 3.29184 2.11787 2.12064C2.11787 0.949445 1.64377 3.38389e-06 1.05894 3.38389e-06C0.474103 3.38389e-06 0 0.949445 0 2.12064C0 3.29184 0.474103 4.24128 1.05894 4.24128Z" transform="translate(157.184 75.0078) rotate(-61.58)" fill="#8ED16F"/>
<path opacity="0.1" d="M1.05894 4.24128C1.64377 4.24128 2.11787 3.29184 2.11787 2.12064C2.11787 0.949445 1.64377 3.38389e-06 1.05894 3.38389e-06C0.474103 3.38389e-06 0 0.949445 0 2.12064C0 3.29184 0.474103 4.24128 1.05894 4.24128Z" transform="translate(157.184 75.0078) rotate(-61.58)" fill="black"/>
<path d="M5.16716 0H-2.70711e-06V10.071H5.16716V0Z" transform="translate(131.577 68.5173) rotate(-61.58)" fill="#8ED16F"/>
<path d="M1.05894 4.24128C1.64377 4.24128 2.11788 3.29184 2.11788 2.12064C2.11788 0.949443 1.64377 0 1.05894 0C0.474105 0 0 0.949443 0 2.12064C0 3.29184 0.474105 4.24128 1.05894 4.24128Z" transform="translate(135.564 68.9092) scale(1.0024) rotate(-61.3895)" fill="#8ED16F"/>
<path opacity="0.1" d="M1.05894 4.24128C1.64377 4.24128 2.11788 3.29184 2.11788 2.12064C2.11788 0.949443 1.64377 0 1.05894 0C0.474105 0 0 0.949443 0 2.12064C0 3.29184 0.474105 4.24128 1.05894 4.24128Z" transform="translate(135.564 68.9092) scale(1.0024) rotate(-61.3895)" fill="black"/>
<path d="M5.16716 4.06067e-06H-4.73744e-06V10.071H5.16716V4.06067e-06Z" transform="translate(124.418 175.993) rotate(-61.58)" fill="#8ED16F"/>
<path d="M1.05894 4.24128C1.64377 4.24128 2.11787 3.29185 2.11787 2.12065C2.11787 0.949449 1.64377 0 1.05894 0C0.474103 0 0 0.949449 0 2.12065C0 3.29185 0.474103 4.24128 1.05894 4.24128Z" transform="translate(127.676 176.097) rotate(-61.58)" fill="#8ED16F"/>
<path opacity="0.1" d="M1.05894 4.24128C1.64377 4.24128 2.11787 3.29185 2.11787 2.12065C2.11787 0.949449 1.64377 0 1.05894 0C0.474103 0 0 0.949449 0 2.12065C0 3.29185 0.474103 4.24128 1.05894 4.24128Z" transform="translate(127.676 176.097) rotate(-61.58)" fill="black"/>
<path d="M5.16715 0H5.41422e-06V10.071H5.16715V0Z" transform="translate(119.491 178.281) rotate(-79.49)" fill="#8ED16F"/>
<path opacity="0.05" d="M5.16715 0H5.41422e-06V10.071H5.16715V0Z" transform="translate(119.491 178.281) rotate(-79.49)" fill="black"/>
<path d="M1.05893 4.24128C1.64377 4.24128 2.11787 3.29185 2.11787 2.12065C2.11787 0.94945 1.64377 0 1.05893 0C0.474098 0 -5.41422e-06 0.94945 -5.41422e-06 2.12065C-5.41422e-06 3.29185 0.474098 4.24128 1.05893 4.24128Z" transform="translate(122.625 177.377) rotate(-79.49)" fill="#8ED16F"/>
<path opacity="0.1" d="M1.05893 4.24128C1.64377 4.24128 2.11787 3.29185 2.11787 2.12065C2.11787 0.94945 1.64377 0 1.05893 0C0.474098 0 -5.41422e-06 0.94945 -5.41422e-06 2.12065C-5.41422e-06 3.29185 0.474098 4.24128 1.05893 4.24128Z" transform="translate(122.625 177.377) rotate(-79.49)" fill="black"/>
<path d="M5.16716 -3.38389e-06H0V10.071H5.16716V-3.38389e-06Z" transform="translate(120.419 181.327) rotate(-79.49)" fill="#8ED16F"/>
<path d="M1.05894 4.24128C1.64378 4.24128 2.11786 3.29184 2.11786 2.12065C2.11786 0.949447 1.64378 -3.38389e-06 1.05894 -3.38389e-06C0.474108 -3.38389e-06 4.73744e-06 0.949447 4.73744e-06 2.12065C4.73744e-06 3.29184 0.474108 4.24128 1.05894 4.24128Z" transform="translate(123.55 180.424) rotate(-79.49)" fill="#8ED16F"/>
<path opacity="0.1" d="M1.05894 4.24128C1.64378 4.24128 2.11786 3.29184 2.11786 2.12065C2.11786 0.949447 1.64378 -3.38389e-06 1.05894 -3.38389e-06C0.474108 -3.38389e-06 4.73744e-06 0.949447 4.73744e-06 2.12065C4.73744e-06 3.29184 0.474108 4.24128 1.05894 4.24128Z" transform="translate(123.55 180.424) rotate(-79.49)" fill="black"/>
<path d="M5.16716 2.70711e-06H-4.06067e-06V10.071H5.16716V2.70711e-06Z" transform="translate(134.866 189.054) rotate(-61.58)" fill="#8ED16F"/>
<path d="M1.05894 4.24128C1.64377 4.24128 2.11787 3.29184 2.11787 2.12065C2.11787 0.949448 1.64377 -2.70711e-06 1.05894 -2.70711e-06C0.474103 -2.70711e-06 0 0.949448 0 2.12065C0 3.29184 0.474103 4.24128 1.05894 4.24128Z" transform="translate(138.127 189.159) rotate(-61.58)" fill="#8ED16F"/>
<path opacity="0.1" d="M1.05894 4.24128C1.64377 4.24128 2.11787 3.29184 2.11787 2.12065C2.11787 0.949448 1.64377 -2.70711e-06 1.05894 -2.70711e-06C0.474103 -2.70711e-06 0 0.949448 0 2.12065C0 3.29184 0.474103 4.24128 1.05894 4.24128Z" transform="translate(138.127 189.159) rotate(-61.58)" fill="black"/>
<path d="M5.16716 -4.73744e-06H-8.12133e-06V10.071H5.16716V-4.73744e-06Z" transform="translate(129.94 191.339) rotate(-79.49)" fill="#8ED16F"/>
<path opacity="0.05" d="M5.16716 -4.73744e-06H-8.12133e-06V10.071H5.16716V-4.73744e-06Z" transform="translate(129.94 191.339) rotate(-79.49)" fill="black"/>
<path d="M1.05893 4.24128C1.64377 4.24128 2.11787 3.29184 2.11787 2.12064C2.11787 0.949446 1.64377 -4.73744e-06 1.05893 -4.73744e-06C0.474101 -4.73744e-06 -2.03033e-06 0.949446 -2.03033e-06 2.12064C-2.03033e-06 3.29184 0.474101 4.24128 1.05893 4.24128Z" transform="translate(133.072 190.436) rotate(-79.49)" fill="#8ED16F"/>
<path opacity="0.1" d="M1.05893 4.24128C1.64377 4.24128 2.11787 3.29184 2.11787 2.12064C2.11787 0.949446 1.64377 -4.73744e-06 1.05893 -4.73744e-06C0.474101 -4.73744e-06 -2.03033e-06 0.949446 -2.03033e-06 2.12064C-2.03033e-06 3.29184 0.474101 4.24128 1.05893 4.24128Z" transform="translate(133.072 190.436) rotate(-79.49)" fill="black"/>
<path d="M5.16716 -4.73744e-06H0V10.071H5.16716V-4.73744e-06Z" transform="translate(130.868 194.389) rotate(-79.49)" fill="#8ED16F"/>
<path d="M1.05894 4.24128C1.64378 4.24128 2.11786 3.29184 2.11786 2.12064C2.11786 0.949446 1.64378 -4.73744e-06 1.05894 -4.73744e-06C0.474109 -4.73744e-06 5.41422e-06 0.949446 5.41422e-06 2.12064C5.41422e-06 3.29184 0.474109 4.24128 1.05894 4.24128Z" transform="translate(134.002 193.486) rotate(-79.49)" fill="#8ED16F"/>
<path opacity="0.1" d="M1.05894 4.24128C1.64378 4.24128 2.11786 3.29184 2.11786 2.12064C2.11786 0.949446 1.64378 -4.73744e-06 1.05894 -4.73744e-06C0.474109 -4.73744e-06 5.41422e-06 0.949446 5.41422e-06 2.12064C5.41422e-06 3.29184 0.474109 4.24128 1.05894 4.24128Z" transform="translate(134.002 193.486) rotate(-79.49)" fill="black"/>
<path d="M5.16715 6.76778e-06H6.76778e-06V10.071H5.16715V6.76778e-06Z" transform="translate(150.542 180.637) rotate(-61.58)" fill="#8ED16F"/>
<path d="M1.05893 4.24128C1.64376 4.24128 2.11787 3.29185 2.11787 2.12065C2.11787 0.949449 1.64376 0 1.05893 0C0.474097 0 -6.091e-06 0.949449 -6.091e-06 2.12065C-6.091e-06 3.29185 0.474097 4.24128 1.05893 4.24128Z" transform="translate(153.797 180.74) rotate(-61.58)" fill="#8ED16F"/>
<path opacity="0.1" d="M1.05893 4.24128C1.64376 4.24128 2.11787 3.29185 2.11787 2.12065C2.11787 0.949449 1.64376 0 1.05893 0C0.474097 0 -6.091e-06 0.949449 -6.091e-06 2.12065C-6.091e-06 3.29185 0.474097 4.24128 1.05893 4.24128Z" transform="translate(153.797 180.74) rotate(-61.58)" fill="black"/>
<path d="M5.16717 0H2.70711e-06V10.071H5.16717V0Z" transform="translate(145.615 182.923) rotate(-79.49)" fill="#8ED16F"/>
<path opacity="0.05" d="M5.16717 0H2.70711e-06V10.071H5.16717V0Z" transform="translate(145.615 182.923) rotate(-79.49)" fill="black"/>
<path d="M1.05893 4.24128C1.64376 4.24128 2.11787 3.29185 2.11787 2.12065C2.11787 0.94945 1.64376 0 1.05893 0C0.474095 0 -8.12133e-06 0.94945 -8.12133e-06 2.12065C-8.12133e-06 3.29185 0.474095 4.24128 1.05893 4.24128Z" transform="translate(148.746 182.02) rotate(-79.49)" fill="#8ED16F"/>
<path opacity="0.1" d="M1.05893 4.24128C1.64376 4.24128 2.11787 3.29185 2.11787 2.12065C2.11787 0.94945 1.64376 0 1.05893 0C0.474095 0 -8.12133e-06 0.94945 -8.12133e-06 2.12065C-8.12133e-06 3.29185 0.474095 4.24128 1.05893 4.24128Z" transform="translate(148.746 182.02) rotate(-79.49)" fill="black"/>
<path d="M5.16716 -3.38389e-06H-6.76778e-06V10.071H5.16716V-3.38389e-06Z" transform="translate(146.542 185.972) rotate(-79.49)" fill="#8ED16F"/>
<path d="M1.05894 4.24128C1.64377 4.24128 2.11787 3.29185 2.11787 2.12065C2.11787 0.94945 1.64377 0 1.05894 0C0.474103 0 0 0.94945 0 2.12065C0 3.29185 0.474103 4.24128 1.05894 4.24128Z" transform="translate(149.676 185.07) rotate(-79.49)" fill="#8ED16F"/>
<path opacity="0.1" d="M1.05894 4.24128C1.64377 4.24128 2.11787 3.29185 2.11787 2.12065C2.11787 0.94945 1.64377 0 1.05894 0C0.474103 0 0 0.94945 0 2.12065C0 3.29185 0.474103 4.24128 1.05894 4.24128Z" transform="translate(149.676 185.07) rotate(-79.49)" fill="black"/>
<defs>
<linearGradient id="paint0_linear" x2="1" gradientUnits="userSpaceOnUse" gradientTransform="translate(30.0785 98.4394) scale(98.4394) rotate(-90)">
<stop stop-color="#808080" stop-opacity="0.25"/>
<stop offset="0.54" stop-color="#808080" stop-opacity="0.12"/>
<stop offset="1" stop-color="#808080" stop-opacity="0.1"/>
</linearGradient>
<linearGradient id="paint1_linear" x2="1" gradientUnits="userSpaceOnUse" gradientTransform="translate(-161699 116008) scale(33206.3 -84533) rotate(90)">
<stop stop-color="#808080" stop-opacity="0.25"/>
<stop offset="0.54" stop-color="#808080" stop-opacity="0.12"/>
<stop offset="1" stop-color="#808080" stop-opacity="0.1"/>
</linearGradient>
</defs>
</svg>
