<svg width="10" height="14" viewBox="0 0 10 14" fill="none" xmlns="http://www.w3.org/2000/svg">
<path d="M8.819 10.1255L7 9.19715V9.00378C7.814 8.55957 8.3865 7.82805 8.706 6.82321C9.1905 6.56637 9.5 6.0662 9.5 5.50557V5.0059C9.5 4.5432 9.2845 4.11398 8.9245 3.83217C8.6125 1.94341 7.2935 0.986033 5 0.986033C4.8915 0.986033 4.7855 0.990031 4.682 0.998026C4.25 1.0335 3.6175 0.996027 3.07 0.628268C2.8655 0.490359 2.711 0.356446 2.6125 0.232027C2.4445 0.017668 2.162 -0.0572825 1.9115 0.0456501C1.6605 0.148583 1.513 0.399418 1.5445 0.668741C1.5655 0.855619 1.597 1.07298 1.6445 1.31132C1.741 1.7985 1.741 1.7985 1.6055 2.08981C1.5545 2.20024 1.4915 2.33465 1.4175 2.51603C1.252 2.92126 1.1345 3.36497 1.067 3.83866C0.712 4.12098 0.5 4.5477 0.5 5.0059V5.50557C0.5 6.0662 0.8095 6.56637 1.294 6.82321C1.6135 7.82855 2.186 8.56007 3 9.00378V9.19165L1.1155 10.12C0.4275 10.4948 0 11.2143 0 11.9978V12.6599C0 13.0611 0 14 5 14C10 14 10 13.0611 10 12.6599V12.0378C10 11.2228 9.5475 10.4908 8.819 10.1255ZM9 12.547C8.688 12.7368 7.419 13.0007 5 13.0007C2.581 13.0007 1.312 12.7368 1 12.547V11.9978C1 11.5806 1.2275 11.1968 1.576 11.0075L3.5045 10.0576C3.8055 9.91068 3.9995 9.59939 3.9995 9.2641V8.3632L3.6975 8.23328C2.939 7.9065 2.446 7.2834 2.19 6.32753L2.1185 6.06121L1.8555 5.97926C1.6465 5.9138 1.5 5.71943 1.5 5.50557V5.0059C1.5 4.82502 1.6035 4.65713 1.7705 4.56818L2.005 4.44327L2.0325 4.17894C2.082 3.71025 2.1865 3.27803 2.3435 2.89478C2.41 2.73239 2.4665 2.61097 2.5125 2.51153C2.682 2.14777 2.7435 1.95989 2.701 1.57465C3.289 1.91043 3.9955 2.05333 4.762 1.99487C4.8395 1.98838 4.919 1.98538 5.0005 1.98538C6.8725 1.98538 7.7865 2.66293 7.965 4.18294L7.996 4.44377L8.2285 4.56669C8.3955 4.65563 8.5 4.82402 8.5 5.0059V5.50557C8.5 5.71943 8.3535 5.9138 8.144 5.97876L7.881 6.06071L7.8095 6.32703C7.5535 7.2829 7.0605 7.906 6.302 8.23278L6 8.3632V9.2681C6 9.60238 6.185 9.90369 6.482 10.0551L8.3695 11.019C8.7585 11.2128 9 11.6036 9 12.0378V12.547Z" fill="#1D1D1B"/>
</svg>
