<svg width="187" height="147" viewBox="0 0 187 147" fill="none" xmlns="http://www.w3.org/2000/svg">
<path opacity="0.1" d="M15.299 54.0809C12.8612 54.8773 10.586 56.8047 9.97164 59.4782C9.27444 62.5498 10.8801 65.6539 11.1093 68.8035C11.8585 79.1413 -1.75085 86.4352 0.189626 96.5943C0.961591 100.626 4.07871 103.599 7.15194 106.045C12.0714 109.963 17.5288 113.423 23.5664 114.401C32.7389 115.885 42.3243 111.52 51.2417 114.28C58.4332 116.504 63.9361 123.028 71.0788 125.435C76.5167 127.268 82.3722 126.545 88.0263 125.804C91.067 125.406 94.2621 124.944 96.721 122.969C101.299 119.293 101.575 112.035 104.637 106.833C109.362 98.8029 119.721 97.2346 128.407 98.7948C137.094 100.355 145.524 104.202 154.324 103.877C156.205 103.81 158.134 103.532 159.772 102.536C161.766 101.324 163.115 99.1897 164.306 97.0769C171.73 83.9129 175.866 68.6004 176.16 53.1854C176.211 50.5218 176.125 47.7427 174.966 45.3845C173.503 42.4088 170.578 40.6325 167.652 39.4331C160.651 36.5695 152.917 36.1063 146.054 32.8559C139.434 29.7242 134.071 24.2294 128.308 19.5294C116.878 10.1927 103.443 3.73091 89.3817 0.797445C86.0712 0.106739 82.6355 -0.387318 79.3461 0.41065C75.5562 1.33051 72.2896 3.88368 69.3528 6.63025C61.5373 13.9436 55.2754 22.9602 48.0758 30.9723C43.1432 36.4579 37.7322 41.4937 31.9068 46.02C29.2366 48.0953 26.4088 50.5591 23.4396 52.0933C20.7239 53.4959 18.1707 53.1432 15.299 54.0809Z" transform="translate(0 20.1707)" fill="#E30613"/>
<path d="M142.293 67.6533C138.718 66.9057 131.949 65.5032 124.288 63.9495C112.945 61.6499 109.986 70.3544 109.986 70.3544C109.986 74.7879 95.1966 93.1785 95.1966 93.1785L90.7859 83.2974C91.4638 83.402 92.1564 83.3554 92.8141 83.1609C95.3397 82.4068 96.5878 79.5578 96.9925 76.9559C97.5964 73.037 97.0446 69.0271 95.4047 65.417C94.6522 63.7691 93.6771 62.2187 93.0725 60.5122C90.5226 53.3516 94.9399 45.0632 92.268 37.9302C91.1645 34.987 88.964 32.5996 87.4429 29.8498C84.03 23.6659 84.1762 15.93 80.4545 9.92331C76.9636 4.29203 70.0842 0.95389 63.4941 1.69823C59.6082 2.13703 56.8308 3.52494 53.2099 1.86075C50.1529 0.459832 46.4832 -1.10685 43.3352 1.10016C40.6504 2.98213 40.1937 6.68919 38.7278 9.6194C36.1535 14.7664 30.046 18.1256 29.3277 23.8349C29.1505 25.2424 29.3277 26.7018 28.9165 28.0604C27.7431 31.9008 22.6335 33.0351 20.5403 36.4627C18.4909 39.8171 20.5614 44.8893 24.3741 45.8563C25.9993 46.2691 27.748 46.0188 29.3716 46.456C30.8944 46.8623 32.3717 48.2859 32.1084 49.773L28.7312 50.3873L19.0142 51.4664L17.5109 51.5607C17.5109 51.5607 17.5109 51.5867 17.5109 51.6338L17.4297 51.6436L17.5093 51.7086C17.5093 51.824 17.5093 52.0044 17.5093 52.2416C14.7741 53.3126 10.3422 56.1713 8.66828 63.67C8.28478 65.3814 7.50988 66.9807 6.40439 68.3424C3.91297 71.414 -0.221513 77.4126 0.00926403 83.1706C0.334302 91.3811 0.334301 94.6656 11.1873 92.3659C13.929 91.7858 16.9112 90.5961 19.8382 89.1432C20.0089 92.5658 20.4525 95.9219 21.3789 98.4409C24.3384 106.487 18.0911 134.896 18.0911 134.896H78.423C78.423 134.896 73.3265 118.146 68.3956 109.608C64.9031 103.559 66.1935 99.9003 67.2434 98.28C68.1538 96.903 68.8339 95.3869 69.257 93.7912C69.4358 93.0908 69.6096 92.2961 69.7592 91.4152C70.8692 92.3237 72.0539 93.1395 73.3947 93.6271C74.6364 94.0773 76.0487 94.2008 77.3049 93.853C79.876 96.9961 82.7477 100.443 85.8209 104.025C97.6572 117.818 100.945 109.279 100.945 109.279C100.945 109.279 112.945 86.4551 114.597 79.5578C116.248 72.6605 119.857 72.9888 119.857 72.9888C129.751 75.49 138.521 71.8593 142.595 69.675C142.793 69.5699 142.954 69.406 143.055 69.2058C143.156 69.0056 143.192 68.779 143.159 68.5573C143.126 68.3355 143.025 68.1295 142.87 67.9676C142.715 67.8057 142.513 67.6959 142.293 67.6533ZM20.2218 71.7797C21.0472 70.8388 21.7566 69.8021 22.3345 68.6918H22.3654C22.0658 69.8397 21.6795 70.9632 21.2099 72.0527C20.2884 72.2298 19.7326 72.3225 19.7326 72.3225L20.2218 71.7797Z" transform="translate(22.5917 11.8639)" fill="url(#paint0_linear)"/>
<path d="M23.3349 1.0914C20.681 2.95387 20.2292 6.61705 18.7844 9.52289C16.2394 14.6162 10.2018 17.943 9.49158 23.5922C9.31606 24.9849 9.49158 26.4297 9.08529 27.7721C7.92652 31.5735 2.87381 32.6965 0.796817 36.0882C-1.2298 39.4069 0.817945 44.4271 4.58676 45.3843C6.19732 45.7939 7.92165 45.5468 9.52734 45.9775C11.133 46.4082 12.6883 47.9814 12.1569 49.5529C11.762 50.7231 10.3692 51.3894 10.1157 52.5985C9.89463 53.6387 10.6032 54.63 11.289 55.4394C12.1601 56.4632 13.0898 57.4709 14.255 58.1421C17.4599 59.9883 21.4579 58.8799 25.1535 58.758C29.6246 58.6253 34.0077 60.0187 37.5814 62.7088C38.6036 63.4841 39.5657 64.3795 40.1995 65.496C42.2652 69.1332 40.3117 73.6984 40.7505 77.8572C41.2478 82.5833 44.7777 86.3765 48.3417 89.518C49.7654 90.7726 51.2671 92.0094 53.0548 92.6579C54.8425 93.3063 56.9796 93.2705 58.4829 92.1134C60.0626 90.8978 60.6119 88.7444 60.6217 86.7503C60.6314 84.7562 60.2121 82.7718 60.3129 80.781C60.3617 79.8058 60.7176 78.6471 61.6683 78.4553C62.1445 78.3594 62.6272 78.5528 63.0611 78.7706C66.0937 80.295 69.0028 83.2805 72.2532 82.3119C74.7511 81.5659 75.9911 78.7462 76.3844 76.1703C76.9805 72.2935 76.435 68.3269 74.8145 64.755C74.0701 63.1298 73.1064 61.5907 72.5083 59.9005C69.9958 52.8001 74.3594 44.5945 71.7201 37.5395C70.6296 34.6272 68.4535 32.2642 66.9502 29.542C63.5698 23.4215 63.7209 15.7652 60.0399 9.8203C56.5896 4.24589 49.7865 0.943508 43.2728 1.67972C39.4308 2.11364 36.6859 3.48856 33.1056 1.84224C30.0827 0.459201 26.4553 -1.09936 23.3349 1.0914Z" transform="translate(42.1613 13.3337)" fill="#40243E"/>
<path d="M4.22549 0.2137C4.22549 0.2137 14.7892 -3.03668 19.0147 15.8155L29.741 39.8683C29.741 39.8683 44.3677 21.6662 44.3677 17.2782C44.3677 17.2782 47.293 8.66469 58.5068 10.94C66.0818 12.4774 72.7663 13.8653 76.3075 14.6048C76.5229 14.6496 76.7193 14.7595 76.87 14.9196C77.0208 15.0798 77.1187 15.2824 77.1505 15.5001C77.1822 15.7177 77.1463 15.9399 77.0475 16.1364C76.9488 16.333 76.792 16.4944 76.5984 16.5989C72.5712 18.7604 63.9008 22.3537 54.1188 19.8785C54.1188 19.8785 50.5434 19.5535 48.9182 26.3793C47.293 33.2051 35.4291 55.7952 35.4291 55.7952C35.4291 55.7952 32.1788 64.2462 20.4774 50.5946C8.77602 36.943 0 25.2416 0 25.2416L4.22549 0.2137Z" transform="translate(87.03 65.6925)" fill="#FFBCC8"/>
<path d="M44.3677 22.1026L42.9668 26.7165L41.5821 31.28L38.842 40.3047L25.8405 42.7425L21.6036 40.0398L16.4144 36.7293L11.9403 33.6414L5.36313 29.0909L0 17.8771C0 17.8771 1.47892 17.6154 6.08959 16.7768L12.514 15.6018C16.9507 14.7892 18.6279 11.4868 19.1399 8.12595C19.7526 4.10198 18.6897 0 18.6897 0H35.1041C35.1041 0 36.9406 2.76282 36.6529 7.53438C36.5626 8.94635 36.3157 10.3439 35.9167 11.7014C34.4735 16.6972 37.732 18.3646 39.9423 18.9058C40.54 19.0575 41.1514 19.1484 41.7674 19.1772L44.3677 22.1026Z" transform="translate(46.8878 46.0789)" fill="#FFBCC8"/>
<path opacity="0.1" d="M17.9632 7.53113C15.4478 9.39217 12.4265 10.4455 9.29919 10.5517C6.17192 10.6579 3.08612 9.81202 0.450176 8.12595C1.06287 4.10198 1.98387e-07 6.94356e-07 1.98387e-07 6.94356e-07H16.4144C16.4144 6.94356e-07 18.2558 2.75144 17.9632 7.53113Z" transform="translate(65.5726 46.0822)" fill="black"/>
<path d="M15.4393 30.8786C23.9662 30.8786 30.8786 23.9662 30.8786 15.4393C30.8786 6.91241 23.9662 0 15.4393 0C6.91241 0 0 6.91241 0 15.4393C0 23.9662 6.91241 30.8786 15.4393 30.8786Z" transform="translate(58.9142 25.2765)" fill="#FFBCC8"/>
<path opacity="0.1" d="M44.3677 5.32575L42.9668 9.93966L41.5821 14.5032L38.842 23.5279L25.8405 25.9657L21.6036 23.263L16.4144 19.9525L11.9403 16.8646L5.36313 12.3141L0 1.10025C0 1.10025 1.47892 0.8386 6.08959 1.78549e-06C9.33997 9.04418 13.4517 12.4116 17.162 13.5037C19.3804 14.1538 21.4541 13.9913 23.1069 13.7475C25.2314 13.4075 27.4037 13.5183 29.4826 14.0725C34.4719 15.4604 37.0982 12.8032 38.478 9.43098C39.4986 6.93631 39.8367 4.04835 39.9407 2.11762C40.5383 2.26928 41.1498 2.36021 41.7658 2.38903L44.3677 5.32575Z" transform="translate(46.8878 62.8557)" fill="black"/>
<path d="M0.653326 83.7753C0.653326 83.7753 6.82905 55.6595 3.90371 47.6961C3.06673 45.4208 2.62793 42.4435 2.43128 39.3621C1.94373 31.6798 2.92859 23.3182 2.92859 23.3182C3.06836 23.0468 3.2 22.777 3.32677 22.5056C3.6518 21.8122 3.93784 21.134 4.18487 20.4709C7.66765 11.1 3.33489 4.86094 1.13763 2.47516C0.785243 2.08367 0.405043 1.71814 1.78549e-06 1.38141L12.4327 -1.78549e-06C15.701 9.37897 19.8923 12.839 23.6628 13.9474C25.8811 14.5975 27.9549 14.4349 29.6077 14.1912C31.7322 13.8512 33.9044 13.9619 35.9833 14.5162C40.9727 15.9041 43.599 13.2469 44.9788 9.87465C46.6917 5.68816 46.4804 0.40142 46.4804 0.40142L53.6313 2.51417C53.6313 2.51417 53.0007 6.43088 52.4303 11.5779C52.2954 12.7854 52.1637 14.0595 52.0451 15.3678C51.5575 20.8252 51.2682 26.8595 51.8436 30.955C52.4281 35.0021 52.22 39.1242 51.2309 43.0919C50.8133 44.6711 50.1414 46.1719 49.2416 47.5352C48.2031 49.1376 46.9274 52.7602 50.3793 58.749C55.2548 67.2 60.2929 83.7769 60.2929 83.7769L0.653326 83.7753Z" transform="translate(39.8963 63.0654)" fill="#FF808E"/>
<path d="M7.10896 0C7.10896 0 13.0133 9.26358 5.266 17.227C-2.48129 25.1904 0.608205 13.9766 0.608205 13.9766L2.55843 0.975114L7.10896 0Z" transform="translate(86.3406 65.6625)" fill="#FF808E"/>
<path opacity="0.1" d="M1.78549e-06 0.302285C0.440652 0.162885 0.892503 0.0617508 1.35053 2.38065e-06C3.46328 1.00762 4.63342 3.80457 5.26886 6.72503C5.693 8.70582 5.71491 10.7516 5.33327 12.741C4.95164 14.7304 4.17425 16.6229 3.04723 18.3061C6.53001 8.92717 2.19726 2.68806 1.78549e-06 0.302285Z" transform="translate(41.0339 65.2383)" fill="black"/>
<path opacity="0.1" d="M49.7526 5.71751C46.2828 5.94666 41.7501 5.54036 41.7501 5.54036C42.3612 8.33569 41.1 10.5199 39.7999 11.9436C39.3027 12.4943 38.6752 12.9112 37.975 13.1563C37.2748 13.4013 36.5242 13.4666 35.7922 13.3462C28.2936 12.046 16.8912 18.8718 16.8912 18.8718C16.8912 18.8718 8.73601 25.4587 0.13551 29.7151C-0.352047 22.0328 0.632817 13.6712 0.632817 13.6712C0.772584 13.3998 0.904226 13.13 1.03099 12.8586C4.50565 12.2085 17.1301 9.64072 19.6475 5.87028C20.0213 5.30959 20.6227 4.78465 21.3702 4.2971C23.5204 2.90593 26.9609 1.81543 30.2324 1.01909C34.3041 0.0202864 38.5209 -0.247148 42.6862 0.229245C44.4744 0.434097 46.2437 0.779158 47.9778 1.26124C48.7352 1.47089 49.4665 1.69679 50.1377 1.93244C51.9774 2.58252 53.3719 3.30898 53.614 4.08257C53.9407 5.12269 52.0863 5.56474 49.7526 5.71751Z" transform="translate(42.192 72.7173)" fill="black"/>
<path opacity="0.1" d="M29.6418 5.7862C27.1407 5.74394 24.9515 5.5473 24.9515 5.5473C25.5626 8.34262 24.3015 10.5269 23.0013 11.9505C22.5041 12.5012 21.8767 12.9182 21.1764 13.1632C20.4762 13.4083 19.7256 13.4736 18.9936 13.3531C16.1674 12.8655 12.7854 13.5302 9.66988 14.546L4.47415 11.2355L1.98387e-07 8.1476C1.30015 7.45039 2.30614 6.68493 2.84896 5.87233C4.29213 3.70758 9.02468 2.09702 13.4338 1.02114C19.2201 -0.405573 25.2744 -0.336219 31.0265 1.22267L31.1793 1.2633C34.0055 2.05152 36.4855 3.02825 36.8154 4.08463C37.29 5.60418 33.1587 5.84796 29.6418 5.7862Z" transform="translate(58.8281 71.5728)" fill="black"/>
<path d="M19.5585 -7.9355e-07C19.5585 -7.9355e-07 11.0572 0.864601 8.57876 11.885C8.1956 13.5981 7.42257 15.1998 6.31975 16.5656C3.85596 19.6095 -0.218389 25.5366 0.00913786 31.2264C0.334176 39.3524 0.334176 42.6027 11.0604 40.3275C21.7867 38.0522 36.2509 26.3508 36.2509 26.3508C36.2509 26.3508 47.6532 19.5364 55.1518 20.8252C55.8839 20.9454 56.6343 20.8799 57.3345 20.6349C58.0347 20.3899 58.6622 19.973 59.1595 19.4226C60.4597 17.999 61.729 15.8147 61.1098 13.0194C61.1098 13.0194 73.7863 14.157 72.9737 11.5567C72.6486 10.5004 70.1637 9.52361 67.3375 8.73702C61.5406 7.13887 55.4306 7.05493 49.5921 8.49324C45.1748 9.57074 40.4504 11.1813 39.0072 13.3444C36.0819 17.7324 19.5049 20.4953 19.5049 20.4953L19.9925 19.9476C21.5668 18.1696 22.7022 16.0471 23.3073 13.7507C23.9125 11.4543 23.9706 9.04797 23.4769 6.72504C22.8431 3.80457 21.6778 1.00762 19.5585 -7.9355e-07Z" transform="translate(22.6634 64.4225)" fill="#FFBCC8"/>
<path d="M0.00674819 0.325038C0.00674819 0.325038 -0.480809 19.9898 6.83255 17.0645C14.1459 14.1392 8.45774 0.325038 8.45774 0.325038L5.20736 0L0.00674819 0.325038Z" transform="translate(39.974 64.0372)" fill="#FF808E"/>
<path opacity="0.1" d="M4.41873 18.4054C9.24048 17.8701 13.9957 16.8481 18.6115 15.3549C19.7979 14.9714 21.0867 14.4611 21.6409 13.3462C21.7839 13.0585 21.8911 12.7172 22.1723 12.5596C22.4112 12.4247 22.707 12.467 22.9751 12.5287C24.5597 12.9041 25.92 13.8971 27.4298 14.5066C28.9396 15.116 30.8622 15.259 32.0226 14.1149C33.3926 12.7627 32.9392 10.4387 32.0372 8.7404C28.6877 2.42166 20.8413 -0.463056 13.7034 0.0602551C12.7007 0.133389 11.6817 0.268279 10.7781 0.710331C8.86687 1.62856 7.82026 3.67143 6.78501 5.52252C4.7714 9.11256 -5.87522 19.5447 4.41873 18.4054Z" transform="translate(57.4485 22.5753)" fill="black"/>
<path d="M4.41873 18.4054C9.24048 17.8701 13.9957 16.8481 18.6115 15.3549C19.7979 14.9714 21.0867 14.4611 21.6409 13.3462C21.7839 13.0585 21.8911 12.7172 22.1723 12.5596C22.4112 12.4247 22.707 12.467 22.9751 12.5287C24.5597 12.9041 25.92 13.8971 27.4298 14.5066C28.9396 15.116 30.8622 15.259 32.0226 14.1149C33.3926 12.7627 32.9392 10.4387 32.0372 8.7404C28.6877 2.42166 20.8413 -0.463056 13.7034 0.0602551C12.7007 0.133389 11.6817 0.268279 10.7781 0.710331C8.86687 1.62856 7.82026 3.67143 6.78501 5.52252C4.7714 9.11256 -5.87522 19.5447 4.41873 18.4054Z" transform="translate(57.4485 22.0878)" fill="#40243E"/>
<path d="M34.4947 0H1.5033C1.1046 0 0.722233 0.158382 0.440309 0.440306C0.158386 0.72223 -1.5871e-06 1.1046 -1.5871e-06 1.5033V20.8431C-1.5871e-06 21.2418 0.158386 21.6241 0.440309 21.9061C0.722233 22.188 1.1046 22.3464 1.5033 22.3464H34.4947C34.8934 22.3464 35.2757 22.188 35.5577 21.9061C35.8396 21.6241 35.998 21.2418 35.998 20.8431V1.5033C35.998 1.1046 35.8396 0.72223 35.5577 0.440306C35.2757 0.158382 34.8934 0 34.4947 0Z" transform="translate(132.127 57.699)" fill="url(#paint1_linear)"/>
<path d="M33.2221 0H1.9356C0.866593 0 0 0.866598 0 1.9356V19.8858C0 20.9548 0.866593 21.8214 1.9356 21.8214H33.2221C34.2911 21.8214 35.1577 20.9548 35.1577 19.8858V1.9356C35.1577 0.866598 34.2911 0 33.2221 0Z" transform="translate(132.545 57.9623)" fill="#E30613"/>
<path d="M35.1577 0H0V4.00122H35.1577V0Z" transform="translate(132.545 61.7815)" fill="#E30613"/>
<path opacity="0.3" d="M35.1577 0H0V4.00122H35.1577V0Z" transform="translate(132.545 61.7815)" fill="black"/>
<path d="M28.4896 0H0V1.94048H28.4896V0Z" transform="translate(135.878 68.752)" fill="#D6D6E3"/>
<path d="M2.78883 5.57765C4.32905 5.57765 5.57766 4.32905 5.57766 2.78883C5.57766 1.2486 4.32905 0 2.78883 0C1.2486 0 3.57097e-06 1.2486 3.57097e-06 2.78883C3.57097e-06 4.32905 1.2486 5.57765 2.78883 5.57765Z" transform="translate(135.454 72.7516)" fill="#E30613"/>
<path opacity="0.3" d="M2.78883 5.57765C4.32905 5.57765 5.57766 4.32905 5.57766 2.78883C5.57766 1.2486 4.32905 0 2.78883 0C1.2486 0 3.57097e-06 1.2486 3.57097e-06 2.78883C3.57097e-06 4.32905 1.2486 5.57765 2.78883 5.57765Z" transform="translate(135.454 72.7516)" fill="black"/>
<path opacity="0.05" d="M4.71305 0C4.71305 0 1.62519 1.63982 1.11326 3.64368C0.601321 5.64754 0 6.0132 0 6.0132" transform="translate(36.4054 85.0022)" fill="black"/>
<path opacity="0.05" d="M0.650076 0C0.650076 0 -0.812595 5.03809 0.650076 5.68816V0Z" transform="translate(116.202 105.48)" fill="black"/>
<path opacity="0.05" d="M0 2.92534C0 2.92534 12.6765 5.68816 22.1026 0H26.1656C26.1656 0 38.3545 6.17572 44.2052 4.38801" transform="translate(43.8812 108.242)" fill="black"/>
<path d="M6.14485 -1.98387e-06H3.57097e-06V11.9744H6.14485V-1.98387e-06Z" transform="translate(173.777 32.3579) rotate(113.58)" fill="#8ED16F"/>
<path opacity="0.1" d="M1.26114 5.04134C1.95766 5.04134 2.52229 3.9128 2.52229 2.52067C2.52229 1.12855 1.95766 0 1.26114 0C0.564632 0 -4.36452e-06 1.12855 -4.36452e-06 2.52067C-4.36452e-06 3.9128 0.564632 5.04134 1.26114 5.04134Z" transform="translate(169.909 32.559) rotate(113.58)" fill="black"/>
<path d="M6.14485 0H-3.1742e-06V11.9744H6.14485V0Z" transform="translate(157.683 52.4224) rotate(113.58)" fill="#8ED16F"/>
<path opacity="0.1" d="M1.26115 5.04134C1.95766 5.04134 2.5223 3.9128 2.5223 2.52067C2.5223 1.12854 1.95766 -2.38065e-06 1.26115 -2.38065e-06C0.564635 -2.38065e-06 0 1.12854 0 2.52067C0 3.9128 0.564635 5.04134 1.26115 5.04134Z" transform="translate(153.815 52.6234) rotate(113.58)" fill="black"/>
<path d="M6.14484 2.77742e-06H6.3484e-06V11.9744H6.14484V2.77742e-06Z" transform="translate(141.761 36.4895) rotate(168.91)" fill="#8ED16F"/>
<path opacity="0.1" d="M1.26114 5.04134C1.95766 5.04134 2.52229 3.9128 2.52229 2.52067C2.52229 1.12854 1.95766 0 1.26114 0C0.56463 0 -6.3484e-06 1.12854 -6.3484e-06 2.52067C-6.3484e-06 3.9128 0.56463 5.04134 1.26114 5.04134Z" transform="translate(139.393 33.4215) rotate(168.91)" fill="black"/>
<path d="M6.14485 -4.36452e-06H3.57097e-06V11.9744H6.14485V-4.36452e-06Z" transform="translate(159.884 4.79016) rotate(113.58)" fill="#8ED16F"/>
<path opacity="0.1" d="M1.26114 5.04134C1.95766 5.04134 2.52229 3.9128 2.52229 2.52067C2.52229 1.12854 1.95766 0 1.26114 0C0.564632 0 -4.36452e-06 1.12854 -4.36452e-06 2.52067C-4.36452e-06 3.9128 0.564632 5.04134 1.26114 5.04134Z" transform="translate(156.012 4.99048) rotate(113.58)" fill="black"/>
<path d="M6.14484 -2.77742e-06H-2.38065e-06V11.9744H6.14484V-2.77742e-06Z" transform="translate(187 10.1123) rotate(113.58)" fill="#8ED16F"/>
<path opacity="0.1" d="M1.26115 5.04133C1.95766 5.04133 2.5223 3.9128 2.5223 2.52067C2.5223 1.12855 1.95766 1.98387e-06 1.26115 1.98387e-06C0.564636 1.98387e-06 0 1.12855 0 2.52067C0 3.9128 0.564636 5.04133 1.26115 5.04133Z" transform="translate(183.13 10.3127) rotate(113.58)" fill="black"/>
<defs>
<linearGradient id="paint0_linear" x2="1" gradientUnits="userSpaceOnUse" gradientTransform="translate(4.13237 134.896) scale(134.891) rotate(-90)">
<stop stop-color="#808080" stop-opacity="0.25"/>
<stop offset="0.54" stop-color="#808080" stop-opacity="0.12"/>
<stop offset="1" stop-color="#808080" stop-opacity="0.1"/>
</linearGradient>
<linearGradient id="paint1_linear" x2="1" gradientUnits="userSpaceOnUse" gradientTransform="translate(32864.9 10151.1) scale(4950.08 3072.85) rotate(-90)">
<stop stop-color="#808080" stop-opacity="0.25"/>
<stop offset="0.54" stop-color="#808080" stop-opacity="0.12"/>
<stop offset="1" stop-color="#808080" stop-opacity="0.1"/>
</linearGradient>
</defs>
</svg>
