<svg width="186" height="163" viewBox="0 0 186 163" fill="none" xmlns="http://www.w3.org/2000/svg">
<path opacity="0.1" d="M0.0825594 83.8711C0.64546 90.1357 4.17283 95.808 6.32994 101.775C9.38144 110.249 9.66925 119.479 7.15169 128.128C6.63809 129.906 6.00534 131.689 6.00329 133.51C6.00329 139.787 13.1217 143.952 19.5889 146.72C36.0259 153.732 53.1694 158.936 70.7205 162.243C76.4604 163.33 83.6282 163.803 87.2603 159.706C89.0024 157.739 89.4256 155.165 90.7055 152.964C93.9699 147.337 101.912 145.151 109.041 143.898C117.636 142.389 126.313 141.385 135.025 140.893C143.795 140.398 153.755 139.968 159.566 134.18C163.264 130.502 164.337 125.426 164.482 120.633C164.965 104.907 157.485 87.8879 167.085 74.2666C171.112 68.553 177.682 64.3814 181.672 58.6534C187.455 50.3514 186.955 39.8077 183.04 30.9608C179.124 22.1139 172.186 14.5921 165.352 7.22314C150.326 -8.98549 111.574 5.8701 96.3797 15.0029C89.2017 19.3149 83.207 24.9108 76.8035 30.0485C62.9713 41.1598 46.9451 51.4247 28.6796 55.8111C13.8408 59.3779 -1.25279 68.9927 0.0825594 83.8711Z" transform="translate(0 163) scale(1 -1)" fill="#E30613"/>
<path d="M143.568 2.93341e-06H0V81.6488H143.568V2.93341e-06Z" transform="translate(22.0667 39.3496)" fill="url(#paint0_linear)"/>
<path d="M140.122 0H0V67.8518H140.122V0Z" transform="translate(23.5993 51.2345)" fill="white"/>
<path d="M48.6206 0H0V51.3669H48.6206V0Z" transform="translate(33.1688 56.9846)" fill="url(#paint1_linear)"/>
<path opacity="0.8" d="M45.9429 3.35247e-06H2.09264e-06V49.0668H45.9429V3.35247e-06Z" transform="translate(34.7005 58.1346)" fill="#E30613"/>
<path d="M140.122 3.35247e-06H0V10.3503H140.122V3.35247e-06Z" transform="translate(23.5993 40.8842)" fill="#2F4F7C"/>
<path d="M53.2149 0H0V3.45009H53.2149V0Z" transform="translate(99.4016 72.5083)" fill="#E2E2EC"/>
<path d="M53.2149 0H0V3.45009H53.2149V0Z" transform="translate(99.4016 87.0742)" fill="#E2E2EC"/>
<path d="M31.3921 2.09529e-06H4.18527e-06V3.45009H31.3921V2.09529e-06Z" transform="translate(99.0213 79.793)" fill="#E2E2EC"/>
<path d="M21.4389 0H4.18527e-06V3.45009H21.4389V0Z" transform="translate(99.0213 94.3589)" fill="#E2E2EC"/>
<path d="M21.4389 0H5.02233e-06V3.45009H21.4389V0Z" transform="translate(124.286 94.3589)" fill="#E2E2EC"/>
<path d="M13.7143 23.3624V21.6219C16.2999 20.9535 18.5533 19.3638 20.052 17.1508C21.5507 14.9379 22.1919 12.2536 21.8555 9.60116C21.519 6.9487 20.2279 4.51017 18.2242 2.74266C16.2206 0.975142 13.6418 2.37091e-06 10.9715 2.37091e-06C8.30109 2.37091e-06 5.72238 0.975142 3.71871 2.74266C1.71503 4.51017 0.423957 6.9487 0.087478 9.60116C-0.249001 12.2536 0.392221 14.9379 1.89095 17.1508C3.38969 19.3638 5.64303 20.9535 8.22861 21.6219V23.3624C5.97082 23.9734 3.97607 25.3103 2.55127 27.1674C1.12646 29.0245 0.350551 31.2988 0.342884 33.6406V38.4467H21.6001V33.6406C21.5924 31.2988 20.8165 29.0245 19.3917 27.1674C17.9669 25.3103 15.9721 23.9734 13.7143 23.3624Z" transform="translate(45.8952 69.0054)" fill="white"/>
<path d="M11.6572 23.3439C18.0952 23.3439 23.3143 18.1182 23.3143 11.672C23.3143 5.22572 18.0952 2.93341e-06 11.6572 2.93341e-06C5.21909 2.93341e-06 0 5.22572 0 11.672C0 18.1182 5.21909 23.3439 11.6572 23.3439Z" transform="translate(45.2096 66.8989)" fill="white"/>
<path d="M10.0834 4.82326C11.0194 4.58982 12 4.47997 12.8743 4.07489C13.6421 3.70523 14.2909 3.12746 14.7473 2.40718C15.2036 1.6869 15.4492 0.852961 15.456 4.19059e-06C15.9629 0.69404 16.3532 1.46631 16.6114 2.28633C16.7773 2.717 16.8189 3.18569 16.7315 3.6389C16.6821 3.86364 16.5611 4.06621 16.3867 4.21607C16.2123 4.36592 15.9939 4.45493 15.7646 4.46966C16.6697 4.64817 17.6435 4.81296 18.4869 4.44907C19.3303 4.08518 19.8857 2.92141 19.3132 2.19707C19.8377 2.73518 20.2709 3.35559 20.5955 4.03369C20.7545 4.37471 20.8288 4.74915 20.8121 5.12513C20.7954 5.50112 20.6881 5.86748 20.4995 6.193C19.9817 6.96884 18.9395 7.18856 18.0069 7.1714C18.8275 7.22175 19.6503 7.24234 20.4755 7.23319C20.9375 7.26922 21.4 7.16896 21.8057 6.94481C22.1863 6.68391 22.3817 6.10032 22.08 5.75016C22.5213 6.74349 22.6613 7.84475 22.4827 8.91709C22.3041 9.98943 21.8147 10.9856 21.0755 11.7818C20.1017 12.7945 18.7235 13.4433 18.0377 14.6689C17.6229 15.407 17.5132 16.2721 17.256 17.0719C16.9508 18.0347 16.4395 18.9192 15.7577 19.6638C15.0316 20.5228 14.01 21.0778 12.8949 21.2189C11.3623 21.3357 9.94629 20.3676 8.89715 19.2416C7.848 18.1156 7.008 16.7836 5.81143 15.8086C4.09714 14.4011 1.60801 14.0681 9.2076e-06 12.592C0.922296 10.8549 2.97944 9.13502 4.47773 7.86827C6.08864 6.43666 8.00656 5.39485 10.0834 4.82326Z" transform="translate(47.4686 61.571)" fill="white"/>
<path d="M15.7715 31.5829C24.4818 31.5829 31.5429 24.5129 31.5429 15.7915C31.5429 7.07008 24.4818 2.93341e-06 15.7715 2.93341e-06C7.06112 2.93341e-06 0 7.07008 0 15.7915C0 24.5129 7.06112 31.5829 15.7715 31.5829Z" transform="translate(140.524 30.1665)" fill="url(#paint2_linear)"/>
<path d="M14.4 28.8366C22.3529 28.8366 28.8 22.3813 28.8 14.4183C28.8 6.45529 22.3529 2.93341e-06 14.4 2.93341e-06C6.44711 2.93341e-06 0 6.45529 0 14.4183C0 22.3813 6.44711 28.8366 14.4 28.8366Z" transform="translate(141.895 31.5398)" fill="white"/>
<path d="M24.5795 3.15143L19.5292 0L9.82287 15.4997L3.264 11.4626L9.2076e-06 16.6943L9.53145 22.4685L11.904 23.9859L24.5795 3.15143Z" transform="translate(146.126 28.9513)" fill="url(#paint3_linear)"/>
<path d="M23.6778 2.78067L19.104 -2.51435e-06L9.50744 15.8155L2.78057 11.7234L4.18527e-06 16.303L9.01372 21.7751L11.3211 23.1448L23.6778 2.78067Z" transform="translate(146.678 29.2706)" fill="#39B200"/>
<defs>
<linearGradient id="paint0_linear" x2="1" gradientUnits="userSpaceOnUse" gradientTransform="translate(76873.6 45407.3) scale(34146.3 19419.3) rotate(-90)">
<stop stop-color="#808080" stop-opacity="0.25"/>
<stop offset="0.54" stop-color="#808080" stop-opacity="0.12"/>
<stop offset="1" stop-color="#808080" stop-opacity="0.1"/>
</linearGradient>
<linearGradient id="paint1_linear" x2="1" gradientUnits="userSpaceOnUse" gradientTransform="translate(23020.7 26674.3) scale(7275.11 7686.03) rotate(-90)">
<stop stop-color="#808080" stop-opacity="0.25"/>
<stop offset="0.54" stop-color="#808080" stop-opacity="0.12"/>
<stop offset="1" stop-color="#808080" stop-opacity="0.1"/>
</linearGradient>
<linearGradient id="paint2_linear" x2="1" gradientUnits="userSpaceOnUse" gradientTransform="translate(24934.7 12113.3) scale(2901.95 2905.63) rotate(-90)">
<stop stop-color="#808080" stop-opacity="0.25"/>
<stop offset="0.54" stop-color="#808080" stop-opacity="0.12"/>
<stop offset="1" stop-color="#808080" stop-opacity="0.1"/>
</linearGradient>
<linearGradient id="paint3_linear" x2="1" gradientUnits="userSpaceOnUse" gradientTransform="translate(24360.8 24903.1) scale(1650.02 1610.17) rotate(-90)">
<stop stop-opacity="0.12"/>
<stop offset="0.55" stop-opacity="0.09"/>
<stop offset="1" stop-opacity="0.02"/>
</linearGradient>
</defs>
</svg>
