<svg width="32" height="20" viewBox="0 0 32 20" fill="none" xmlns="http://www.w3.org/2000/svg">
<path d="M0.00620842 10.0128C-0.191771 4.85706 4.37394 0.0925787 9.59174 0.0307352C12.2511 -0.193526 14.8384 0.82784 16.8509 2.49381C16.0263 3.3917 15.1863 4.27957 14.2881 5.10992C12.7379 4.17836 10.9109 3.44067 9.09114 3.75358C8.83117 3.79833 8.57136 3.8645 8.31253 3.95452C4.97271 4.89515 2.95008 8.79551 4.18602 12.0272C5.20958 15.4023 9.3601 17.2547 12.613 15.8368L12.6142 15.8364C14.1926 15.2768 15.2669 13.8912 15.7965 12.3595C15.8318 12.2574 15.8647 12.1546 15.8951 12.0514C15.0287 12.0345 14.1618 12.0298 13.2948 12.0252C12.2311 12.0195 11.1675 12.0138 10.1035 11.9844C10.0987 10.8484 10.0939 9.71662 10.0987 8.58064L11.1703 8.57895C14.0333 8.57421 16.8997 8.56956 19.766 8.59489C19.964 11.3784 19.5488 14.3571 17.7193 16.5911L17.7184 16.5922C15.5263 19.3816 11.7094 20.4466 8.26745 19.8313C7.77568 19.7434 7.29156 19.6212 6.82091 19.4648C2.82511 18.1667 -0.0807776 14.1851 0.00620842 10.0128Z" fill="white"/>
<path d="M28.9123 5.71643C28.914 6.03124 28.9162 6.34668 28.9185 6.66223C28.9196 6.81019 28.9208 6.95815 28.9219 7.10611L28.9221 7.14305C28.9232 7.28288 28.9242 7.42271 28.9253 7.56255C28.9278 7.8991 28.9301 8.23544 28.932 8.57115C29.8874 8.58022 30.848 8.58497 31.8039 8.58961L31.8182 8.59014V11.4354L28.932 11.4496C28.932 11.4529 28.9319 11.456 28.9319 11.4593C28.9231 12.3327 28.9183 13.2025 28.9136 14.0756L28.9123 14.3091C28.2719 14.3059 27.6312 14.307 26.9919 14.308C26.6725 14.3081 26.3538 14.3087 26.0357 14.3091C26.0309 13.8326 26.0285 13.3575 26.0261 12.8829V12.8797C26.0237 12.4043 26.0213 11.9294 26.0165 11.4544C25.0607 11.4444 24.0997 11.4397 23.1434 11.435L23.1303 11.4349V8.58972C24.0909 8.58455 25.0515 8.5798 26.0165 8.57072C26.0213 7.62101 26.0309 6.66614 26.041 5.716C26.9963 5.716 27.9521 5.716 28.9123 5.71643Z" fill="white"/>
</svg>
