<svg width="122" height="40" viewBox="0 0 122 40" fill="none" xmlns="http://www.w3.org/2000/svg">
<path d="M13.5865 10.4943C9.40816 10.4943 6.00506 7.1158 6.00506 2.96076H6.00192C5.98995 1.32358 4.65168 0 3.00155 0C1.35142 0 0.0131492 1.32358 0.00117754 2.96076H0C0 10.3771 6.06649 16.4614 13.5865 16.4614C17.7636 16.4614 21.1679 19.8389 21.1679 23.995C21.1679 28.1488 17.7667 31.5285 13.5865 31.5285C6.36755 31.5285 3.24825 22.3898 8.976 18.0189C6.9208 17.3967 5.04262 16.3696 3.4341 15.0316C1.29942 17.4168 0 20.5586 0 23.995C0 31.439 6.09515 37.4957 13.5865 37.4957C25.2755 37.4957 31.5067 23.7112 23.7388 15.0316C21.2291 12.229 17.5934 10.4943 13.5865 10.4943Z" fill="#E30613"/>
<path d="M27.1729 2.96076H27.1718C27.1598 1.32358 25.8217 0 24.1714 0C22.5211 0 21.183 1.32358 21.171 2.96076H21.1679C21.1679 5.39243 20.0021 7.55908 18.1969 8.93688C20.2513 9.55898 22.1303 10.5859 23.7388 11.9242C25.9544 9.4486 27.1729 6.27567 27.1729 2.96076Z" fill="#E30613"/>
<path d="M41.093 0.62744C40.3928 1.25696 40.5518 1.44281 40.5518 5.94811H37.1565C37.1565 1.44534 37.312 1.26066 36.6284 0.630365C35.5005 -0.406934 33.6239 0.367286 33.6239 1.79423V13.3783C33.6239 13.8258 33.8003 14.2194 34.1481 14.5482C35.2807 15.6194 37.1565 14.8076 37.1565 13.3783V9.2244H40.5518C40.5518 13.7248 40.3936 13.9095 41.0893 14.5515C42.2496 15.6218 44.0844 14.7885 44.0844 13.3783V1.79423C44.0844 0.415455 42.2619 -0.422925 41.093 0.62744Z" fill="#E30613"/>
<path d="M54.9042 0.596162C53.3053 -0.0776241 49.9407 -0.217257 48.183 1.81229C46.6292 3.6045 46.9103 5.62664 46.9103 9.51646C46.9103 16.9451 57.9007 16.9283 57.9007 9.51646C57.9007 5.71849 58.4563 2.09409 54.9042 0.596162ZM52.4055 11.7789C51.0005 11.7789 50.4429 10.8541 50.4429 9.51666V5.65531C50.4429 3.81415 51.3119 3.41261 52.4055 3.41261C53.5626 3.41261 54.368 3.86856 54.368 5.65531V9.51666C54.368 10.8566 53.8087 11.7789 52.4055 11.7789Z" fill="#E30613"/>
<path d="M69.1509 7.27728C70.3329 6.48804 70.7555 5.64401 70.7555 4.54372C70.7555 2.32091 69.062 0.331335 65.9472 0.331335C62.4012 0.331335 62.0101 0.192678 61.2898 0.829995C60.9032 1.17245 60.7071 1.60831 60.7071 2.12569V13.0662C60.7071 13.5522 60.8965 13.9785 61.27 14.333C61.9863 15.0134 62.4579 14.8603 65.8687 14.8603C71.157 14.8601 72.9019 9.30995 69.1509 7.27728ZM66.8647 5.44236C66.4396 5.79163 66.1372 5.71382 64.2396 5.71382V3.56863C66.3167 3.56863 66.7514 3.49394 66.9924 3.82566C67.3247 4.28454 67.3155 5.0726 66.8647 5.44236ZM64.2396 11.6032V8.98992H66.1629C67.8054 8.98992 67.8556 10.6852 67.2388 11.2603C66.7823 11.6862 66.1085 11.6032 64.2396 11.6032Z" fill="#E30613"/>
<path d="M77.1332 13.3975V1.79397C77.1332 0.892205 76.3443 0.155818 75.3669 0.155818C74.3797 0.155818 73.6006 0.902346 73.6006 1.79397V13.3975C73.6006 13.8474 73.7782 14.2388 74.1285 14.5612C75.2568 15.5993 77.1332 14.8243 77.1332 13.3975Z" fill="#E30613"/>
<path d="M43.6766 23.6939C43.2028 22.438 41.4842 22.1597 40.61 23.305L37.1565 27.9035C37.1565 23.9415 37.3117 23.6866 36.6284 23.0569C35.4985 22.0177 33.6239 22.7954 33.6239 24.2208V35.8047C33.6239 36.2522 33.8003 36.6458 34.1481 36.9748C35.277 38.0423 37.1565 37.2382 37.1565 35.8047V32.1473L40.6118 36.7425C41.955 38.5037 44.6835 36.7271 43.5131 34.8939L39.8074 30.0134L43.4944 25.1781C43.8224 24.7087 43.8699 24.2054 43.6766 23.6939Z" fill="#E30613"/>
<path d="M50.816 22.7584C47.8003 22.7584 47.3102 22.6076 46.5837 23.2826C46.2016 23.6375 46.0077 24.0648 46.0077 24.5525V35.7855C46.0077 36.2475 46.1884 36.6489 46.5452 36.9783C47.7255 38.0671 49.5403 37.185 49.5403 35.7855V32.6068C50.8276 32.6068 53.0249 32.7944 54.7132 31.3417C57.2224 29.1838 57.0923 22.7584 50.816 22.7584ZM52.6804 27.6921C52.6804 29.5389 51.2786 29.3498 49.5403 29.3498V26.015C51.3531 26.0152 52.6804 25.8461 52.6804 27.6921Z" fill="#E30613"/>
<path d="M67.3017 34.4752C66.6254 33.8995 66.3872 34.0304 62.1987 34.0304V31.6317H65.5154C67.1469 31.6317 67.8448 29.7698 66.6994 28.8166C66.0117 28.245 65.7525 28.3747 62.1985 28.3747V26.015C66.1593 26.015 66.4518 26.1419 67.1145 25.5803C67.7983 25.0005 67.8705 23.9456 67.1302 23.2457C66.4496 22.6025 66.3287 22.758 60.5695 22.758C59.425 22.758 58.6659 23.6913 58.6659 24.5326V35.5121C58.6659 36.8123 59.7117 37.287 60.8836 37.287C66.5619 37.287 66.6531 37.4295 67.3227 36.8123C68.0214 36.1695 68.0471 35.11 67.3017 34.4752Z" fill="#E30613"/>
<path d="M81.255 34.07V24.5523C81.255 23.5874 80.4041 22.7582 79.3317 22.7582C73.5149 22.7582 73.3675 22.6008 72.6592 23.2886C72.3018 23.6359 72.104 24.0523 72.0708 24.532C71.81 29.5075 71.8702 32.676 70.8725 34.0394C69.8945 34.1318 69.3228 34.9979 69.3228 35.8635C69.3228 38.5351 69.1884 38.9337 69.8415 39.5334C70.9101 40.5153 72.8162 39.8639 72.8162 38.3596V37.287H79.0179V38.3596C79.0179 39.2886 79.7902 39.9975 80.7646 39.9975C81.7506 39.9975 82.5505 39.3033 82.5505 38.3596C82.5505 35.6872 82.6577 35.3081 82.1376 34.6236C81.9172 34.3346 81.6165 34.147 81.255 34.07ZM77.7224 25.9955V34.0302H74.6249C75.3761 32.0404 75.3179 29.9746 75.4704 25.9955H77.7224Z" fill="#E30613"/>
<path d="M92.8928 22.8245C92.1467 23.225 92.4866 22.9844 88.3399 30.1597V24.2401C88.3399 23.7908 88.1591 23.3963 87.8023 23.0669C86.6664 22.0189 84.8073 22.7814 84.8073 24.2401V35.7462C84.8073 37.1027 86.3135 37.8826 87.5868 37.2341C88.2596 36.8911 88.0043 37.1085 92.1276 29.9736V35.8047C92.1276 37.225 94.0329 38.0522 95.1492 36.9712C95.4883 36.6424 95.6603 36.2501 95.6603 35.8047V24.2986C95.6603 22.8978 94.1202 22.1667 92.8928 22.8245Z" fill="#E30613"/>
<path d="M106.572 22.7584H99.6639C98.2816 22.7584 97.2232 24.4552 98.4161 25.5504C99.0376 26.1224 99.5636 26.0152 101.352 26.0152V35.8245C101.352 36.2744 101.53 36.6658 101.88 36.9882C103.007 38.0265 104.884 37.2517 104.884 35.8245V26.0152H106.572C107.532 26.0152 108.358 25.3145 108.358 24.3963C108.358 23.4452 107.471 22.7584 106.572 22.7584Z" fill="#E30613"/>
<path d="M117.939 23.4825C117.85 23.6283 114.148 30.0908 114.108 30.1597V24.2401C114.108 23.3493 113.311 22.5825 112.322 22.5825C111.319 22.5825 110.576 23.3635 110.576 24.2401V35.7462C110.576 37.5787 113.138 38.0756 114.076 36.5839L117.896 29.9736V35.8047C117.896 37.225 119.801 38.0522 120.918 36.9712C121.257 36.6424 121.429 36.2501 121.429 35.8047V24.2986C121.429 22.4641 118.932 21.9582 117.939 23.4825Z" fill="#E30613"/>
</svg>
