<svg width="308" height="178" viewBox="0 0 308 178" fill="none" xmlns="http://www.w3.org/2000/svg">
<path opacity="0.2" d="M74.3341 7.58446C55.7122 1.13155 34.4204 -4.33059 17.0221 4.94243C14.817 6.11775 12.6442 7.59742 11.4561 9.79911C8.31806 15.5915 13.3061 23.1032 10.875 29.2258C8.44397 35.3485 -0.705554 38.4308 0.0434546 44.9712C0.240392 46.6807 1.16374 48.2284 2.25174 49.5624C9.06707 57.9126 21.5613 58.7577 32.1217 56.6855C42.682 54.6133 53.01 50.3168 63.7608 50.8575C74.092 51.3917 83.5966 56.3617 93.0625 60.5449C109.021 67.6162 127.659 72.6898 143.604 65.5829C150.911 62.3257 156.951 56.7794 163.944 52.907C173.368 47.7364 184.2 45.7431 194.841 47.2214C201.943 48.2251 208.723 50.7506 215.674 52.4925C231.461 56.4459 247.939 56.3164 264.208 56.161C267.236 56.1318 270.313 56.0962 273.215 55.2285C277.512 53.9334 281.057 50.9514 284.47 48.0341C288.954 44.2038 293.677 39.9947 295.124 34.2671C296.832 27.4677 293.296 20.241 288.053 15.6206C282.81 11.0003 276.108 8.47484 269.567 6.04003C267.953 5.44427 266.229 4.83883 264.576 5.28888C263.491 5.58675 262.577 6.312 261.767 7.09231C257.124 11.5734 253.202 19.1531 246.871 17.9357C244.611 17.5018 242.761 15.925 240.972 14.468C231.422 6.69731 218.576 0.697683 207.051 4.99099C198.621 8.13164 192.671 16.197 184.128 19.043C178.052 21.0698 171.45 20.1924 165.058 20.5874C155.76 21.1573 146.71 24.4533 137.399 24.2526C113.657 23.741 93.8761 0.972908 70.2307 3.14222C68.3776 3.31059 66.3565 3.73798 65.2201 5.20793" transform="translate(2.09599 108.992)" fill="#E30613"/>
<path d="M5.34063 1.6891C5.34063 1.6891 -14.3886 13.6333 21.9931 32.0304C21.9931 32.0304 30.0095 17.1042 21.1473 4.93336C19.4275 2.56199 16.9002 0.905534 14.0442 0.27778C11.1881 -0.349974 8.20167 0.0945745 5.65056 1.52721L5.34063 1.6891Z" transform="translate(41.1485 93.2297)" fill="#3EC300"/>
<path d="M3.54692e-06 -3.55714e-06C3.54692e-06 -3.55714e-06 16.8914 12.9511 16.4201 30.5809" transform="translate(46.7248 94.6697)" stroke="#535461" stroke-miterlimit="10"/>
<path d="M54.075 20.8771C58.0718 35.5346 41.0222 77.2923 41.0222 77.2923C41.0222 77.2923 5.14729 50.0528 1.1472 35.3953C0.100852 31.881 -0.234523 28.1924 0.160803 24.5462C0.556128 20.9 1.67417 17.3699 3.44923 14.1632C5.22428 10.9566 7.62055 8.13807 10.4972 5.87337C13.3738 3.60867 16.6728 1.94345 20.2003 0.975577C23.7278 0.00770427 27.4126 -0.243293 31.0382 0.237323C34.6638 0.717938 38.157 1.92048 41.3126 3.77427C44.4682 5.62807 47.2224 8.09571 49.4135 11.0322C51.6047 13.9687 53.1884 17.3148 54.0717 20.8739L54.075 20.8771Z" transform="translate(242.024 64.092)" fill="#33A000"/>
<path d="M7.09384e-06 -3.55714e-06C7.09384e-06 -3.55714e-06 22.3314 33.8089 20.6623 75.6929" transform="translate(262.543 65.7725)" stroke="#535461" stroke-miterlimit="10"/>
<path d="M17.91 1.36421C17.91 1.36421 -2.33906 -9.68311 0.224361 31.0968C0.224361 31.0968 17.1158 30.4913 23.1111 16.6725C24.2834 13.9849 24.4316 10.9593 23.5277 8.16937C22.6238 5.37945 20.7306 3.01911 18.207 1.53582L17.91 1.36421Z" transform="translate(283.888 110.395)" fill="#3EC300"/>
<path d="M18.0182 6.3238e-06C18.0182 6.3238e-06 15.4031 21.1686 6.30563e-06 29.6614" transform="translate(284.112 111.83)" stroke="#535461" stroke-miterlimit="10"/>
<path d="M5.34531 1.70206C5.34531 1.70206 -14.3936 13.643 21.9914 32.0304C21.9914 32.0304 30.0077 17.1042 21.1455 4.93336C19.4257 2.56198 16.8984 0.905531 14.0424 0.277777C11.1863 -0.349976 8.1999 0.0945722 5.64879 1.52721L5.34531 1.70206Z" transform="translate(0 105.511)" fill="#3EC300"/>
<path d="M-1.77346e-06 -3.1619e-06C-1.77346e-06 -3.1619e-06 16.8914 12.9511 16.4201 30.5809" transform="translate(5.57135 106.963)" stroke="#535461" stroke-miterlimit="10"/>
<path d="M217.061 104.788H196.318C196.795 103.825 197.043 102.764 197.041 101.689V6.96448C197.041 5.11738 196.309 3.34594 195.007 2.03985C193.705 0.733754 191.938 1.58095e-06 190.096 1.58095e-06H29.5342C27.6924 1.58095e-06 25.9261 0.733754 24.6237 2.03985C23.3214 3.34594 22.5897 5.11738 22.5897 6.96448V101.692C22.5881 102.767 22.8356 103.828 23.3129 104.791H1.83703C1.59497 104.791 1.3553 104.839 1.1318 104.932C0.908285 105.025 0.705346 105.162 0.534637 105.334C0.363928 105.506 0.228818 105.71 0.137072 105.935C0.0453249 106.16 -0.00124871 106.4 2.75057e-05 106.643V108.129C2.75057e-05 110.862 1.08236 113.482 3.00893 115.414C4.9355 117.346 7.54849 118.432 10.2731 118.432H208.625C211.349 118.432 213.962 117.346 215.889 115.414C217.815 113.482 218.898 110.862 218.898 108.129V106.643C218.899 106.4 218.853 106.159 218.762 105.934C218.67 105.709 218.535 105.504 218.364 105.332C218.193 105.159 217.99 105.023 217.767 104.929C217.543 104.836 217.303 104.788 217.061 104.788ZM89.2482 110.68L87.4597 108.657H131.619L129.649 110.684L89.2482 110.68Z" transform="translate(34.576 17.9697)" fill="url(#paint0_linear)"/>
<path d="M162.993 0H7.50945C3.3621 0 0 3.37178 0 7.53109V98.665C0 102.824 3.3621 106.196 7.50945 106.196H162.993C167.141 106.196 170.503 102.824 170.503 98.665V7.53109C170.503 3.37178 167.141 0 162.993 0Z" transform="translate(59.1319 19.3103)" fill="#535461"/>
<path d="M162.964 0H0V86.7565H162.964V0Z" transform="translate(62.722 34.79)" fill="white"/>
<path d="M1.43668 2.88163C2.23013 2.88163 2.87335 2.23656 2.87335 1.44082C2.87335 0.645076 2.23013 0 1.43668 0C0.643226 0 0 0.645076 0 1.44082C0 2.23656 0.643226 2.88163 1.43668 2.88163Z" transform="translate(142.769 25.7888)" fill="white"/>
<path d="M132.31 5.53333e-06L126.712 5.76002H87.2401L82.1811 5.53333e-06H1.79504C1.31896 5.53333e-06 0.862391 0.189667 0.525756 0.527272C0.189122 0.864877 -3.94102e-07 1.32277 -3.94102e-07 1.80021V3.25074C-3.94102e-07 5.92134 1.05784 8.48256 2.94082 10.371C4.82379 12.2594 7.37766 13.3202 10.0406 13.3202H203.898C205.217 13.3202 206.522 13.0598 207.74 12.5538C208.959 12.0477 210.066 11.306 210.998 10.371C211.93 9.43592 212.67 8.32587 213.174 7.10418C213.679 5.88249 213.939 4.57308 213.939 3.25074V1.80021C213.939 1.32277 213.75 0.864877 213.413 0.527272C213.076 0.189667 212.62 5.53333e-06 212.144 5.53333e-06H132.31Z" transform="translate(37.0555 121.725)" fill="#535461"/>
<path d="M-3.54692e-06 7.90475e-07V73.7956H121.682" transform="translate(83.5424 40.1907)" stroke="#535461" stroke-width="2" stroke-miterlimit="10"/>
<path opacity="0.5" d="M12.562 -2.37142e-06H0V19.4397H12.562V-2.37142e-06Z" transform="translate(94.3094 91.6682)" fill="#E30613"/>
<path opacity="0.7" d="M12.562 0H-4.33512e-06V36.7197H12.562V0Z" transform="translate(115.847 74.3879)" fill="#E30613"/>
<path opacity="0.5" d="M12.562 -3.95237e-06H2.75871e-06V26.2779H12.562V-3.95237e-06Z" transform="translate(137.384 84.8267)" fill="#E30613"/>
<path opacity="0.8" d="M12.562 0H0V42.4797H12.562V0Z" transform="translate(158.921 68.6282)" fill="#E30613"/>
<path d="M12.562 2.37143e-06H7.09384e-06V57.597H12.562V2.37143e-06Z" transform="translate(180.458 53.5076)" fill="#E30613"/>
<path d="M-3.54692e-06 32.7599L21.8956 12.9609L43.4328 31.6785L64.6117 9.00104L86.1489 -7.90475e-07" transform="translate(100.411 47.0288)" stroke="#535461" stroke-width="2" stroke-miterlimit="10"/>
<path d="M2.51176 5.038C3.89896 5.038 5.02352 3.9102 5.02352 2.519C5.02352 1.1278 3.89896 2.17381e-06 2.51176 2.17381e-06C1.12455 2.17381e-06 -3.15282e-06 1.1278 -3.15282e-06 2.519C-3.15282e-06 3.9102 1.12455 5.038 2.51176 5.038Z" transform="translate(97.8995 77.2695)" fill="#E30613"/>
<path d="M2.51176 5.038C3.89897 5.038 5.02352 3.9102 5.02352 2.519C5.02352 1.12779 3.89897 0 2.51176 0C1.12455 0 0 1.12779 0 2.519C0 3.9102 1.12455 5.038 2.51176 5.038Z" transform="translate(140.974 75.8289)" fill="#E30613"/>
<path d="M2.51176 5.03799C3.89897 5.03799 5.02351 3.9102 5.02351 2.519C5.02351 1.12779 3.89897 0 2.51176 0C1.12456 0 3.54692e-06 1.12779 3.54692e-06 2.519C3.54692e-06 3.9102 1.12456 5.03799 2.51176 5.03799Z" transform="translate(162.87 53.511)" fill="#E30613"/>
<path d="M2.51176 5.03799C3.89897 5.03799 5.02352 3.9102 5.02352 2.519C5.02352 1.12779 3.89897 0 2.51176 0C1.12455 0 0 1.12779 0 2.519C0 3.9102 1.12455 5.03799 2.51176 5.03799Z" transform="translate(119.795 57.1082)" fill="#E30613"/>
<path d="M2.51176 5.03799C3.89896 5.03799 5.02353 3.9102 5.02353 2.519C5.02353 1.12779 3.89896 0 2.51176 0C1.12455 0 5.51743e-06 1.12779 5.51743e-06 2.519C5.51743e-06 3.9102 1.12455 5.03799 2.51176 5.03799Z" transform="translate(184.048 44.5098)" fill="#E30613"/>
<path d="M73.539 124.878C72.2154 124.441 70.2524 123.936 68.6963 124.114C67.2144 123.573 63.7309 122.171 61.3515 120.06C61.4201 117.985 61.3673 115.907 61.1933 113.837C59.9762 99.9569 62.7139 90.8069 62.7139 90.8069C62.7139 90.8069 64.8641 83.8263 64.6284 78.0339C64.7673 78.2961 64.8447 78.4515 64.8447 78.4515C65.032 73.4556 66.7302 68.2849 68.0022 65.0633C68.0507 65.0494 68.0982 65.0321 68.1442 65.0115L69.5648 61.6313C69.678 61.4341 69.7679 61.2244 69.8327 61.0064L70.062 60.4721L69.9942 60.443C70.0168 60.3556 70.0394 60.2617 70.062 60.1678C70.9692 56.318 71.6762 47.1875 71.6762 47.1875C74.1105 37.5777 68.3315 31.6461 68.3315 31.6461L58.5234 23.1825C58.5722 23.2927 58.6048 23.4094 58.6202 23.529L58.5395 23.4578C58.4007 23.0595 58.2489 22.5836 58.1004 22.0396C58.4464 21.7905 58.7704 21.5121 59.069 21.2075C60.1842 20.1513 60.9512 18.7788 61.2676 17.2736C61.4578 16.0965 61.5065 14.9008 61.4129 13.712L61.2514 9.62917C61.2441 8.83012 61.163 8.03347 61.0093 7.2494C60.27 4.01162 56.9608 1.74517 53.6387 1.59623C52.5816 1.59005 51.5252 1.64628 50.4747 1.76459C49.6157 1.83537 48.7532 1.85375 47.892 1.81964C47.7939 1.82485 47.6967 1.79878 47.6143 1.74517C47.5395 1.67038 47.4967 1.56936 47.4949 1.46348C47.4779 1.27398 47.4995 1.08301 47.5583 0.902126C47.6171 0.721245 47.712 0.554225 47.8371 0.411197C47.967 0.296892 48.1185 0.209914 48.2826 0.155414L48.0469 0.210456C48.1631 0.118565 48.2941 0.0473789 48.4343 1.58095e-06C47.5732 0.151847 46.745 0.453159 45.9871 0.890393C45.7783 1.02799 45.5865 1.18992 45.4157 1.37282C44.9643 1.77008 44.6708 2.31728 44.5892 2.91401C44.1848 2.57151 43.883 2.12317 43.7175 1.61889C43.6661 1.41269 43.6661 1.19697 43.7175 0.990763C43.6594 1.06199 43.6035 1.13538 43.5496 1.21093C43.5496 1.18827 43.5496 1.1656 43.5496 1.14294C42.9257 1.91205 42.4842 2.81324 42.2582 3.7785C42.1714 3.67397 42.106 3.55316 42.0661 3.42309C42.0262 3.29302 42.0125 3.15629 42.0258 3.02086C41.9774 3.17303 41.9322 3.3252 41.8902 3.47738C41.8756 3.37646 41.8756 3.27395 41.8902 3.17303C41.5101 4.34031 41.3385 5.56574 41.3833 6.79287C41.3833 8.01676 41.9257 9.92381 43.2333 10.3544C43.3011 10.3771 43.3689 10.3933 43.4399 10.4095C42.7046 11.5551 42.2642 12.8657 42.1582 14.224C42.0522 15.5823 42.284 16.9457 42.8328 18.192C43.3815 19.4384 44.2301 20.5287 45.3024 21.3652C46.3746 22.2017 47.6372 22.7583 48.9767 22.985C48.9982 23.134 49.0187 23.2905 49.0381 23.4545H49.0897C49.1252 23.7783 49.1543 24.1345 49.1737 24.4971C48.8437 24.8213 48.4825 25.112 48.0954 25.3648C46.9977 26.0156 45.7733 26.4219 44.5053 26.5563C42.991 26.6755 41.5195 27.117 40.1888 27.8514C38.623 28.7289 36.8957 30.0078 36.3534 31.5619C35.4494 34.1522 30.4711 38.1832 27.1328 38.6851L25.9447 38.6171L25.8576 38.5912V38.6138L25.567 38.5976H25.5508H25.4734V38.6138L25.1731 38.5976C25.1731 38.5976 25.1441 38.7369 25.1021 38.9829C23.4233 38.4034 19.8558 36.7974 15.2133 32.5721C10.0477 27.8676 3.05801 28.7936 0.362222 29.3861C0.270509 29.4064 0.187141 29.4543 0.123258 29.5233C0.0593743 29.5924 0.0180035 29.6793 0.00467242 29.7726C-0.00865868 29.8658 0.00669113 29.9609 0.0486542 30.0451C0.0906173 30.1294 0.157206 30.1988 0.239538 30.2442C1.32754 30.8432 3.01281 31.7141 3.79087 31.8112C3.79087 31.8112 2.17663 33.5046 3.89418 34.4015C4.10024 34.5014 4.32976 34.5425 4.55756 34.5202C4.78536 34.4979 5.00264 34.4131 5.18558 34.2752C6.01853 33.6633 8.33334 35.049 11.6877 35.7711C11.6877 35.7711 21.1536 45.5945 25.8543 47.1033C25.9626 47.3178 26.0823 47.5264 26.2127 47.7282L26.5033 47.7055V47.7282H26.6259L26.6614 48.052C26.6614 48.052 33.9707 47.6667 36.3469 45.0052C36.5151 44.8542 36.6696 44.6884 36.8086 44.5098L34.2677 76.5639H34.2904L34.2677 76.8683H36.1371C36.297 80.8106 36.1275 84.7593 35.6302 88.6732V109.57C35.6302 109.57 35.5333 111.409 39.3429 114.103C43.3372 116.892 47.1863 119.884 50.8751 123.068L51.3367 123.47C50.6362 129.864 49.1704 141.783 47.9468 142.226L48.7023 142.359C47.4109 144.001 43.7434 148.511 42.6263 148.631C41.2574 148.783 40.3438 150.92 42.6263 151.376C47.1839 152.167 51.8701 151.704 56.1859 150.036C56.6164 149.865 56.9775 149.555 57.2115 149.155C57.4456 148.755 57.5392 148.287 57.4773 147.828L57.035 144.46C57.1188 144.507 57.1863 144.578 57.2287 144.664C57.5322 145.581 57.2287 143.444 57.2287 143.444C58.4794 139.412 59.462 135.302 60.1699 131.14L64.6898 135.058C64.6898 135.058 64.7802 134.944 64.9384 134.734C66.0457 137.253 68.0216 142.408 67.5792 146.183C66.9723 151.363 72.7448 146.792 72.1411 143.742C71.6504 141.274 73.8457 130.816 74.7013 126.905C74.7935 126.483 74.7255 126.041 74.5106 125.666C74.2957 125.292 73.9493 125.011 73.539 124.878Z" transform="translate(206.47)" fill="url(#paint1_linear)"/>
<path d="M25.5426 10.1464C25.5426 10.1464 21.2358 9.40171 14.8499 3.59313C9.79729 -1.00129 2.98195 -0.0979453 0.353963 0.481618C0.264411 0.501027 0.182942 0.547458 0.120477 0.614675C0.0580125 0.681892 0.0175583 0.766665 0.00455219 0.857618C-0.00845393 0.94857 0.00659574 1.04134 0.0477064 1.12345C0.088817 1.20557 0.154007 1.2731 0.234511 1.31696C1.29668 1.89976 2.94322 2.75131 3.71483 2.84844C3.71483 2.84844 2.12318 4.49971 3.81491 5.38362C4.01747 5.48339 4.24368 5.52472 4.46831 5.50299C4.69294 5.48127 4.90712 5.39734 5.08693 5.26058C5.90051 4.66483 8.16044 6.01823 11.4374 6.72083C11.4374 6.72083 24.2092 19.9763 27.1794 17.7293L25.5426 10.1464Z" transform="translate(207.23 30.1187)" fill="#FEC3BE"/>
<path d="M-4.72922e-06 6.40434C-4.72922e-06 6.40434 1.18808 11.4682 -4.72922e-06 15.0428L5.34636 15.7874L10.0987 13.4044V10.2767C10.0987 10.2767 7.87105 5.51071 8.46509 9.88094e-07L-4.72922e-06 6.40434Z" transform="translate(254.762 15.8394)" fill="#FEC3BE"/>
<path d="M0 8.91238C0 8.91238 3.87418 16.5082 3.26722 21.5721C2.66027 26.636 8.31657 22.1679 7.72253 19.1891C7.24148 16.7802 9.38519 6.56174 10.2214 2.76058C10.312 2.34982 10.2472 1.91994 10.0396 1.55438C9.832 1.18882 9.49638 0.913649 9.09787 0.782281C7.31251 0.193004 4.32294 -0.529007 2.82169 0.575078C0.603723 2.21016 0 8.91238 0 8.91238Z" transform="translate(269.9 123.092)" fill="#011B3D"/>
<path d="M7.74281 0.446823C7.74281 0.446823 2.69347 7.00009 1.35687 7.14902C0.0202807 7.29796 -0.870781 9.38311 1.35687 9.82992C5.80474 10.6063 10.3793 10.1587 14.5937 8.53481C15.0154 8.36981 15.3697 8.06759 15.5998 7.67659C15.8298 7.28559 15.9223 6.82844 15.8625 6.37843L15.0101 7.11428e-06L7.74281 0.446823Z" transform="translate(247.465 139.898)" fill="#011B3D"/>
<path d="M4.90105 -3.95238e-07L0.0583215 0.647557C0.723005 6.32018 0.703496 12.0525 0.00021118 17.7204V38.1185C0.00021118 38.1185 -0.0934016 39.9154 3.62581 42.5283C7.52589 45.2475 11.2845 48.1653 14.8867 51.2703L28.3625 62.9782C28.3625 62.9782 33.7088 56.4249 32.9663 52.5525C32.9663 52.5525 24.0557 49.7227 22.8676 45.1056C22.1864 42.4636 18.7319 40.2489 15.9037 38.8567C14.1259 37.9908 12.6969 36.541 11.8541 34.7482C11.0113 32.9553 10.8055 30.9272 11.2709 29.0008C11.436 28.3314 11.6912 27.6877 12.0295 27.0873C14.4057 22.917 17.8214 13.5339 17.8214 13.5339L11.287 1.04257L4.90105 -3.95238e-07Z" transform="translate(241.99 70.7942)" fill="#828798"/>
<path d="M4.73941 69.9512C4.73941 69.9512 13.5015 71.4406 13.7985 72.3342C14.0956 73.2278 13.7985 71.1427 13.7985 71.1427C13.7985 71.1427 18.8479 55.8021 17.6727 42.2519C16.4976 28.7018 19.1578 19.7623 19.1578 19.7623C19.1578 19.7623 22.2765 9.63447 20.4944 3.82588C18.7123 -1.98271 1.57641e-06 0.549244 1.57641e-06 0.549244C1.57641e-06 0.549244 6.53444 15.8899 6.38593 23.1878C6.38593 23.1878 7.12849 45.2307 8.46508 47.7626C8.45216 47.7497 6.37303 69.3457 4.73941 69.9512Z" transform="translate(249.28 70.8503)" fill="#9197AE"/>
<path d="M13.2055 -2.17381e-06C13.2055 -2.17381e-06 14.0965 5.50424 23.0071 3.1277L17.0796 48.4017C17.0796 48.4017 -0.147563 48.9974 0.000946825 46.9123L3.55228 19.5109L13.2055 -2.17381e-06Z" transform="translate(241.844 26.116)" fill="white"/>
<path opacity="0.1" d="M22.7963 -1.58095e-06C21.636 1.14563 20.1243 1.86541 18.5057 2.04304C17.0272 2.15668 15.5898 2.58494 14.2893 3.2993C12.7622 4.15732 11.0608 5.40386 10.5442 6.92239C9.50466 9.90115 2.9702 14.8161 -4.72923e-06 13.7735L1.03958 22.7098C1.03958 22.7098 9.50467 22.263 10.9898 18.9864L8.46832 50.8753H10.696C10.696 50.8753 11.884 42.2369 12.7751 40.4496C13.6662 38.6624 15.4483 28.8325 15.5968 26.4495C15.7453 24.0665 17.973 10.3642 19.9036 7.99409L22.8092 0.919528L22.7963 -1.58095e-06Z" transform="translate(232.485 25.8179)" fill="black"/>
<path opacity="0.1" d="M23.0901 0C21.7629 1.04116 20.1759 1.6964 18.5024 1.89411C17.0246 2.0102 15.5883 2.44066 14.2893 3.15684C12.7622 4.01485 11.0608 5.2614 10.5442 6.77992C9.50465 9.75869 2.97021 14.6736 3.94102e-06 13.6311L1.03957 22.5674C1.03957 22.5674 9.50465 22.1206 10.9898 18.8439L8.46508 50.7134H10.6927C10.6927 50.7134 11.8808 42.075 12.7719 40.2878C13.6629 38.5005 15.4451 28.6706 15.5936 26.2876C15.7421 23.9046 17.9698 10.2023 19.9004 7.8322L23.0901 0.890391V0Z" transform="translate(232.192 26.2649)" fill="black"/>
<path d="M23.0933 5.92856e-07C21.7661 1.04116 20.1791 1.69639 18.5057 1.8941C17.0272 2.00774 15.5898 2.436 14.2893 3.15036C12.7622 4.00838 11.0608 5.25493 10.5442 6.77345C9.50465 9.75221 2.97021 14.6672 7.88204e-07 13.6246L1.03956 22.5609C1.03956 22.5609 9.50465 22.1141 10.9898 18.8374L8.46831 50.7264H10.696C10.696 50.7264 11.8841 42.088 12.7751 40.3007C13.6662 38.5135 15.4483 28.6835 15.5968 26.3005C15.7453 23.9175 17.973 10.2152 19.9036 7.84515L23.0966 0.919536L23.0933 5.92856e-07Z" transform="translate(232.188 25.967)" fill="#2F4F7C"/>
<path opacity="0.1" d="M8.09381 3.94686C7.9001 2.53518 8.28753 1.65451 8.46509 -2.37142e-06L-4.72923e-06 6.40434C-4.72923e-06 6.40434 0.203385 7.26883 0.358352 8.5348C0.785353 8.60398 1.21721 8.63863 1.64975 8.63841C4.58767 8.63841 6.70233 6.33634 8.09381 3.94686Z" transform="translate(254.762 16.2861)" fill="black"/>
<path d="M8.01955 16.0853C12.4486 16.0853 16.0391 12.4845 16.0391 8.04266C16.0391 3.60082 12.4486 0 8.01955 0C3.59047 0 5.51743e-06 3.60082 5.51743e-06 8.04266C5.51743e-06 12.4845 3.59047 16.0853 8.01955 16.0853Z" transform="translate(248.376 8.39551)" fill="#FEC3BE"/>
<path opacity="0.1" d="M0.00733518 6.48205C-0.0441094 5.12573 0.175428 3.77278 0.653032 2.50281C0.520354 2.70262 0.464257 2.94384 0.495115 3.1819C0.525974 3.41996 0.641711 3.63877 0.820919 3.79792C1.07944 2.4138 1.78785 1.15455 2.83549 0.216931C2.26405 0.310826 1.97026 1.0199 2.11231 1.58328C2.30528 2.13355 2.64876 2.61827 3.10346 2.982C3.05503 2.13046 3.61678 1.33397 4.32705 0.867729C5.06707 0.441427 5.87554 0.147785 6.71614 -3.95238e-07C6.42791 0.102609 6.18164 0.298012 6.01578 0.555723C5.84991 0.813435 5.77377 1.11896 5.79924 1.42462C5.80174 1.52847 5.8446 1.62724 5.91869 1.69984C5.99936 1.7516 6.09427 1.77653 6.18989 1.77107C7.02641 1.8034 7.8641 1.78502 8.69841 1.71603C9.72417 1.60025 10.7558 1.54511 11.7881 1.5509C15.0166 1.68689 18.2612 3.8983 18.9844 7.05514C19.1342 7.8211 19.2131 8.59932 19.22 9.37986L19.3782 13.3656C19.4701 14.5284 19.4224 15.698 19.2362 16.8494C19.0126 17.9124 18.5578 18.9127 17.9043 19.7791C17.2508 20.6455 16.4147 21.3565 15.4556 21.8615C14.2901 20.1682 14.1868 17.9924 13.7833 15.9752C13.7196 15.5097 13.547 15.0659 13.2796 14.6801C13.1416 14.4893 12.9478 14.3463 12.7251 14.2709C12.5024 14.1955 12.2618 14.1914 12.0367 14.2592C11.6008 14.4341 11.4136 15.101 11.7752 15.3989C11.4523 15.781 10.8486 15.496 10.4838 15.1561C9.46496 14.1868 8.76359 12.9302 8.47243 11.5524C8.32715 10.8595 8.18187 10.0048 7.50389 9.7684C7.27065 9.70412 7.02689 9.6876 6.78715 9.71983C5.37308 9.81697 3.16157 10.403 1.7927 9.95295C0.536816 9.54176 0.00733518 7.67679 0.00733518 6.48205Z" transform="translate(247.636 2.07227)" fill="black"/>
<path d="M0.00734228 6.48205C-0.0441023 5.12573 0.175435 3.77279 0.653039 2.50281C0.520362 2.70262 0.464264 2.94384 0.495122 3.1819C0.525981 3.41996 0.641698 3.63877 0.820907 3.79792C1.07942 2.4138 1.78786 1.15455 2.8355 0.216933C2.26406 0.310829 1.97025 1.0199 2.1123 1.58328C2.30527 2.13355 2.64874 2.61826 3.10345 2.982C3.05502 2.13046 3.61679 1.33397 4.32706 0.867727C5.06707 0.441425 5.87553 0.147788 6.71612 2.37143e-06C6.42789 0.102611 6.18165 0.298015 6.01578 0.555726C5.84992 0.813437 5.77378 1.11896 5.79924 1.42463C5.80175 1.52848 5.84461 1.62724 5.9187 1.69984C5.99937 1.7516 6.09426 1.77652 6.18988 1.77107C7.0264 1.8034 7.86411 1.78502 8.69842 1.71602C9.72418 1.60024 10.7559 1.54511 11.7881 1.5509C15.0166 1.68689 18.2612 3.89829 18.9844 7.05514C19.1342 7.8211 19.2131 8.59932 19.2201 9.37986L19.3782 13.3656C19.4701 14.5284 19.4224 15.698 19.2362 16.8494C19.0126 17.9124 18.5578 18.9127 17.9043 19.7791C17.2508 20.6455 16.4147 21.3565 15.4556 21.8615C14.2901 20.1682 14.1868 17.9924 13.7833 15.9752C13.7196 15.5097 13.547 15.0659 13.2796 14.6801C13.1416 14.4893 12.9478 14.3463 12.7251 14.2709C12.5024 14.1955 12.2618 14.1914 12.0367 14.2592C11.6008 14.434 11.4136 15.101 11.7752 15.3989C11.4523 15.781 10.8486 15.496 10.4838 15.1561C9.46495 14.1868 8.76358 12.9302 8.47242 11.5524C8.32714 10.8595 8.18185 10.0048 7.50387 9.7684C7.27064 9.70412 7.0269 9.6876 6.78716 9.71983C5.37308 9.81697 3.16156 10.403 1.79268 9.95295C0.536803 9.53852 0.00734228 7.67679 0.00734228 6.48205Z" transform="translate(247.784 1.92334)" fill="#273043"/>
<path opacity="0.1" d="M0.316492 4.34761e-06C0.316492 4.34761e-06 -0.871599 5.50423 1.35605 8.93629L2.6184 8.83268L1.93073 0.090662L0.316492 4.34761e-06Z" transform="translate(231.488 39.595)" fill="black"/>
<path d="M0.316492 4.34761e-06C0.316492 4.34761e-06 -0.871599 5.50423 1.35605 8.93629L2.6184 8.83268L1.93073 0.090662L0.316492 4.34761e-06Z" transform="translate(231.81 39.595)" fill="#FD6F8D"/>
<path opacity="0.1" d="M10.3247 0L19.9036 8.26607C19.9036 8.26607 25.547 14.0747 23.1708 23.4578C23.1708 23.4578 22.1313 37.1601 20.9432 37.7558C20.9432 37.7558 16.7849 46.0964 16.4879 53.9901C16.4879 53.9901 10.9187 42.7452 8.39406 49.5964C5.86939 56.4476 1.57641e-06 57.4156 1.57641e-06 57.4156L3.26723 16.8915C3.26723 16.8915 11.5128 2.519 10.3247 0Z" transform="translate(253.719 24.5649)" fill="black"/>
<path d="M10.3247 0L19.9036 8.26607C19.9036 8.26607 25.547 14.0747 23.1708 23.4578C23.1708 23.4578 22.1313 37.1601 20.9432 37.7558C20.9432 37.7558 16.7849 46.0964 16.4879 53.9901C16.4879 53.9901 10.6217 42.1495 8.09381 49.0006C5.56591 55.8518 -3.94102e-06 57.4189 -3.94102e-06 57.4189L3.26722 16.911C3.26722 16.911 11.5128 2.519 10.3247 0Z" transform="translate(254.016 24.5649)" fill="#2F4F7C"/>
<path d="M6.46019 0.293245C6.46019 0.293245 8.83636 -1.34507 12.6976 3.12308L3.19296 20.3999L8.67025e-06 15.5659C8.67025e-06 15.5659 6.75721 2.22944 6.46019 0.293245Z" transform="translate(262.262 59.1851)" fill="#FEC3BE"/>
<path opacity="0.1" d="M-9.45845e-06 2.53195C-9.45845e-06 2.53195 5.25596 8.45062 7.30605 7.50195L9.2044 3.06942L2.07914 0L-9.45845e-06 2.53195Z" transform="translate(266.42 57.9143)" fill="black"/>
<path d="M-9.45845e-06 2.53195C-9.45845e-06 2.53195 5.25596 8.45062 7.30605 7.50195L9.2044 3.06942L2.07914 -4.34761e-06L-9.45845e-06 2.53195Z" transform="translate(266.42 57.6165)" fill="#FD6F8D"/>
<path opacity="0.1" d="M0.923355 3.1619e-06C0.923355 3.1619e-06 3.42541 5.1416 4.75878 5.43948L2.82169 7.67355L-6.30563e-06 2.31178L0.923355 3.1619e-06Z" transform="translate(261.661 73.6208)" fill="black"/>
<path d="M0.929805 0C0.929805 0 3.43188 5.1416 4.76525 5.43948L2.82816 7.67356L0 2.30206L0.929805 0Z" transform="translate(261.506 73.7795)" fill="#4D4981"/>
<path opacity="0.1" d="M0.891068 -3.95237e-07C0.891068 -3.95237e-07 1.18809 10.7235 3.15282e-06 14.7449L0.891068 -3.95237e-07Z" transform="translate(266.271 41.978)" fill="black"/>
<path opacity="0.1" d="M0 2.08513C0 2.08513 1.78213 1.48938 1.78213 -3.95238e-07L0 2.08513Z" transform="translate(243.104 41.978)" fill="black"/>
<path d="M4.79722 3.1619e-06C4.79722 3.1619e-06 -3.66786 17.5617 1.89159 38.3451C7.45104 59.1284 5.68506 83.9979 0.141749 90.1497" transform="translate(21.898 45.8567)" stroke="#535461" stroke-width="2" stroke-miterlimit="10"/>
<path d="M2.33419 4.68184C3.62333 4.68184 4.66839 3.63377 4.66839 2.34092C4.66839 1.04806 3.62333 0 2.33419 0C1.04506 0 0 1.04806 0 2.34092C0 3.63377 1.04506 4.68184 2.33419 4.68184Z" transform="translate(24.3611 43.519)" fill="#3EC300"/>
<path d="M-2.16756e-06 1.61889C-2.16756e-06 1.61889 8.77502 3.20541 11.1092 -1.97619e-06" transform="translate(23.1762 55.5344)" stroke="#535461" stroke-width="2" stroke-miterlimit="10"/>
<path d="M4.99958 9.37015C4.99958 9.37015 -0.278995 3.513 0.0115684 -2.76666e-06" transform="translate(17.3437 52.8828)" stroke="#535461" stroke-width="2" stroke-miterlimit="10"/>
<path d="M2.36461e-06 8.09447C2.36461e-06 8.09447 4.80075 9.36368 9.18181 2.76666e-06" transform="translate(21.8945 64.8887)" stroke="#535461" stroke-width="2" stroke-miterlimit="10"/>
<path d="M10.6124 12.6824C10.6124 12.6824 -1.33298 4.97324 0.123062 3.95238e-07" transform="translate(12.5638 68.1035)" stroke="#535461" stroke-width="2" stroke-miterlimit="10"/>
<path d="M2.36461e-06 14.774C2.36461e-06 14.774 8.36823 7.32711 7.49331 3.1619e-06" transform="translate(25.0423 74.835)" stroke="#535461" stroke-width="2" stroke-miterlimit="10"/>
<path d="M10.3383 7.66708C10.3383 7.66708 -0.315657 4.68184 0.00719179 3.55714e-06" transform="translate(15.6144 87.1287)" stroke="#535461" stroke-width="2" stroke-miterlimit="10"/>
<path d="M7.88204e-07 10.0371C7.88204e-07 10.0371 6.71202 3.80116 7.58694 0" transform="translate(26.6953 90.9399)" stroke="#535461" stroke-width="2" stroke-miterlimit="10"/>
<path d="M7.18015 12.1579C7.18015 12.1579 0.29379 4.0958 -1.97051e-06 3.95238e-06" transform="translate(19.9833 99.4229)" stroke="#535461" stroke-width="2" stroke-miterlimit="10"/>
<path d="M-1.97051e-07 12.6824C-1.97051e-07 12.6824 7.70639 4.0958 8.28752 7.90475e-07" transform="translate(27.1634 105.571)" stroke="#535461" stroke-width="2" stroke-miterlimit="10"/>
<path d="M2.33419 4.68184C3.62333 4.68184 4.66839 3.63377 4.66839 2.34092C4.66839 1.04806 3.62333 0 2.33419 0C1.04505 0 0 1.04806 0 2.34092C0 3.63377 1.04505 4.68184 2.33419 4.68184Z" transform="translate(15.021 51.1279)" fill="#3EC300"/>
<path d="M2.33419 4.68184C3.62333 4.68184 4.66839 3.63377 4.66839 2.34092C4.66839 1.04807 3.62333 -2.37142e-06 2.33419 -2.37142e-06C1.04505 -2.37142e-06 0 1.04807 0 2.34092C0 3.63377 1.04505 4.68184 2.33419 4.68184Z" transform="translate(12.3963 84.7878)" fill="#3EC300"/>
<path d="M2.33419 4.68184C3.62333 4.68184 4.66839 3.63377 4.66839 2.34092C4.66839 1.04806 3.62333 0 2.33419 0C1.04505 0 0 1.04806 0 2.34092C0 3.63377 1.04505 4.68184 2.33419 4.68184Z" transform="translate(10.3527 65.7627)" fill="#3EC300"/>
<path d="M2.33419 4.68184C3.62333 4.68184 4.66839 3.63377 4.66839 2.34092C4.66839 1.04806 3.62333 0 2.33419 0C1.04505 0 0 1.04806 0 2.34092C0 3.63377 1.04505 4.68184 2.33419 4.68184Z" transform="translate(31.9513 53.1775)" fill="#3EC300"/>
<path d="M2.33419 4.68184C3.62333 4.68184 4.66839 3.63377 4.66839 2.34092C4.66839 1.04807 3.62333 -3.1619e-06 2.33419 -3.1619e-06C1.04505 -3.1619e-06 0 1.04807 0 2.34092C0 3.63377 1.04505 4.68184 2.33419 4.68184Z" transform="translate(31.9513 89.1782)" fill="#3EC300"/>
<path d="M2.33419 4.68184C3.62333 4.68184 4.66839 3.63377 4.66839 2.34092C4.66839 1.04807 3.62333 0 2.33419 0C1.04505 0 0 1.04807 0 2.34092C0 3.63377 1.04505 4.68184 2.33419 4.68184Z" transform="translate(28.1578 62.5442)" fill="#3EC300"/>
<path d="M2.3342 4.68184C3.62334 4.68184 4.66839 3.63378 4.66839 2.34092C4.66839 1.04807 3.62334 0 2.3342 0C1.04506 0 0 1.04807 0 2.34092C0 3.63378 1.04506 4.68184 2.3342 4.68184Z" transform="translate(32.8262 104.694)" fill="#3EC300"/>
<path d="M2.33419 4.68184C3.62333 4.68184 4.66839 3.63377 4.66839 2.34092C4.66839 1.04806 3.62333 4.34761e-06 2.33419 4.34761e-06C1.04505 4.34761e-06 0 1.04806 0 2.34092C0 3.63377 1.04505 4.68184 2.33419 4.68184Z" transform="translate(17.0647 98.5452)" fill="#3EC300"/>
<path d="M2.33419 4.68184C3.62333 4.68184 4.66839 3.63377 4.66839 2.34092C4.66839 1.04807 3.62333 2.17381e-06 2.33419 2.17381e-06C1.04505 2.17381e-06 0 1.04807 0 2.34092C0 3.63377 1.04505 4.68184 2.33419 4.68184Z" transform="translate(30.492 72.4941)" fill="#3EC300"/>
<defs>
<linearGradient id="paint0_linear" x2="1" gradientUnits="userSpaceOnUse" gradientTransform="translate(50.408 118.419) scale(118.082 118.422) rotate(-90)">
<stop stop-color="#808080" stop-opacity="0.25"/>
<stop offset="0.54" stop-color="#808080" stop-opacity="0.12"/>
<stop offset="1" stop-color="#808080" stop-opacity="0.1"/>
</linearGradient>
<linearGradient id="paint1_linear" x2="1" gradientUnits="userSpaceOnUse" gradientTransform="translate(48132 97693.4) scale(35031.3 71126.2) rotate(-90)">
<stop stop-color="#808080" stop-opacity="0.25"/>
<stop offset="0.54" stop-color="#808080" stop-opacity="0.12"/>
<stop offset="1" stop-color="#808080" stop-opacity="0.1"/>
</linearGradient>
</defs>
</svg>
