<svg width="406" height="138" viewBox="0 0 406 138" fill="none" xmlns="http://www.w3.org/2000/svg"><path d="M31.863 116.9c21 15.7 45.2 16 71.4 18.4 23.1 2.2 46.6 2.2 69.7 1.6 49.7-1.3 99.1-7 148.1-14.2 15.6-2.3 31.4-4.8 45.4-11.1 14.9 2.5 27.7 9.1 38.4 19.9.8-14.8-4.6-27.1-14.2-37.7 10-11.7 15.5-26.3 14.1-40.8-2.2-22.4-21.1-43.2-46-49.3-11-2.7-22.5-2.7-33.9-2.7h-252.6c-13.2 0-27 .1-38.5 5.6-10.8 5-18.3 13.9-23.8 23.2-7.4 12.4-10 24-8.6 35.6 2.2 19.7 13.2 38.6 30.5 51.5z" fill="#D9EFFD" stroke="#000" stroke-miterlimit="10"/></svg>