<svg width="12" height="12" viewBox="0 0 12 12" fill="none" xmlns="http://www.w3.org/2000/svg"><path d="M10.688 5.625a.562.562 0 0 0-.563.563v4.687h-9v-9h4.687a.562.562 0 1 0 0-1.125H.75A.75.75 0 0 0 0 1.5v9.75c0 .414.336.75.75.75h9.75a.75.75 0 0 0 .75-.75V6.187a.562.562 0 0 0-.563-.562zm1.181-3.88L10.255.13A.447.447 0 0 0 9.938 0a.446.446 0 0 0-.318.13L3.375 6.376v2.25h2.25l6.244-6.244A.448.448 0 0 0 12 2.063a.447.447 0 0 0-.13-.319zM5.25 7.5H4.5v-.75l5.438-5.437.75.75L5.25 7.5z" fill="#B3B3B3"/></svg>