<svg width="32" height="20" viewBox="0 0 32 20" fill="none" xmlns="http://www.w3.org/2000/svg"><path d="M.006 10.013C-.192 4.857 4.374.093 9.592.03c2.66-.225 5.246.797 7.259 2.463-.825.898-1.665 1.786-2.563 2.616-1.55-.932-3.377-1.67-5.197-1.356-.26.044-.52.11-.778.2-3.34.941-5.363 4.842-4.127 8.073 1.024 3.375 5.174 5.228 8.427 3.81h.001c1.579-.56 2.653-1.946 3.182-3.477.036-.103.069-.205.1-.309a183.18 183.18 0 0 0-2.601-.026 143.303 143.303 0 0 1-3.191-.04c-.005-1.137-.01-2.268-.005-3.404l1.071-.002c2.863-.005 5.73-.01 8.596.016.198 2.783-.217 5.762-2.047 7.996v.001c-2.193 2.79-6.01 3.855-9.452 3.24-.491-.089-.975-.21-1.446-.367-3.996-1.298-6.902-5.28-6.815-9.452zM28.912 5.716l.007.946.003.444v.037l.003.42.007 1.008c.955.01 1.916.014 2.872.019h.014v2.845l-2.886.015v.01c-.009.873-.014 1.742-.018 2.616l-.002.233c-.64-.003-1.28-.002-1.92-.001l-.956.001c-.005-.476-.008-.951-.01-1.426v-.003c-.002-.476-.005-.95-.01-1.426-.955-.01-1.916-.014-2.873-.019h-.013V8.59c.96-.005 1.922-.01 2.887-.02.004-.949.014-1.904.024-2.854h2.871z" fill="#fff"/></svg>