<svg width="64" height="64" viewBox="0 0 64 64" fill="none" xmlns="http://www.w3.org/2000/svg"><path fill="none" d="M0 0h64v64H0z"/><path d="M32 64c17.673 0 32-14.327 32-32C64 14.327 49.673 0 32 0 14.327 0 0 14.327 0 32c0 17.673 14.327 32 32 32z" fill="#E20E17"/><path fill="none" d="M23.36 12.608h17.28v38.848H23.36z"/><path d="M31.616 24.256h2.496a2.294 2.294 0 0 1 2.304 2.304v18.432h1.152a3.073 3.073 0 0 1 3.072 3.072v.32a3.073 3.073 0 0 1-3.072 3.072H26.432c-1.728 0-3.072-1.408-3.072-3.136V48c0-1.664 1.408-3.008 3.072-3.008h2.048V29.376l-2.24-.064c-1.216-.064-2.176-1.024-2.176-2.24v-.576c0-1.216 1.024-2.24 2.24-2.24h5.312zM31.616 22.72a5.056 5.056 0 1 0 0-10.112 5.056 5.056 0 0 0 0 10.112z" fill="#fff"/></svg>