<svg width="64" height="64" viewBox="0 0 64 64" fill="none" xmlns="http://www.w3.org/2000/svg"><path fill="none" d="M0 0h64v64H0z"/><path d="M32 64c17.673 0 32-14.327 32-32C64 14.327 49.673 0 32 0 14.327 0 0 14.327 0 32c0 17.673 14.327 32 32 32z" fill="#E20E17"/><path d="M42.944 18.432l-9.664-2.368c-.512-.192-1.088-.064-1.536.192a1.67 1.67 0 0 0-.704 1.344V45.696c0 .512.256 1.024.704 1.344.448.32 1.024.384 1.536.192l9.664-2.368c.64-.256 1.088-.832 1.088-1.536V20.032c0-.704-.448-1.344-1.088-1.6zm-8.64 15.936c-.576 0-1.088-.704-1.088-1.6 0-.896.512-1.6 1.088-1.6.576 0 1.088.704 1.088 1.6 0 .896-.448 1.6-1.088 1.6zm-9.088 8.64h4.736v2.176h-5.376a2.158 2.158 0 0 1-2.176-2.176v-4.032l2.176-1.984v5.376c0 .384.32.64.64.64zm-.64-24.832h5.376v2.176h-4.736c-.384 0-.64.32-.64.64v5.376L22.4 24.384v-4.032c.064-1.216 1.024-2.176 2.176-2.176zm1.856 14.208l-6.592 6.08c-.32.256-.704.32-1.088.192a.963.963 0 0 1-.64-.896v-3.328h-5.376c-.64 0-1.088-.512-1.088-1.088v-3.2c0-.64.512-1.088 1.088-1.088h5.376v-3.328c0-.384.256-.768.64-.896a1.118 1.118 0 0 1 1.088.192l6.656 6.016c.192.192.32.448.32.704a1.705 1.705 0 0 1-.384.64z" fill="#fff"/></svg>