<svg width="183" height="60" viewBox="0 0 183 60" fill="none" xmlns="http://www.w3.org/2000/svg"><path d="M20.38 15.741c-6.268 0-11.372-5.067-11.372-11.3h-.005C8.985 1.985 6.978 0 4.503 0 2.026 0 .02 1.985.001 4.441H0c0 11.125 9.1 20.251 20.38 20.251 6.265 0 11.372 5.066 11.372 11.3 0 6.231-5.102 11.3-11.372 11.3-10.829 0-15.508-13.707-6.916-20.264a23.77 23.77 0 0 1-8.313-4.48C1.95 26.124 0 30.837 0 35.992c0 11.165 9.143 20.25 20.38 20.25 17.533 0 26.88-20.676 15.228-33.696a20.394 20.394 0 0 0-15.228-6.806zM40.76 4.441h-.002C40.74 1.985 38.733 0 36.258 0c-2.476 0-4.484 1.985-4.502 4.441h-.004c0 3.648-1.749 6.898-4.457 8.964 3.082.934 5.9 2.474 8.313 4.481A20.11 20.11 0 0 0 40.76 4.441zM61.64.941c-1.05.944-.812 1.223-.812 7.981h-5.093c0-6.754.233-7.031-.792-7.976C53.25-.61 50.436.55 50.436 2.69v17.376c0 .672.264 1.262.786 1.755 1.699 1.607 4.513.39 4.513-1.755v-6.23h5.093c0 6.75-.238 7.027.806 7.99 1.74 1.606 4.493.356 4.493-1.76V2.691c0-2.068-2.734-3.325-4.487-1.75zM82.356.894c-2.398-1.01-7.445-1.22-10.081 1.824-2.331 2.689-1.91 5.722-1.91 11.557 0 11.143 16.486 11.117 16.486 0 0-5.697.833-11.134-4.495-13.38zm-3.748 16.774c-2.107 0-2.944-1.387-2.944-3.393V8.483c0-2.762 1.304-3.364 2.944-3.364 1.736 0 2.944.684 2.944 3.364v5.792c0 2.01-.839 3.393-2.944 3.393zM103.726 10.916c1.773-1.184 2.407-2.45 2.407-4.1 0-3.335-2.54-6.319-7.212-6.319-5.32 0-5.906-.208-6.986.748a2.498 2.498 0 0 0-.874 1.944v16.41c0 .73.284 1.369.844 1.9 1.075 1.021 1.782.792 6.898.792 7.933 0 10.55-8.326 4.923-11.375zm-3.429-2.752c-.638.523-1.091.407-3.938.407V5.353c3.116 0 3.768-.112 4.13.385.498.689.484 1.87-.192 2.426zm-3.938 9.24v-3.92h2.885c2.464 0 2.539 2.544 1.614 3.406-.685.64-1.695.515-4.499.515zM115.7 20.096V2.691c0-1.353-1.184-2.457-2.65-2.457-1.48 0-2.649 1.12-2.649 2.457v17.405c0 .675.266 1.262.792 1.746 1.692 1.557 4.507.394 4.507-1.746zM65.515 35.54c-.71-1.883-3.289-2.3-4.6-.582l-5.18 6.897c0-5.943.233-6.325-.792-7.27-1.695-1.559-4.507-.392-4.507 1.746v17.376c0 .671.264 1.262.786 1.755 1.693 1.601 4.513.395 4.513-1.755v-5.486l5.183 6.893c2.014 2.642 6.107-.023 4.352-2.773l-5.559-7.32 5.53-7.254c.493-.704.564-1.459.274-2.226zM76.224 34.138c-4.524 0-5.259-.227-6.348.786-.574.532-.865 1.173-.865 1.905v16.85c0 .692.272 1.294.807 1.788 1.77 1.634 4.493.31 4.493-1.789V48.91c1.93 0 5.226.282 7.759-1.897 3.764-3.237 3.568-12.875-5.846-12.875zm2.797 7.4c0 2.77-2.103 2.487-4.71 2.487v-5.003c2.719 0 4.71-.253 4.71 2.516zM100.953 51.713c-1.015-.864-1.372-.667-7.655-.667v-3.599h4.975c2.447 0 3.494-2.792 1.776-4.222-1.031-.858-1.42-.663-6.751-.663v-3.54c5.941 0 6.38.19 7.374-.652 1.025-.87 1.134-2.452.023-3.501-1.02-.965-1.202-.732-9.84-.732-1.718 0-2.856 1.4-2.856 2.662v16.47c0 1.95 1.569 2.662 3.326 2.662 8.518 0 8.655.213 9.659-.712 1.048-.965 1.087-2.554-.031-3.506zM121.883 51.105V36.829c0-1.448-1.277-2.692-2.885-2.692-8.726 0-8.947-.236-10.009.796-.536.52-.833 1.145-.883 1.865-.391 7.463-.301 12.216-1.797 14.261-1.467.139-2.325 1.438-2.325 2.736 0 4.008-.201 4.606.778 5.505 1.603 1.473 4.462.496 4.462-1.76v-1.61h9.303v1.61c0 1.393 1.158 2.456 2.62 2.456 1.479 0 2.679-1.041 2.679-2.457 0-4.008.161-4.577-.62-5.604a2.2 2.2 0 0 0-1.323-.83zm-5.299-12.112v12.052h-4.647c1.127-2.984 1.04-6.083 1.269-12.052h3.378zM139.339 34.237c-1.119.6-.609.24-6.829 11.002V36.36c0-.674-.271-1.266-.807-1.76-1.703-1.572-4.492-.428-4.492 1.76v17.26c0 2.034 2.259 3.204 4.169 2.231 1.009-.514.626-.188 6.811-10.89v8.746c0 2.13 2.858 3.371 4.533 1.75.509-.493.766-1.082.766-1.75v-17.26c0-2.1-2.31-3.197-4.151-2.21zM159.858 34.138h-10.362c-2.074 0-3.661 2.545-1.872 4.188.932.858 1.721.697 4.404.697v14.714c0 .675.266 1.262.792 1.745 1.69 1.558 4.506.395 4.506-1.745V39.023h2.532c1.44 0 2.679-1.051 2.679-2.429 0-1.426-1.331-2.456-2.679-2.456zM176.909 35.224c-.133.219-5.687 9.912-5.747 10.016v-8.88c0-1.336-1.196-2.486-2.679-2.486-1.504 0-2.62 1.171-2.62 2.486v17.26c0 2.748 3.844 3.494 5.251 1.256l5.73-9.916v8.747c0 2.13 2.858 3.371 4.532 1.75.509-.493.767-1.082.767-1.75v-17.26c0-2.75-3.746-3.51-5.234-1.223z" fill="#E30613"/></svg>