<svg width="127" height="40" viewBox="0 0 127 40" fill="none" xmlns="http://www.w3.org/2000/svg"><path d="M14.21 10.494c-4.37 0-7.93-3.378-7.93-7.533h-.003C6.265 1.324 4.865 0 3.14 0S.014 1.324.001 2.96H0c0 7.417 6.345 13.501 14.21 13.501 4.369 0 7.93 3.378 7.93 7.534 0 4.154-3.558 7.534-7.93 7.534-7.55 0-10.813-9.14-4.822-13.51a16.826 16.826 0 0 1-5.796-2.987C1.359 17.417 0 20.559 0 23.995c0 7.444 6.375 13.5 14.21 13.5 12.225 0 18.742-13.784 10.618-22.463-2.625-2.803-6.427-4.538-10.618-4.538z" fill="#E30613"/><path d="M14.21 10.494c-4.37 0-7.93-3.378-7.93-7.533h-.003C6.265 1.324 4.865 0 3.14 0S.014 1.324.001 2.96H0c0 7.417 6.345 13.501 14.21 13.501 4.369 0 7.93 3.378 7.93 7.534 0 4.154-3.558 7.534-7.93 7.534-7.55 0-10.813-9.14-4.822-13.51a16.826 16.826 0 0 1-5.796-2.987C1.359 17.417 0 20.559 0 23.995c0 7.444 6.375 13.5 14.21 13.5 12.225 0 18.742-13.784 10.618-22.463-2.625-2.803-6.427-4.538-10.618-4.538z" fill="#fff"/><path d="M28.42 2.96h-.002C28.407 1.325 27.007 0 25.28 0s-3.125 1.324-3.138 2.96h-.003c0 2.432-1.22 4.6-3.107 5.977a16.827 16.827 0 0 1 5.796 2.987c2.317-2.475 3.592-5.648 3.592-8.963z" fill="#E30613"/><path d="M28.42 2.96h-.002C28.407 1.325 27.007 0 25.28 0s-3.125 1.324-3.138 2.96h-.003c0 2.432-1.22 4.6-3.107 5.977a16.827 16.827 0 0 1 5.796 2.987c2.317-2.475 3.592-5.648 3.592-8.963z" fill="#fff"/><path d="M42.978.627c-.732.63-.566.816-.566 5.321h-3.55c0-4.503.162-4.687-.553-5.318-1.18-1.037-3.142-.263-3.142 1.164v11.584c0 .448.184.841.548 1.17 1.184 1.071 3.146.26 3.146-1.17V9.224h3.551c0 4.5-.165 4.685.563 5.328 1.213 1.07 3.132.237 3.132-1.174V1.794c0-1.379-1.906-2.217-3.129-1.167z" fill="#E30613"/><path d="M42.978.627c-.732.63-.566.816-.566 5.321h-3.55c0-4.503.162-4.687-.553-5.318-1.18-1.037-3.142-.263-3.142 1.164v11.584c0 .448.184.841.548 1.17 1.184 1.071 3.146.26 3.146-1.17V9.224h3.551c0 4.5-.165 4.685.563 5.328 1.213 1.07 3.132.237 3.132-1.174V1.794c0-1.379-1.906-2.217-3.129-1.167z" fill="#fff"/><path d="M57.423.596c-1.672-.674-5.19-.813-7.03 1.216-1.624 1.792-1.33 3.815-1.33 7.704 0 7.43 11.494 7.412 11.494 0 0-3.798.581-7.422-3.134-8.92zM54.81 11.78c-1.47 0-2.053-.925-2.053-2.262V5.655c0-1.84.91-2.242 2.053-2.242 1.21 0 2.053.456 2.053 2.242v3.862c0 1.34-.585 2.262-2.053 2.262z" fill="#E30613"/><path d="M57.423.596c-1.672-.674-5.19-.813-7.03 1.216-1.624 1.792-1.33 3.815-1.33 7.704 0 7.43 11.494 7.412 11.494 0 0-3.798.581-7.422-3.134-8.92zM54.81 11.78c-1.47 0-2.053-.925-2.053-2.262V5.655c0-1.84.91-2.242 2.053-2.242 1.21 0 2.053.456 2.053 2.242v3.862c0 1.34-.585 2.262-2.053 2.262z" fill="#fff"/><path d="M72.324 7.277c1.236-.789 1.678-1.633 1.678-2.733C74.002 2.32 72.23.33 68.973.33c-3.709 0-4.118-.138-4.871.499-.404.342-.61.778-.61 1.296v10.94c0 .486.199.912.59 1.267.748.68 1.242.527 4.809.527 5.53 0 7.356-5.55 3.433-7.583zm-2.391-1.835c-.445.35-.761.272-2.746.272V3.569c2.172 0 2.627-.075 2.88.257.347.459.337 1.247-.134 1.616zm-2.746 6.161V8.99h2.012c1.717 0 1.77 1.695 1.125 2.27-.478.426-1.182.343-3.137.343z" fill="#E30613"/><path d="M72.324 7.277c1.236-.789 1.678-1.633 1.678-2.733C74.002 2.32 72.23.33 68.973.33c-3.709 0-4.118-.138-4.871.499-.404.342-.61.778-.61 1.296v10.94c0 .486.199.912.59 1.267.748.68 1.242.527 4.809.527 5.53 0 7.356-5.55 3.433-7.583zm-2.391-1.835c-.445.35-.761.272-2.746.272V3.569c2.172 0 2.627-.075 2.88.257.347.459.337 1.247-.134 1.616zm-2.746 6.161V8.99h2.012c1.717 0 1.77 1.695 1.125 2.27-.478.426-1.182.343-3.137.343z" fill="#fff"/><path d="M80.672 13.398V1.794c0-.902-.825-1.638-1.847-1.638-1.032 0-1.847.746-1.847 1.638v11.604c0 .45.185.84.552 1.163 1.18 1.038 3.142.263 3.142-1.163z" fill="#E30613"/><path d="M80.672 13.398V1.794c0-.902-.825-1.638-1.847-1.638-1.032 0-1.847.746-1.847 1.638v11.604c0 .45.185.84.552 1.163 1.18 1.038 3.142.263 3.142-1.163z" fill="#fff"/><path d="M45.68 23.694c-.495-1.256-2.292-1.534-3.207-.389l-3.612 4.599c0-3.962.163-4.217-.552-4.847-1.182-1.04-3.142-.262-3.142 1.164v11.584c0 .447.184.84.548 1.17 1.18 1.067 3.146.263 3.146-1.17v-3.658l3.614 4.596c1.405 1.76 4.259-.016 3.035-1.85l-3.876-4.88 3.856-4.835a1.47 1.47 0 0 0 .19-1.484z" fill="#E30613"/><path d="M45.68 23.694c-.495-1.256-2.292-1.534-3.207-.389l-3.612 4.599c0-3.962.163-4.217-.552-4.847-1.182-1.04-3.142-.262-3.142 1.164v11.584c0 .447.184.84.548 1.17 1.18 1.067 3.146.263 3.146-1.17v-3.658l3.614 4.596c1.405 1.76 4.259-.016 3.035-1.85l-3.876-4.88 3.856-4.835a1.47 1.47 0 0 0 .19-1.484z" fill="#fff"/><path d="M53.148 22.758c-3.155 0-3.667-.15-4.427.525-.4.354-.602.782-.602 1.27v11.232c0 .463.189.864.562 1.193 1.234 1.09 3.132.207 3.132-1.193v-3.178c1.347 0 3.645.187 5.41-1.265 2.625-2.158 2.489-8.584-4.075-8.584zm1.95 4.934c0 1.847-1.467 1.658-3.285 1.658v-3.335c1.896 0 3.284-.169 3.284 1.677z" fill="#E30613"/><path d="M53.148 22.758c-3.155 0-3.667-.15-4.427.525-.4.354-.602.782-.602 1.27v11.232c0 .463.189.864.562 1.193 1.234 1.09 3.132.207 3.132-1.193v-3.178c1.347 0 3.645.187 5.41-1.265 2.625-2.158 2.489-8.584-4.075-8.584zm1.95 4.934c0 1.847-1.467 1.658-3.285 1.658v-3.335c1.896 0 3.284-.169 3.284 1.677z" fill="#fff"/><path d="M70.39 34.475c-.708-.575-.957-.445-5.338-.445v-2.398h3.47c1.706 0 2.436-1.862 1.238-2.815-.72-.572-.99-.442-4.708-.442v-2.36c4.143 0 4.449.127 5.142-.435.715-.58.79-1.634.016-2.334-.711-.643-.838-.488-6.861-.488-1.197 0-1.991.933-1.991 1.775v10.98c0 1.3 1.093 1.774 2.319 1.774 5.939 0 6.034.142 6.735-.475.73-.642.757-1.702-.022-2.337z" fill="#E30613"/><path d="M70.39 34.475c-.708-.575-.957-.445-5.338-.445v-2.398h3.47c1.706 0 2.436-1.862 1.238-2.815-.72-.572-.99-.442-4.708-.442v-2.36c4.143 0 4.449.127 5.142-.435.715-.58.79-1.634.016-2.334-.711-.643-.838-.488-6.861-.488-1.197 0-1.991.933-1.991 1.775v10.98c0 1.3 1.093 1.774 2.319 1.774 5.939 0 6.034.142 6.735-.475.73-.642.757-1.702-.022-2.337z" fill="#fff"/><path d="M84.983 34.07v-9.518c0-.965-.89-1.794-2.011-1.794-6.084 0-6.238-.157-6.98.53-.373.348-.58.764-.614 1.244-.273 4.976-.21 8.144-1.254 9.507-1.023.093-1.62.959-1.62 1.825 0 2.671-.141 3.07.542 3.67 1.118.981 3.111.33 3.111-1.174v-1.073h6.486v1.073c0 .929.808 1.638 1.827 1.638 1.031 0 1.868-.695 1.868-1.638 0-2.673.112-3.052-.432-3.736a1.547 1.547 0 0 0-.923-.554zm-3.695-8.075v8.035h-3.24c.787-1.99.726-4.055.885-8.035h2.355z" fill="#E30613"/><path d="M84.983 34.07v-9.518c0-.965-.89-1.794-2.011-1.794-6.084 0-6.238-.157-6.98.53-.373.348-.58.764-.614 1.244-.273 4.976-.21 8.144-1.254 9.507-1.023.093-1.62.959-1.62 1.825 0 2.671-.141 3.07.542 3.67 1.118.981 3.111.33 3.111-1.174v-1.073h6.486v1.073c0 .929.808 1.638 1.827 1.638 1.031 0 1.868-.695 1.868-1.638 0-2.673.112-3.052-.432-3.736a1.547 1.547 0 0 0-.923-.554zm-3.695-8.075v8.035h-3.24c.787-1.99.726-4.055.885-8.035h2.355z" fill="#fff"/><path d="M97.155 22.825c-.78.4-.425.16-4.762 7.335v-5.92c0-.45-.189-.844-.562-1.173-1.188-1.048-3.133-.286-3.133 1.173v11.506c0 1.357 1.576 2.137 2.908 1.488.703-.343.436-.126 4.749-7.26v5.83c0 1.421 1.992 2.248 3.16 1.167.355-.329.534-.72.534-1.166V24.299c0-1.401-1.61-2.132-2.894-1.474z" fill="#E30613"/><path d="M97.155 22.825c-.78.4-.425.16-4.762 7.335v-5.92c0-.45-.189-.844-.562-1.173-1.188-1.048-3.133-.286-3.133 1.173v11.506c0 1.357 1.576 2.137 2.908 1.488.703-.343.436-.126 4.749-7.26v5.83c0 1.421 1.992 2.248 3.16 1.167.355-.329.534-.72.534-1.166V24.299c0-1.401-1.61-2.132-2.894-1.474z" fill="#fff"/><path d="M111.462 22.758h-7.225c-1.446 0-2.553 1.697-1.305 2.792.65.572 1.2.465 3.07.465v9.81c0 .45.186.84.552 1.163 1.179 1.038 3.143.264 3.143-1.163v-9.81h1.765c1.004 0 1.868-.7 1.868-1.619 0-.95-.928-1.638-1.868-1.638z" fill="#E30613"/><path d="M111.462 22.758h-7.225c-1.446 0-2.553 1.697-1.305 2.792.65.572 1.2.465 3.07.465v9.81c0 .45.186.84.552 1.163 1.179 1.038 3.143.264 3.143-1.163v-9.81h1.765c1.004 0 1.868-.7 1.868-1.619 0-.95-.928-1.638-1.868-1.638z" fill="#fff"/><path d="M123.351 23.483c-.093.145-3.966 6.608-4.007 6.677v-5.92c0-.89-.834-1.657-1.868-1.657-1.049 0-1.827.78-1.827 1.657v11.506c0 1.833 2.68 2.33 3.661.838l3.995-6.61v5.83c0 1.421 1.993 2.248 3.16 1.167.355-.329.535-.72.535-1.166V24.299c0-1.835-2.612-2.34-3.649-.816z" fill="#E30613"/><path d="M123.351 23.483c-.093.145-3.966 6.608-4.007 6.677v-5.92c0-.89-.834-1.657-1.868-1.657-1.049 0-1.827.78-1.827 1.657v11.506c0 1.833 2.68 2.33 3.661.838l3.995-6.61v5.83c0 1.421 1.993 2.248 3.16 1.167.355-.329.535-.72.535-1.166V24.299c0-1.835-2.612-2.34-3.649-.816z" fill="#fff"/></svg>