<svg width="122" height="40" viewBox="0 0 122 40" fill="none" xmlns="http://www.w3.org/2000/svg"><path d="M13.586 10.494c-4.178 0-7.58-3.378-7.58-7.533h-.004a2.992 2.992 0 0 0-3-2.961 2.992 2.992 0 0 0-3 2.96H0c0 7.417 6.066 13.501 13.586 13.501 4.178 0 7.582 3.378 7.582 7.534 0 4.154-3.401 7.534-7.582 7.534-7.218 0-10.338-9.14-4.61-13.51a15.848 15.848 0 0 1-5.542-2.987A13.402 13.402 0 0 0 0 23.995c0 7.444 6.095 13.5 13.586 13.5 11.69 0 17.92-13.784 10.153-22.463a13.596 13.596 0 0 0-10.153-4.538zM27.173 2.96h-.001a2.992 2.992 0 0 0-3-2.96 2.992 2.992 0 0 0-3.001 2.96h-.003a7.508 7.508 0 0 1-2.971 5.977 15.848 15.848 0 0 1 5.542 2.987 13.407 13.407 0 0 0 3.434-8.963zM41.093.627c-.7.63-.541.816-.541 5.321h-3.395c0-4.503.155-4.687-.529-5.318-1.127-1.037-3.004-.263-3.004 1.164v11.584c0 .448.176.841.524 1.17 1.133 1.071 3.008.26 3.008-1.17V9.224h3.396c0 4.5-.158 4.685.537 5.328 1.16 1.07 2.995.237 2.995-1.174V1.794c0-1.379-1.822-2.217-2.991-1.167zM54.904.596c-1.599-.674-4.963-.813-6.721 1.216-1.554 1.792-1.273 3.815-1.273 7.704 0 7.43 10.99 7.412 10.99 0 0-3.798.556-7.422-2.996-8.92zM52.406 11.78c-1.405 0-1.963-.925-1.963-2.262V5.655c0-1.84.869-2.242 1.963-2.242 1.157 0 1.962.456 1.962 2.242v3.862c0 1.34-.56 2.262-1.962 2.262zM69.15 7.277c1.183-.789 1.605-1.633 1.605-2.733 0-2.223-1.693-4.213-4.808-4.213-3.546 0-3.937-.138-4.657.499a1.665 1.665 0 0 0-.583 1.296v10.94c0 .486.19.912.563 1.267.716.68 1.188.527 4.599.527 5.288 0 7.033-5.55 3.282-7.583zm-2.285-1.835c-.425.35-.728.272-2.625.272V3.569c2.077 0 2.511-.075 2.752.257.333.459.323 1.247-.127 1.616zm-2.625 6.161V8.99h1.923c1.642 0 1.693 1.695 1.076 2.27-.457.426-1.13.343-3 .343zM77.133 13.398V1.794c0-.902-.789-1.638-1.766-1.638-.987 0-1.766.746-1.766 1.638v11.604c0 .45.177.84.528 1.163 1.128 1.038 3.004.263 3.004-1.163zM43.677 23.694c-.474-1.256-2.193-1.534-3.067-.389l-3.453 4.599c0-3.962.155-4.217-.529-4.847-1.13-1.04-3.004-.262-3.004 1.164v11.584c0 .447.176.84.524 1.17 1.129 1.067 3.008.263 3.008-1.17v-3.658l3.456 4.596c1.343 1.76 4.072-.016 2.901-1.85l-3.706-4.88 3.687-4.835c.328-.47.376-.973.183-1.484zM50.816 22.758c-3.016 0-3.506-.15-4.232.525-.382.354-.576.782-.576 1.27v11.232c0 .463.18.864.537 1.193 1.18 1.09 2.995.207 2.995-1.193v-3.178c1.288 0 3.485.187 5.173-1.265 2.51-2.158 2.38-8.584-3.897-8.584zm1.864 4.934c0 1.847-1.401 1.658-3.14 1.658v-3.335c1.813 0 3.14-.169 3.14 1.677zM67.302 34.475c-.677-.575-.915-.445-5.103-.445v-2.398h3.316c1.632 0 2.33-1.862 1.184-2.815-.687-.572-.947-.442-4.5-.442v-2.36c3.96 0 4.253.127 4.916-.435.683-.58.756-1.634.015-2.334-.68-.643-.801-.488-6.56-.488-1.145 0-1.904.933-1.904 1.775v10.98c0 1.3 1.046 1.774 2.218 1.774 5.678 0 5.77.142 6.439-.475.698-.642.724-1.702-.021-2.337zM81.255 34.07v-9.518c0-.965-.85-1.794-1.923-1.794-5.817 0-5.964-.157-6.673.53a1.87 1.87 0 0 0-.588 1.244c-.261 4.976-.2 8.144-1.198 9.507-.979.093-1.55.959-1.55 1.825 0 2.671-.135 3.07.519 3.67 1.068.981 2.974.33 2.974-1.174v-1.073h6.202v1.073c0 .929.772 1.638 1.747 1.638.986 0 1.785-.695 1.785-1.638 0-2.673.108-3.052-.412-3.736a1.469 1.469 0 0 0-.883-.554zm-3.533-8.075v8.035h-3.097c.751-1.99.693-4.055.845-8.035h2.252zM92.893 22.825c-.746.4-.406.16-4.553 7.335v-5.92c0-.45-.18-.844-.538-1.173-1.136-1.048-2.995-.286-2.995 1.173v11.506c0 1.357 1.507 2.137 2.78 1.488.673-.343.417-.126 4.54-7.26v5.83c0 1.421 1.906 2.248 3.022 1.167.34-.329.511-.72.511-1.166V24.299c0-1.401-1.54-2.132-2.767-1.474zM106.572 22.758h-6.908c-1.382 0-2.44 1.697-1.248 2.792.622.572 1.148.465 2.936.465v9.81c0 .45.178.84.528 1.163 1.127 1.038 3.004.264 3.004-1.163v-9.81h1.688c.96 0 1.786-.7 1.786-1.619 0-.95-.887-1.638-1.786-1.638zM117.939 23.483c-.089.145-3.791 6.608-3.831 6.677v-5.92c0-.89-.797-1.657-1.786-1.657-1.003 0-1.746.78-1.746 1.657v11.506c0 1.833 2.562 2.33 3.5.838l3.82-6.61v5.83c0 1.421 1.905 2.248 3.022 1.167.339-.329.511-.72.511-1.166V24.299c0-1.835-2.497-2.34-3.49-.816z" fill="#E30613"/></svg>