<svg width="22" height="16" viewBox="0 0 22 16" fill="none" xmlns="http://www.w3.org/2000/svg"><path d="M7.341 7.831L.494 2.067A.706.706 0 0 1 .436 1.03.823.823 0 0 1 1.542.974l9.444 7.956 1.842-1.544c.006-.006.011-.011.011-.017.041-.038.082-.07.128-.103L20.464.969a.817.817 0 0 1 1.106.06c.29.304.261.767-.063 1.038l-6.93 5.813 6.9 6.063c.313.278.33.74.035 1.039a.825.825 0 0 1-1.106.038L13.4 8.87l-1.9 1.593a.812.812 0 0 1-.521.185.806.806 0 0 1-.522-.19L8.506 8.816l-6.964 6.21a.805.805 0 0 1-.539.2.807.807 0 0 1-.567-.228.705.705 0 0 1 .029-1.038L7.34 7.83z" fill="#fff"/></svg>