<svg width="28" height="20" viewBox="0 0 28 20" fill="none" xmlns="http://www.w3.org/2000/svg"><path d="M3.418 0h21.158C26.465 0 28 1.441 28 3.214v13.572C28 18.56 26.465 20 24.576 20H3.424C1.535 20 0 18.559 0 16.786V3.22C-.006 1.446 1.53 0 3.418 0zm-1.86 16.786c0 .963.835 1.746 1.86 1.746h21.158c1.026 0 1.86-.783 1.86-1.746V3.22c0-.962-.834-1.745-1.86-1.745H3.424c-1.025 0-1.86.783-1.86 1.745v13.567h-.006z" fill="#fff"/><path d="M10.341 9.831L3.494 4.067a.706.706 0 0 1-.058-1.038.823.823 0 0 1 1.106-.055l9.444 7.956 1.842-1.544c.006-.006.011-.011.011-.017.041-.038.082-.07.128-.103l7.497-6.297a.817.817 0 0 1 1.106.06c.29.304.261.767-.063 1.038l-6.93 5.813 6.9 6.063c.313.278.33.74.035 1.04a.826.826 0 0 1-1.106.037L16.4 10.87l-1.9 1.593a.812.812 0 0 1-.521.185.807.807 0 0 1-.522-.19l-1.952-1.642-6.964 6.21a.806.806 0 0 1-.539.2.807.807 0 0 1-.567-.228.705.705 0 0 1 .029-1.038L10.34 9.83z" fill="#fff"/></svg>