<svg width="12" height="12" viewBox="0 0 12 12" fill="none" xmlns="http://www.w3.org/2000/svg"><path d="M3.759 2.217h4.48a.243.243 0 0 0 .243-.243V0H3.516v1.974c0 .134.109.243.243.243z" fill="#B3B3B3"/><path d="M11.813 3.018L9.283.478v1.496c0 .575-.467 1.043-1.042 1.043H3.76a1.044 1.044 0 0 1-1.043-1.043V0H1.1C.493 0 0 .493 0 1.1v9.8c0 .607.493 1.1 1.101 1.1H10.9c.608 0 1.101-.493 1.101-1.1V3.471a.642.642 0 0 0-.187-.454zm-1.68 6.457a.643.643 0 0 1-.643.643H2.51a.643.643 0 0 1-.643-.643v-3.35c0-.355.287-.643.642-.643H9.49c.356 0 .643.288.643.643v3.35z" fill="#B3B3B3"/><path d="M8.759 6.514H3.242a.4.4 0 1 0 0 .8H8.76a.4.4 0 1 0 0-.8zM7.96 8.114H4.042a.4.4 0 1 0 0 .8h3.916a.4.4 0 1 0 0-.8z" fill="#B3B3B3"/></svg>