<svg width="536" height="741" viewBox="0 0 536 741" fill="none" xmlns="http://www.w3.org/2000/svg"><g filter="url(#a)" fill="#F7F7F7"><path d="M268.089 207.391c82.392 0 149.498-66.766 149.498-148.88h.061C417.885 26.157 444.274 0 476.813 0c32.538 0 58.928 26.157 59.164 58.511H536c0 146.564-119.625 266.805-267.911 266.805-82.368 0-149.497 66.747-149.497 148.88 0 82.09 67.067 148.879 149.497 148.879 142.35 0 203.859-180.602 90.914-266.981 40.526-12.294 77.562-32.593 109.28-59.036C510.377 344.196 536 406.284 536 474.196 536 621.306 415.81 741 268.089 741 37.594 741-85.278 468.588 67.896 297.058c49.489-55.385 121.18-89.667 200.193-89.667zM.179 58.511h.023C.438 26.157 26.824 0 59.366 0c32.543 0 58.928 26.157 59.164 58.511h.062c0 48.056 22.988 90.874 58.584 118.102-40.511 12.294-77.562 32.59-109.28 59.036C24.208 186.726.179 124.022.179 58.511z"/></g><defs><filter id="a" x="0" y="0" width="536" height="751" filterUnits="userSpaceOnUse" color-interpolation-filters="sRGB"><feFlood flood-opacity="0" result="BackgroundImageFix"/><feBlend in="SourceGraphic" in2="BackgroundImageFix" result="shape"/><feColorMatrix in="SourceAlpha" values="0 0 0 0 0 0 0 0 0 0 0 0 0 0 0 0 0 0 255 0" result="hardAlpha"/><feOffset dy="10"/><feGaussianBlur stdDeviation="10"/><feComposite in2="hardAlpha" operator="arithmetic" k2="-1" k3="1"/><feColorMatrix values="0 0 0 0 0 0 0 0 0 0 0 0 0 0 0 0 0 0 0.05 0"/><feBlend in2="shape" result="effect1_innerShadow"/></filter></defs></svg>