<svg width="10" height="14" viewBox="0 0 10 14" fill="none" xmlns="http://www.w3.org/2000/svg"><path d="M8.819 10.126L7 9.197v-.193c.814-.444 1.386-1.176 1.706-2.18.485-.258.794-.758.794-1.318v-.5a1.49 1.49 0 0 0-.575-1.174C8.611 1.943 7.293.986 5 .986c-.109 0-.215.004-.318.012-.432.036-1.065-.002-1.612-.37a2.049 2.049 0 0 1-.458-.396.596.596 0 0 0-.7-.186.593.593 0 0 0-.367.623c.02.187.052.404.1.642.096.488.096.488-.04.779-.05.11-.113.245-.188.426a5.577 5.577 0 0 0-.35 1.323A1.491 1.491 0 0 0 .5 5.006v.5c0 .56.31 1.06.794 1.317.32 1.006.892 1.737 1.706 2.18v.189l-1.885.928A2.137 2.137 0 0 0 0 11.998v.662C0 13.06 0 14 5 14s5-.939 5-1.34v-.622c0-.815-.453-1.547-1.181-1.912zM9 12.546c-.312.19-1.581.454-4 .454s-3.688-.264-4-.454v-.55c0-.416.228-.8.576-.99l1.929-.95a.888.888 0 0 0 .494-.793v-.9l-.302-.13c-.758-.327-1.251-.95-1.507-1.906l-.071-.267-.264-.082a.504.504 0 0 1-.355-.473v-.5a.5.5 0 0 1 .27-.438l.235-.125.028-.264c.049-.469.154-.901.31-1.284.067-.163.123-.284.17-.383.169-.364.23-.552.188-.937.588.335 1.294.478 2.061.42a2.86 2.86 0 0 1 .239-.01c1.871 0 2.785.678 2.964 2.198l.031.26.232.124a.501.501 0 0 1 .272.439v.5a.503.503 0 0 1-.356.473l-.263.082-.072.266c-.256.956-.748 1.579-1.507 1.906L6 8.363v.905a.88.88 0 0 0 .482.787l1.888.964c.389.194.63.585.63 1.019v.509z" fill="#1D1D1B"/></svg>